M48
; DRILL file {KiCad 7.0.7} date Sun Sep 10 20:13:05 2023
; FORMAT={-:-/ absolute / metric / decimal}
; #@! TF.CreationDate,2023-09-10T20:13:05+02:00
; #@! TF.GenerationSoftware,Kicad,Pcbnew,7.0.7
; #@! TF.FileFunction,Plated,1,4,PTH
FMAT,2
METRIC
; #@! TA.AperFunction,Plated,PTH,ViaDrill
T1C0.400
; #@! TA.AperFunction,Plated,PTH,ComponentDrill
T2C1.000
; #@! TA.AperFunction,Plated,PTH,ComponentDrill
T3C1.100
; #@! TA.AperFunction,Plated,PTH,ComponentDrill
T4C1.829
%
G90
G05
T1
X107.0Y-81.0
X108.0Y-102.5
X109.728Y-69.342
X109.728Y-78.74
X110.0Y-94.0
X112.014Y-94.234
X112.5Y-81.0
X112.522Y-112.776
X113.0Y-62.0
X113.03Y-102.362
X113.03Y-103.632
X113.792Y-94.234
X113.919Y-83.82
X115.915Y-82.042
X116.0Y-103.5
X116.078Y-92.964
X116.586Y-83.566
X117.094Y-102.362
X117.348Y-110.744
X117.602Y-105.228
X117.602Y-106.228
X117.602Y-107.25
X117.638Y-62.849
X117.856Y-113.483
X117.86Y-114.882
X118.143Y-102.143
X118.618Y-94.488
X118.807Y-114.182
X119.126Y-99.06
X119.126Y-112.776
X119.634Y-97.79
X119.888Y-100.33
X120.0Y-83.5
X122.174Y-112.776
X122.682Y-106.934
X124.206Y-112.014
X125.73Y-83.566
X126.746Y-83.566
X127.508Y-110.49
X127.762Y-112.268
X130.5Y-76.5
X130.5Y-107.5
X132.0Y-79.5
X132.0Y-81.0
X132.334Y-103.632
X134.112Y-108.712
X135.092Y-91.476
X137.0Y-107.0
X141.732Y-106.68
X143.256Y-103.632
X146.304Y-103.632
X146.5Y-108.0
X149.86Y-100.584
X152.4Y-103.886
X152.4Y-105.664
X152.4Y-107.188
X154.94Y-104.902
X160.166Y-107.897
X161.944Y-111.046
X163.468Y-111.046
X165.246Y-111.835
X165.754Y-106.474
X166.769Y-106.499
X169.056Y-104.442
X172.5Y-95.5
X172.974Y-106.68
X180.5Y-64.5
X180.5Y-80.0
X181.102Y-85.0
X181.102Y-96.266
X183.5Y-96.5
X183.5Y-107.5
X188.5Y-64.5
X188.5Y-80.0
X191.77Y-85.09
X191.77Y-96.266
T2
X125.73Y-102.616
X125.73Y-105.156
X125.73Y-107.696
X128.27Y-102.616
X128.27Y-105.156
X128.27Y-107.696
T3
X133.28Y-87.884
X133.28Y-90.424
X133.28Y-92.964
X133.28Y-95.504
T4
X125.146Y-72.39
X132.766Y-69.85
X132.766Y-74.93
X180.766Y-69.85
X180.766Y-74.93
X188.386Y-72.39
T0
M30
