%TF.GenerationSoftware,KiCad,Pcbnew,7.0.7*%
%TF.CreationDate,2023-09-10T20:13:10+02:00*%
%TF.ProjectId,Riddle_PCB,52696464-6c65-45f5-9043-422e6b696361,rev?*%
%TF.SameCoordinates,Original*%
%TF.FileFunction,Legend,Top*%
%TF.FilePolarity,Positive*%
%FSLAX46Y46*%
G04 Gerber Fmt 4.6, Leading zero omitted, Abs format (unit mm)*
G04 Created by KiCad (PCBNEW 7.0.7) date 2023-09-10 20:13:10*
%MOMM*%
%LPD*%
G01*
G04 APERTURE LIST*
%ADD10C,0.750000*%
%ADD11C,0.150000*%
%ADD12C,0.100000*%
%ADD13C,0.120000*%
G04 APERTURE END LIST*
D10*
X174689706Y-72365000D02*
X176975421Y-72365000D01*
X136589706Y-72365000D02*
X138875421Y-72365000D01*
X137732563Y-73507857D02*
X137732563Y-71222142D01*
D11*
X143055826Y-72475247D02*
X142789160Y-72475247D01*
X142789160Y-72894295D02*
X142789160Y-72094295D01*
X142789160Y-72094295D02*
X143170112Y-72094295D01*
X143627255Y-72094295D02*
X143779636Y-72094295D01*
X143779636Y-72094295D02*
X143855826Y-72132390D01*
X143855826Y-72132390D02*
X143932017Y-72208580D01*
X143932017Y-72208580D02*
X143970112Y-72360961D01*
X143970112Y-72360961D02*
X143970112Y-72627628D01*
X143970112Y-72627628D02*
X143932017Y-72780009D01*
X143932017Y-72780009D02*
X143855826Y-72856200D01*
X143855826Y-72856200D02*
X143779636Y-72894295D01*
X143779636Y-72894295D02*
X143627255Y-72894295D01*
X143627255Y-72894295D02*
X143551064Y-72856200D01*
X143551064Y-72856200D02*
X143474874Y-72780009D01*
X143474874Y-72780009D02*
X143436778Y-72627628D01*
X143436778Y-72627628D02*
X143436778Y-72360961D01*
X143436778Y-72360961D02*
X143474874Y-72208580D01*
X143474874Y-72208580D02*
X143551064Y-72132390D01*
X143551064Y-72132390D02*
X143627255Y-72094295D01*
X144770112Y-72894295D02*
X144503445Y-72513342D01*
X144312969Y-72894295D02*
X144312969Y-72094295D01*
X144312969Y-72094295D02*
X144617731Y-72094295D01*
X144617731Y-72094295D02*
X144693921Y-72132390D01*
X144693921Y-72132390D02*
X144732016Y-72170485D01*
X144732016Y-72170485D02*
X144770112Y-72246676D01*
X144770112Y-72246676D02*
X144770112Y-72360961D01*
X144770112Y-72360961D02*
X144732016Y-72437152D01*
X144732016Y-72437152D02*
X144693921Y-72475247D01*
X144693921Y-72475247D02*
X144617731Y-72513342D01*
X144617731Y-72513342D02*
X144312969Y-72513342D01*
X145722493Y-72094295D02*
X145722493Y-72741914D01*
X145722493Y-72741914D02*
X145760588Y-72818104D01*
X145760588Y-72818104D02*
X145798683Y-72856200D01*
X145798683Y-72856200D02*
X145874874Y-72894295D01*
X145874874Y-72894295D02*
X146027255Y-72894295D01*
X146027255Y-72894295D02*
X146103445Y-72856200D01*
X146103445Y-72856200D02*
X146141540Y-72818104D01*
X146141540Y-72818104D02*
X146179636Y-72741914D01*
X146179636Y-72741914D02*
X146179636Y-72094295D01*
X146522492Y-72856200D02*
X146636778Y-72894295D01*
X146636778Y-72894295D02*
X146827254Y-72894295D01*
X146827254Y-72894295D02*
X146903445Y-72856200D01*
X146903445Y-72856200D02*
X146941540Y-72818104D01*
X146941540Y-72818104D02*
X146979635Y-72741914D01*
X146979635Y-72741914D02*
X146979635Y-72665723D01*
X146979635Y-72665723D02*
X146941540Y-72589533D01*
X146941540Y-72589533D02*
X146903445Y-72551438D01*
X146903445Y-72551438D02*
X146827254Y-72513342D01*
X146827254Y-72513342D02*
X146674873Y-72475247D01*
X146674873Y-72475247D02*
X146598683Y-72437152D01*
X146598683Y-72437152D02*
X146560588Y-72399057D01*
X146560588Y-72399057D02*
X146522492Y-72322866D01*
X146522492Y-72322866D02*
X146522492Y-72246676D01*
X146522492Y-72246676D02*
X146560588Y-72170485D01*
X146560588Y-72170485D02*
X146598683Y-72132390D01*
X146598683Y-72132390D02*
X146674873Y-72094295D01*
X146674873Y-72094295D02*
X146865350Y-72094295D01*
X146865350Y-72094295D02*
X146979635Y-72132390D01*
X147322493Y-72475247D02*
X147589159Y-72475247D01*
X147703445Y-72894295D02*
X147322493Y-72894295D01*
X147322493Y-72894295D02*
X147322493Y-72094295D01*
X147322493Y-72094295D02*
X147703445Y-72094295D01*
X148579636Y-72094295D02*
X148770112Y-72894295D01*
X148770112Y-72894295D02*
X148922493Y-72322866D01*
X148922493Y-72322866D02*
X149074874Y-72894295D01*
X149074874Y-72894295D02*
X149265351Y-72094295D01*
X149570113Y-72894295D02*
X149570113Y-72094295D01*
X149836779Y-72094295D02*
X150293922Y-72094295D01*
X150065350Y-72894295D02*
X150065350Y-72094295D01*
X150560589Y-72894295D02*
X150560589Y-72094295D01*
X150560589Y-72475247D02*
X151017732Y-72475247D01*
X151017732Y-72894295D02*
X151017732Y-72094295D01*
X152008208Y-72894295D02*
X152008208Y-72094295D01*
X152008208Y-72094295D02*
X152312970Y-72094295D01*
X152312970Y-72094295D02*
X152389160Y-72132390D01*
X152389160Y-72132390D02*
X152427255Y-72170485D01*
X152427255Y-72170485D02*
X152465351Y-72246676D01*
X152465351Y-72246676D02*
X152465351Y-72360961D01*
X152465351Y-72360961D02*
X152427255Y-72437152D01*
X152427255Y-72437152D02*
X152389160Y-72475247D01*
X152389160Y-72475247D02*
X152312970Y-72513342D01*
X152312970Y-72513342D02*
X152008208Y-72513342D01*
X153265351Y-72894295D02*
X152998684Y-72513342D01*
X152808208Y-72894295D02*
X152808208Y-72094295D01*
X152808208Y-72094295D02*
X153112970Y-72094295D01*
X153112970Y-72094295D02*
X153189160Y-72132390D01*
X153189160Y-72132390D02*
X153227255Y-72170485D01*
X153227255Y-72170485D02*
X153265351Y-72246676D01*
X153265351Y-72246676D02*
X153265351Y-72360961D01*
X153265351Y-72360961D02*
X153227255Y-72437152D01*
X153227255Y-72437152D02*
X153189160Y-72475247D01*
X153189160Y-72475247D02*
X153112970Y-72513342D01*
X153112970Y-72513342D02*
X152808208Y-72513342D01*
X153760589Y-72094295D02*
X153912970Y-72094295D01*
X153912970Y-72094295D02*
X153989160Y-72132390D01*
X153989160Y-72132390D02*
X154065351Y-72208580D01*
X154065351Y-72208580D02*
X154103446Y-72360961D01*
X154103446Y-72360961D02*
X154103446Y-72627628D01*
X154103446Y-72627628D02*
X154065351Y-72780009D01*
X154065351Y-72780009D02*
X153989160Y-72856200D01*
X153989160Y-72856200D02*
X153912970Y-72894295D01*
X153912970Y-72894295D02*
X153760589Y-72894295D01*
X153760589Y-72894295D02*
X153684398Y-72856200D01*
X153684398Y-72856200D02*
X153608208Y-72780009D01*
X153608208Y-72780009D02*
X153570112Y-72627628D01*
X153570112Y-72627628D02*
X153570112Y-72360961D01*
X153570112Y-72360961D02*
X153608208Y-72208580D01*
X153608208Y-72208580D02*
X153684398Y-72132390D01*
X153684398Y-72132390D02*
X153760589Y-72094295D01*
X154332017Y-72094295D02*
X154789160Y-72094295D01*
X154560588Y-72894295D02*
X154560588Y-72094295D01*
X155055827Y-72475247D02*
X155322493Y-72475247D01*
X155436779Y-72894295D02*
X155055827Y-72894295D01*
X155055827Y-72894295D02*
X155055827Y-72094295D01*
X155055827Y-72094295D02*
X155436779Y-72094295D01*
X156236780Y-72818104D02*
X156198684Y-72856200D01*
X156198684Y-72856200D02*
X156084399Y-72894295D01*
X156084399Y-72894295D02*
X156008208Y-72894295D01*
X156008208Y-72894295D02*
X155893922Y-72856200D01*
X155893922Y-72856200D02*
X155817732Y-72780009D01*
X155817732Y-72780009D02*
X155779637Y-72703819D01*
X155779637Y-72703819D02*
X155741541Y-72551438D01*
X155741541Y-72551438D02*
X155741541Y-72437152D01*
X155741541Y-72437152D02*
X155779637Y-72284771D01*
X155779637Y-72284771D02*
X155817732Y-72208580D01*
X155817732Y-72208580D02*
X155893922Y-72132390D01*
X155893922Y-72132390D02*
X156008208Y-72094295D01*
X156008208Y-72094295D02*
X156084399Y-72094295D01*
X156084399Y-72094295D02*
X156198684Y-72132390D01*
X156198684Y-72132390D02*
X156236780Y-72170485D01*
X156465351Y-72094295D02*
X156922494Y-72094295D01*
X156693922Y-72894295D02*
X156693922Y-72094295D01*
X157189161Y-72475247D02*
X157455827Y-72475247D01*
X157570113Y-72894295D02*
X157189161Y-72894295D01*
X157189161Y-72894295D02*
X157189161Y-72094295D01*
X157189161Y-72094295D02*
X157570113Y-72094295D01*
X157912971Y-72894295D02*
X157912971Y-72094295D01*
X157912971Y-72094295D02*
X158103447Y-72094295D01*
X158103447Y-72094295D02*
X158217733Y-72132390D01*
X158217733Y-72132390D02*
X158293923Y-72208580D01*
X158293923Y-72208580D02*
X158332018Y-72284771D01*
X158332018Y-72284771D02*
X158370114Y-72437152D01*
X158370114Y-72437152D02*
X158370114Y-72551438D01*
X158370114Y-72551438D02*
X158332018Y-72703819D01*
X158332018Y-72703819D02*
X158293923Y-72780009D01*
X158293923Y-72780009D02*
X158217733Y-72856200D01*
X158217733Y-72856200D02*
X158103447Y-72894295D01*
X158103447Y-72894295D02*
X157912971Y-72894295D01*
X159741542Y-72894295D02*
X159284399Y-72894295D01*
X159512971Y-72894295D02*
X159512971Y-72094295D01*
X159512971Y-72094295D02*
X159436780Y-72208580D01*
X159436780Y-72208580D02*
X159360590Y-72284771D01*
X159360590Y-72284771D02*
X159284399Y-72322866D01*
X160198685Y-72437152D02*
X160122495Y-72399057D01*
X160122495Y-72399057D02*
X160084400Y-72360961D01*
X160084400Y-72360961D02*
X160046304Y-72284771D01*
X160046304Y-72284771D02*
X160046304Y-72246676D01*
X160046304Y-72246676D02*
X160084400Y-72170485D01*
X160084400Y-72170485D02*
X160122495Y-72132390D01*
X160122495Y-72132390D02*
X160198685Y-72094295D01*
X160198685Y-72094295D02*
X160351066Y-72094295D01*
X160351066Y-72094295D02*
X160427257Y-72132390D01*
X160427257Y-72132390D02*
X160465352Y-72170485D01*
X160465352Y-72170485D02*
X160503447Y-72246676D01*
X160503447Y-72246676D02*
X160503447Y-72284771D01*
X160503447Y-72284771D02*
X160465352Y-72360961D01*
X160465352Y-72360961D02*
X160427257Y-72399057D01*
X160427257Y-72399057D02*
X160351066Y-72437152D01*
X160351066Y-72437152D02*
X160198685Y-72437152D01*
X160198685Y-72437152D02*
X160122495Y-72475247D01*
X160122495Y-72475247D02*
X160084400Y-72513342D01*
X160084400Y-72513342D02*
X160046304Y-72589533D01*
X160046304Y-72589533D02*
X160046304Y-72741914D01*
X160046304Y-72741914D02*
X160084400Y-72818104D01*
X160084400Y-72818104D02*
X160122495Y-72856200D01*
X160122495Y-72856200D02*
X160198685Y-72894295D01*
X160198685Y-72894295D02*
X160351066Y-72894295D01*
X160351066Y-72894295D02*
X160427257Y-72856200D01*
X160427257Y-72856200D02*
X160465352Y-72818104D01*
X160465352Y-72818104D02*
X160503447Y-72741914D01*
X160503447Y-72741914D02*
X160503447Y-72589533D01*
X160503447Y-72589533D02*
X160465352Y-72513342D01*
X160465352Y-72513342D02*
X160427257Y-72475247D01*
X160427257Y-72475247D02*
X160351066Y-72437152D01*
X161189162Y-72094295D02*
X161036781Y-72094295D01*
X161036781Y-72094295D02*
X160960590Y-72132390D01*
X160960590Y-72132390D02*
X160922495Y-72170485D01*
X160922495Y-72170485D02*
X160846305Y-72284771D01*
X160846305Y-72284771D02*
X160808209Y-72437152D01*
X160808209Y-72437152D02*
X160808209Y-72741914D01*
X160808209Y-72741914D02*
X160846305Y-72818104D01*
X160846305Y-72818104D02*
X160884400Y-72856200D01*
X160884400Y-72856200D02*
X160960590Y-72894295D01*
X160960590Y-72894295D02*
X161112971Y-72894295D01*
X161112971Y-72894295D02*
X161189162Y-72856200D01*
X161189162Y-72856200D02*
X161227257Y-72818104D01*
X161227257Y-72818104D02*
X161265352Y-72741914D01*
X161265352Y-72741914D02*
X161265352Y-72551438D01*
X161265352Y-72551438D02*
X161227257Y-72475247D01*
X161227257Y-72475247D02*
X161189162Y-72437152D01*
X161189162Y-72437152D02*
X161112971Y-72399057D01*
X161112971Y-72399057D02*
X160960590Y-72399057D01*
X160960590Y-72399057D02*
X160884400Y-72437152D01*
X160884400Y-72437152D02*
X160846305Y-72475247D01*
X160846305Y-72475247D02*
X160808209Y-72551438D01*
X161989162Y-72094295D02*
X161608210Y-72094295D01*
X161608210Y-72094295D02*
X161570114Y-72475247D01*
X161570114Y-72475247D02*
X161608210Y-72437152D01*
X161608210Y-72437152D02*
X161684400Y-72399057D01*
X161684400Y-72399057D02*
X161874876Y-72399057D01*
X161874876Y-72399057D02*
X161951067Y-72437152D01*
X161951067Y-72437152D02*
X161989162Y-72475247D01*
X161989162Y-72475247D02*
X162027257Y-72551438D01*
X162027257Y-72551438D02*
X162027257Y-72741914D01*
X162027257Y-72741914D02*
X161989162Y-72818104D01*
X161989162Y-72818104D02*
X161951067Y-72856200D01*
X161951067Y-72856200D02*
X161874876Y-72894295D01*
X161874876Y-72894295D02*
X161684400Y-72894295D01*
X161684400Y-72894295D02*
X161608210Y-72856200D01*
X161608210Y-72856200D02*
X161570114Y-72818104D01*
X162522496Y-72094295D02*
X162598686Y-72094295D01*
X162598686Y-72094295D02*
X162674877Y-72132390D01*
X162674877Y-72132390D02*
X162712972Y-72170485D01*
X162712972Y-72170485D02*
X162751067Y-72246676D01*
X162751067Y-72246676D02*
X162789162Y-72399057D01*
X162789162Y-72399057D02*
X162789162Y-72589533D01*
X162789162Y-72589533D02*
X162751067Y-72741914D01*
X162751067Y-72741914D02*
X162712972Y-72818104D01*
X162712972Y-72818104D02*
X162674877Y-72856200D01*
X162674877Y-72856200D02*
X162598686Y-72894295D01*
X162598686Y-72894295D02*
X162522496Y-72894295D01*
X162522496Y-72894295D02*
X162446305Y-72856200D01*
X162446305Y-72856200D02*
X162408210Y-72818104D01*
X162408210Y-72818104D02*
X162370115Y-72741914D01*
X162370115Y-72741914D02*
X162332019Y-72589533D01*
X162332019Y-72589533D02*
X162332019Y-72399057D01*
X162332019Y-72399057D02*
X162370115Y-72246676D01*
X162370115Y-72246676D02*
X162408210Y-72170485D01*
X162408210Y-72170485D02*
X162446305Y-72132390D01*
X162446305Y-72132390D02*
X162522496Y-72094295D01*
X164198687Y-72818104D02*
X164160591Y-72856200D01*
X164160591Y-72856200D02*
X164046306Y-72894295D01*
X164046306Y-72894295D02*
X163970115Y-72894295D01*
X163970115Y-72894295D02*
X163855829Y-72856200D01*
X163855829Y-72856200D02*
X163779639Y-72780009D01*
X163779639Y-72780009D02*
X163741544Y-72703819D01*
X163741544Y-72703819D02*
X163703448Y-72551438D01*
X163703448Y-72551438D02*
X163703448Y-72437152D01*
X163703448Y-72437152D02*
X163741544Y-72284771D01*
X163741544Y-72284771D02*
X163779639Y-72208580D01*
X163779639Y-72208580D02*
X163855829Y-72132390D01*
X163855829Y-72132390D02*
X163970115Y-72094295D01*
X163970115Y-72094295D02*
X164046306Y-72094295D01*
X164046306Y-72094295D02*
X164160591Y-72132390D01*
X164160591Y-72132390D02*
X164198687Y-72170485D01*
X164541544Y-72475247D02*
X164808210Y-72475247D01*
X164922496Y-72894295D02*
X164541544Y-72894295D01*
X164541544Y-72894295D02*
X164541544Y-72094295D01*
X164541544Y-72094295D02*
X164922496Y-72094295D01*
X165646306Y-72894295D02*
X165265354Y-72894295D01*
X165265354Y-72894295D02*
X165265354Y-72094295D01*
X166293925Y-72894295D02*
X165912973Y-72894295D01*
X165912973Y-72894295D02*
X165912973Y-72094295D01*
X166522496Y-72856200D02*
X166636782Y-72894295D01*
X166636782Y-72894295D02*
X166827258Y-72894295D01*
X166827258Y-72894295D02*
X166903449Y-72856200D01*
X166903449Y-72856200D02*
X166941544Y-72818104D01*
X166941544Y-72818104D02*
X166979639Y-72741914D01*
X166979639Y-72741914D02*
X166979639Y-72665723D01*
X166979639Y-72665723D02*
X166941544Y-72589533D01*
X166941544Y-72589533D02*
X166903449Y-72551438D01*
X166903449Y-72551438D02*
X166827258Y-72513342D01*
X166827258Y-72513342D02*
X166674877Y-72475247D01*
X166674877Y-72475247D02*
X166598687Y-72437152D01*
X166598687Y-72437152D02*
X166560592Y-72399057D01*
X166560592Y-72399057D02*
X166522496Y-72322866D01*
X166522496Y-72322866D02*
X166522496Y-72246676D01*
X166522496Y-72246676D02*
X166560592Y-72170485D01*
X166560592Y-72170485D02*
X166598687Y-72132390D01*
X166598687Y-72132390D02*
X166674877Y-72094295D01*
X166674877Y-72094295D02*
X166865354Y-72094295D01*
X166865354Y-72094295D02*
X166979639Y-72132390D01*
X168084402Y-72094295D02*
X168236783Y-72094295D01*
X168236783Y-72094295D02*
X168312973Y-72132390D01*
X168312973Y-72132390D02*
X168389164Y-72208580D01*
X168389164Y-72208580D02*
X168427259Y-72360961D01*
X168427259Y-72360961D02*
X168427259Y-72627628D01*
X168427259Y-72627628D02*
X168389164Y-72780009D01*
X168389164Y-72780009D02*
X168312973Y-72856200D01*
X168312973Y-72856200D02*
X168236783Y-72894295D01*
X168236783Y-72894295D02*
X168084402Y-72894295D01*
X168084402Y-72894295D02*
X168008211Y-72856200D01*
X168008211Y-72856200D02*
X167932021Y-72780009D01*
X167932021Y-72780009D02*
X167893925Y-72627628D01*
X167893925Y-72627628D02*
X167893925Y-72360961D01*
X167893925Y-72360961D02*
X167932021Y-72208580D01*
X167932021Y-72208580D02*
X168008211Y-72132390D01*
X168008211Y-72132390D02*
X168084402Y-72094295D01*
X168770116Y-72894295D02*
X168770116Y-72094295D01*
X168770116Y-72094295D02*
X169227259Y-72894295D01*
X169227259Y-72894295D02*
X169227259Y-72094295D01*
X169989163Y-72894295D02*
X169608211Y-72894295D01*
X169608211Y-72894295D02*
X169608211Y-72094295D01*
X170408211Y-72513342D02*
X170408211Y-72894295D01*
X170141544Y-72094295D02*
X170408211Y-72513342D01*
X170408211Y-72513342D02*
X170674877Y-72094295D01*
X170941544Y-72818104D02*
X170979639Y-72856200D01*
X170979639Y-72856200D02*
X170941544Y-72894295D01*
X170941544Y-72894295D02*
X170903448Y-72856200D01*
X170903448Y-72856200D02*
X170941544Y-72818104D01*
X170941544Y-72818104D02*
X170941544Y-72894295D01*
X170941544Y-72589533D02*
X170903448Y-72132390D01*
X170903448Y-72132390D02*
X170941544Y-72094295D01*
X170941544Y-72094295D02*
X170979639Y-72132390D01*
X170979639Y-72132390D02*
X170941544Y-72589533D01*
X170941544Y-72589533D02*
X170941544Y-72094295D01*
X108454819Y-95547619D02*
X107978628Y-95880952D01*
X108454819Y-96119047D02*
X107454819Y-96119047D01*
X107454819Y-96119047D02*
X107454819Y-95738095D01*
X107454819Y-95738095D02*
X107502438Y-95642857D01*
X107502438Y-95642857D02*
X107550057Y-95595238D01*
X107550057Y-95595238D02*
X107645295Y-95547619D01*
X107645295Y-95547619D02*
X107788152Y-95547619D01*
X107788152Y-95547619D02*
X107883390Y-95595238D01*
X107883390Y-95595238D02*
X107931009Y-95642857D01*
X107931009Y-95642857D02*
X107978628Y-95738095D01*
X107978628Y-95738095D02*
X107978628Y-96119047D01*
X108407200Y-95166666D02*
X108454819Y-95023809D01*
X108454819Y-95023809D02*
X108454819Y-94785714D01*
X108454819Y-94785714D02*
X108407200Y-94690476D01*
X108407200Y-94690476D02*
X108359580Y-94642857D01*
X108359580Y-94642857D02*
X108264342Y-94595238D01*
X108264342Y-94595238D02*
X108169104Y-94595238D01*
X108169104Y-94595238D02*
X108073866Y-94642857D01*
X108073866Y-94642857D02*
X108026247Y-94690476D01*
X108026247Y-94690476D02*
X107978628Y-94785714D01*
X107978628Y-94785714D02*
X107931009Y-94976190D01*
X107931009Y-94976190D02*
X107883390Y-95071428D01*
X107883390Y-95071428D02*
X107835771Y-95119047D01*
X107835771Y-95119047D02*
X107740533Y-95166666D01*
X107740533Y-95166666D02*
X107645295Y-95166666D01*
X107645295Y-95166666D02*
X107550057Y-95119047D01*
X107550057Y-95119047D02*
X107502438Y-95071428D01*
X107502438Y-95071428D02*
X107454819Y-94976190D01*
X107454819Y-94976190D02*
X107454819Y-94738095D01*
X107454819Y-94738095D02*
X107502438Y-94595238D01*
X107454819Y-94309523D02*
X107454819Y-93738095D01*
X108454819Y-94023809D02*
X107454819Y-94023809D01*
X120850819Y-70842094D02*
X119850819Y-70842094D01*
X119850819Y-70842094D02*
X119850819Y-70603999D01*
X119850819Y-70603999D02*
X119898438Y-70461142D01*
X119898438Y-70461142D02*
X119993676Y-70365904D01*
X119993676Y-70365904D02*
X120088914Y-70318285D01*
X120088914Y-70318285D02*
X120279390Y-70270666D01*
X120279390Y-70270666D02*
X120422247Y-70270666D01*
X120422247Y-70270666D02*
X120612723Y-70318285D01*
X120612723Y-70318285D02*
X120707961Y-70365904D01*
X120707961Y-70365904D02*
X120803200Y-70461142D01*
X120803200Y-70461142D02*
X120850819Y-70603999D01*
X120850819Y-70603999D02*
X120850819Y-70842094D01*
X119946057Y-69889713D02*
X119898438Y-69842094D01*
X119898438Y-69842094D02*
X119850819Y-69746856D01*
X119850819Y-69746856D02*
X119850819Y-69508761D01*
X119850819Y-69508761D02*
X119898438Y-69413523D01*
X119898438Y-69413523D02*
X119946057Y-69365904D01*
X119946057Y-69365904D02*
X120041295Y-69318285D01*
X120041295Y-69318285D02*
X120136533Y-69318285D01*
X120136533Y-69318285D02*
X120279390Y-69365904D01*
X120279390Y-69365904D02*
X120850819Y-69937332D01*
X120850819Y-69937332D02*
X120850819Y-69318285D01*
X127884095Y-65844819D02*
X127884095Y-64844819D01*
X127884095Y-64844819D02*
X128265047Y-64844819D01*
X128265047Y-64844819D02*
X128360285Y-64892438D01*
X128360285Y-64892438D02*
X128407904Y-64940057D01*
X128407904Y-64940057D02*
X128455523Y-65035295D01*
X128455523Y-65035295D02*
X128455523Y-65178152D01*
X128455523Y-65178152D02*
X128407904Y-65273390D01*
X128407904Y-65273390D02*
X128360285Y-65321009D01*
X128360285Y-65321009D02*
X128265047Y-65368628D01*
X128265047Y-65368628D02*
X127884095Y-65368628D01*
X129074571Y-64844819D02*
X129265047Y-64844819D01*
X129265047Y-64844819D02*
X129360285Y-64892438D01*
X129360285Y-64892438D02*
X129455523Y-64987676D01*
X129455523Y-64987676D02*
X129503142Y-65178152D01*
X129503142Y-65178152D02*
X129503142Y-65511485D01*
X129503142Y-65511485D02*
X129455523Y-65701961D01*
X129455523Y-65701961D02*
X129360285Y-65797200D01*
X129360285Y-65797200D02*
X129265047Y-65844819D01*
X129265047Y-65844819D02*
X129074571Y-65844819D01*
X129074571Y-65844819D02*
X128979333Y-65797200D01*
X128979333Y-65797200D02*
X128884095Y-65701961D01*
X128884095Y-65701961D02*
X128836476Y-65511485D01*
X128836476Y-65511485D02*
X128836476Y-65178152D01*
X128836476Y-65178152D02*
X128884095Y-64987676D01*
X128884095Y-64987676D02*
X128979333Y-64892438D01*
X128979333Y-64892438D02*
X129074571Y-64844819D01*
X129884095Y-65797200D02*
X130026952Y-65844819D01*
X130026952Y-65844819D02*
X130265047Y-65844819D01*
X130265047Y-65844819D02*
X130360285Y-65797200D01*
X130360285Y-65797200D02*
X130407904Y-65749580D01*
X130407904Y-65749580D02*
X130455523Y-65654342D01*
X130455523Y-65654342D02*
X130455523Y-65559104D01*
X130455523Y-65559104D02*
X130407904Y-65463866D01*
X130407904Y-65463866D02*
X130360285Y-65416247D01*
X130360285Y-65416247D02*
X130265047Y-65368628D01*
X130265047Y-65368628D02*
X130074571Y-65321009D01*
X130074571Y-65321009D02*
X129979333Y-65273390D01*
X129979333Y-65273390D02*
X129931714Y-65225771D01*
X129931714Y-65225771D02*
X129884095Y-65130533D01*
X129884095Y-65130533D02*
X129884095Y-65035295D01*
X129884095Y-65035295D02*
X129931714Y-64940057D01*
X129931714Y-64940057D02*
X129979333Y-64892438D01*
X129979333Y-64892438D02*
X130074571Y-64844819D01*
X130074571Y-64844819D02*
X130312666Y-64844819D01*
X130312666Y-64844819D02*
X130455523Y-64892438D01*
X183147905Y-65954819D02*
X183147905Y-64954819D01*
X183147905Y-64954819D02*
X183719333Y-65954819D01*
X183719333Y-65954819D02*
X183719333Y-64954819D01*
X184195524Y-65431009D02*
X184528857Y-65431009D01*
X184671714Y-65954819D02*
X184195524Y-65954819D01*
X184195524Y-65954819D02*
X184195524Y-64954819D01*
X184195524Y-64954819D02*
X184671714Y-64954819D01*
X185624095Y-65002438D02*
X185528857Y-64954819D01*
X185528857Y-64954819D02*
X185386000Y-64954819D01*
X185386000Y-64954819D02*
X185243143Y-65002438D01*
X185243143Y-65002438D02*
X185147905Y-65097676D01*
X185147905Y-65097676D02*
X185100286Y-65192914D01*
X185100286Y-65192914D02*
X185052667Y-65383390D01*
X185052667Y-65383390D02*
X185052667Y-65526247D01*
X185052667Y-65526247D02*
X185100286Y-65716723D01*
X185100286Y-65716723D02*
X185147905Y-65811961D01*
X185147905Y-65811961D02*
X185243143Y-65907200D01*
X185243143Y-65907200D02*
X185386000Y-65954819D01*
X185386000Y-65954819D02*
X185481238Y-65954819D01*
X185481238Y-65954819D02*
X185624095Y-65907200D01*
X185624095Y-65907200D02*
X185671714Y-65859580D01*
X185671714Y-65859580D02*
X185671714Y-65526247D01*
X185671714Y-65526247D02*
X185481238Y-65526247D01*
X112553809Y-94466628D02*
X112553809Y-94942819D01*
X112220476Y-93942819D02*
X112553809Y-94466628D01*
X112553809Y-94466628D02*
X112887142Y-93942819D01*
X113744285Y-94942819D02*
X113172857Y-94942819D01*
X113458571Y-94942819D02*
X113458571Y-93942819D01*
X113458571Y-93942819D02*
X113363333Y-94085676D01*
X113363333Y-94085676D02*
X113268095Y-94180914D01*
X113268095Y-94180914D02*
X113172857Y-94228533D01*
X165770095Y-111948819D02*
X165770095Y-112758342D01*
X165770095Y-112758342D02*
X165817714Y-112853580D01*
X165817714Y-112853580D02*
X165865333Y-112901200D01*
X165865333Y-112901200D02*
X165960571Y-112948819D01*
X165960571Y-112948819D02*
X166151047Y-112948819D01*
X166151047Y-112948819D02*
X166246285Y-112901200D01*
X166246285Y-112901200D02*
X166293904Y-112853580D01*
X166293904Y-112853580D02*
X166341523Y-112758342D01*
X166341523Y-112758342D02*
X166341523Y-111948819D01*
X166960571Y-112377390D02*
X166865333Y-112329771D01*
X166865333Y-112329771D02*
X166817714Y-112282152D01*
X166817714Y-112282152D02*
X166770095Y-112186914D01*
X166770095Y-112186914D02*
X166770095Y-112139295D01*
X166770095Y-112139295D02*
X166817714Y-112044057D01*
X166817714Y-112044057D02*
X166865333Y-111996438D01*
X166865333Y-111996438D02*
X166960571Y-111948819D01*
X166960571Y-111948819D02*
X167151047Y-111948819D01*
X167151047Y-111948819D02*
X167246285Y-111996438D01*
X167246285Y-111996438D02*
X167293904Y-112044057D01*
X167293904Y-112044057D02*
X167341523Y-112139295D01*
X167341523Y-112139295D02*
X167341523Y-112186914D01*
X167341523Y-112186914D02*
X167293904Y-112282152D01*
X167293904Y-112282152D02*
X167246285Y-112329771D01*
X167246285Y-112329771D02*
X167151047Y-112377390D01*
X167151047Y-112377390D02*
X166960571Y-112377390D01*
X166960571Y-112377390D02*
X166865333Y-112425009D01*
X166865333Y-112425009D02*
X166817714Y-112472628D01*
X166817714Y-112472628D02*
X166770095Y-112567866D01*
X166770095Y-112567866D02*
X166770095Y-112758342D01*
X166770095Y-112758342D02*
X166817714Y-112853580D01*
X166817714Y-112853580D02*
X166865333Y-112901200D01*
X166865333Y-112901200D02*
X166960571Y-112948819D01*
X166960571Y-112948819D02*
X167151047Y-112948819D01*
X167151047Y-112948819D02*
X167246285Y-112901200D01*
X167246285Y-112901200D02*
X167293904Y-112853580D01*
X167293904Y-112853580D02*
X167341523Y-112758342D01*
X167341523Y-112758342D02*
X167341523Y-112567866D01*
X167341523Y-112567866D02*
X167293904Y-112472628D01*
X167293904Y-112472628D02*
X167246285Y-112425009D01*
X167246285Y-112425009D02*
X167151047Y-112377390D01*
X133604095Y-101464819D02*
X133604095Y-102274342D01*
X133604095Y-102274342D02*
X133651714Y-102369580D01*
X133651714Y-102369580D02*
X133699333Y-102417200D01*
X133699333Y-102417200D02*
X133794571Y-102464819D01*
X133794571Y-102464819D02*
X133985047Y-102464819D01*
X133985047Y-102464819D02*
X134080285Y-102417200D01*
X134080285Y-102417200D02*
X134127904Y-102369580D01*
X134127904Y-102369580D02*
X134175523Y-102274342D01*
X134175523Y-102274342D02*
X134175523Y-101464819D01*
X135127904Y-101464819D02*
X134651714Y-101464819D01*
X134651714Y-101464819D02*
X134604095Y-101941009D01*
X134604095Y-101941009D02*
X134651714Y-101893390D01*
X134651714Y-101893390D02*
X134746952Y-101845771D01*
X134746952Y-101845771D02*
X134985047Y-101845771D01*
X134985047Y-101845771D02*
X135080285Y-101893390D01*
X135080285Y-101893390D02*
X135127904Y-101941009D01*
X135127904Y-101941009D02*
X135175523Y-102036247D01*
X135175523Y-102036247D02*
X135175523Y-102274342D01*
X135175523Y-102274342D02*
X135127904Y-102369580D01*
X135127904Y-102369580D02*
X135080285Y-102417200D01*
X135080285Y-102417200D02*
X134985047Y-102464819D01*
X134985047Y-102464819D02*
X134746952Y-102464819D01*
X134746952Y-102464819D02*
X134651714Y-102417200D01*
X134651714Y-102417200D02*
X134604095Y-102369580D01*
X121178819Y-88645904D02*
X121988342Y-88645904D01*
X121988342Y-88645904D02*
X122083580Y-88598285D01*
X122083580Y-88598285D02*
X122131200Y-88550666D01*
X122131200Y-88550666D02*
X122178819Y-88455428D01*
X122178819Y-88455428D02*
X122178819Y-88264952D01*
X122178819Y-88264952D02*
X122131200Y-88169714D01*
X122131200Y-88169714D02*
X122083580Y-88122095D01*
X122083580Y-88122095D02*
X121988342Y-88074476D01*
X121988342Y-88074476D02*
X121178819Y-88074476D01*
X121512152Y-87169714D02*
X122178819Y-87169714D01*
X121131200Y-87407809D02*
X121845485Y-87645904D01*
X121845485Y-87645904D02*
X121845485Y-87026857D01*
X108674819Y-105917904D02*
X109484342Y-105917904D01*
X109484342Y-105917904D02*
X109579580Y-105870285D01*
X109579580Y-105870285D02*
X109627200Y-105822666D01*
X109627200Y-105822666D02*
X109674819Y-105727428D01*
X109674819Y-105727428D02*
X109674819Y-105536952D01*
X109674819Y-105536952D02*
X109627200Y-105441714D01*
X109627200Y-105441714D02*
X109579580Y-105394095D01*
X109579580Y-105394095D02*
X109484342Y-105346476D01*
X109484342Y-105346476D02*
X108674819Y-105346476D01*
X108674819Y-104965523D02*
X108674819Y-104346476D01*
X108674819Y-104346476D02*
X109055771Y-104679809D01*
X109055771Y-104679809D02*
X109055771Y-104536952D01*
X109055771Y-104536952D02*
X109103390Y-104441714D01*
X109103390Y-104441714D02*
X109151009Y-104394095D01*
X109151009Y-104394095D02*
X109246247Y-104346476D01*
X109246247Y-104346476D02*
X109484342Y-104346476D01*
X109484342Y-104346476D02*
X109579580Y-104394095D01*
X109579580Y-104394095D02*
X109627200Y-104441714D01*
X109627200Y-104441714D02*
X109674819Y-104536952D01*
X109674819Y-104536952D02*
X109674819Y-104822666D01*
X109674819Y-104822666D02*
X109627200Y-104917904D01*
X109627200Y-104917904D02*
X109579580Y-104965523D01*
X119202819Y-64515904D02*
X120012342Y-64515904D01*
X120012342Y-64515904D02*
X120107580Y-64468285D01*
X120107580Y-64468285D02*
X120155200Y-64420666D01*
X120155200Y-64420666D02*
X120202819Y-64325428D01*
X120202819Y-64325428D02*
X120202819Y-64134952D01*
X120202819Y-64134952D02*
X120155200Y-64039714D01*
X120155200Y-64039714D02*
X120107580Y-63992095D01*
X120107580Y-63992095D02*
X120012342Y-63944476D01*
X120012342Y-63944476D02*
X119202819Y-63944476D01*
X120202819Y-62944476D02*
X120202819Y-63515904D01*
X120202819Y-63230190D02*
X119202819Y-63230190D01*
X119202819Y-63230190D02*
X119345676Y-63325428D01*
X119345676Y-63325428D02*
X119440914Y-63420666D01*
X119440914Y-63420666D02*
X119488533Y-63515904D01*
X184110819Y-100591904D02*
X183110819Y-100591904D01*
X183110819Y-100591904D02*
X183110819Y-100353809D01*
X183110819Y-100353809D02*
X183158438Y-100210952D01*
X183158438Y-100210952D02*
X183253676Y-100115714D01*
X183253676Y-100115714D02*
X183348914Y-100068095D01*
X183348914Y-100068095D02*
X183539390Y-100020476D01*
X183539390Y-100020476D02*
X183682247Y-100020476D01*
X183682247Y-100020476D02*
X183872723Y-100068095D01*
X183872723Y-100068095D02*
X183967961Y-100115714D01*
X183967961Y-100115714D02*
X184063200Y-100210952D01*
X184063200Y-100210952D02*
X184110819Y-100353809D01*
X184110819Y-100353809D02*
X184110819Y-100591904D01*
X173347580Y-100020476D02*
X173395200Y-100068095D01*
X173395200Y-100068095D02*
X173442819Y-100210952D01*
X173442819Y-100210952D02*
X173442819Y-100306190D01*
X173442819Y-100306190D02*
X173395200Y-100449047D01*
X173395200Y-100449047D02*
X173299961Y-100544285D01*
X173299961Y-100544285D02*
X173204723Y-100591904D01*
X173204723Y-100591904D02*
X173014247Y-100639523D01*
X173014247Y-100639523D02*
X172871390Y-100639523D01*
X172871390Y-100639523D02*
X172680914Y-100591904D01*
X172680914Y-100591904D02*
X172585676Y-100544285D01*
X172585676Y-100544285D02*
X172490438Y-100449047D01*
X172490438Y-100449047D02*
X172442819Y-100306190D01*
X172442819Y-100306190D02*
X172442819Y-100210952D01*
X172442819Y-100210952D02*
X172490438Y-100068095D01*
X172490438Y-100068095D02*
X172538057Y-100020476D01*
X183587009Y-88928571D02*
X183634628Y-88785714D01*
X183634628Y-88785714D02*
X183682247Y-88738095D01*
X183682247Y-88738095D02*
X183777485Y-88690476D01*
X183777485Y-88690476D02*
X183920342Y-88690476D01*
X183920342Y-88690476D02*
X184015580Y-88738095D01*
X184015580Y-88738095D02*
X184063200Y-88785714D01*
X184063200Y-88785714D02*
X184110819Y-88880952D01*
X184110819Y-88880952D02*
X184110819Y-89261904D01*
X184110819Y-89261904D02*
X183110819Y-89261904D01*
X183110819Y-89261904D02*
X183110819Y-88928571D01*
X183110819Y-88928571D02*
X183158438Y-88833333D01*
X183158438Y-88833333D02*
X183206057Y-88785714D01*
X183206057Y-88785714D02*
X183301295Y-88738095D01*
X183301295Y-88738095D02*
X183396533Y-88738095D01*
X183396533Y-88738095D02*
X183491771Y-88785714D01*
X183491771Y-88785714D02*
X183539390Y-88833333D01*
X183539390Y-88833333D02*
X183587009Y-88928571D01*
X183587009Y-88928571D02*
X183587009Y-89261904D01*
X173157104Y-89238094D02*
X173157104Y-88761904D01*
X173442819Y-89333332D02*
X172442819Y-88999999D01*
X172442819Y-88999999D02*
X173442819Y-88666666D01*
X150060819Y-104020857D02*
X149584628Y-104354190D01*
X150060819Y-104592285D02*
X149060819Y-104592285D01*
X149060819Y-104592285D02*
X149060819Y-104211333D01*
X149060819Y-104211333D02*
X149108438Y-104116095D01*
X149108438Y-104116095D02*
X149156057Y-104068476D01*
X149156057Y-104068476D02*
X149251295Y-104020857D01*
X149251295Y-104020857D02*
X149394152Y-104020857D01*
X149394152Y-104020857D02*
X149489390Y-104068476D01*
X149489390Y-104068476D02*
X149537009Y-104116095D01*
X149537009Y-104116095D02*
X149584628Y-104211333D01*
X149584628Y-104211333D02*
X149584628Y-104592285D01*
X150060819Y-103068476D02*
X150060819Y-103639904D01*
X150060819Y-103354190D02*
X149060819Y-103354190D01*
X149060819Y-103354190D02*
X149203676Y-103449428D01*
X149203676Y-103449428D02*
X149298914Y-103544666D01*
X149298914Y-103544666D02*
X149346533Y-103639904D01*
X149394152Y-102211333D02*
X150060819Y-102211333D01*
X149013200Y-102449428D02*
X149727485Y-102687523D01*
X149727485Y-102687523D02*
X149727485Y-102068476D01*
X182572819Y-105544857D02*
X182096628Y-105878190D01*
X182572819Y-106116285D02*
X181572819Y-106116285D01*
X181572819Y-106116285D02*
X181572819Y-105735333D01*
X181572819Y-105735333D02*
X181620438Y-105640095D01*
X181620438Y-105640095D02*
X181668057Y-105592476D01*
X181668057Y-105592476D02*
X181763295Y-105544857D01*
X181763295Y-105544857D02*
X181906152Y-105544857D01*
X181906152Y-105544857D02*
X182001390Y-105592476D01*
X182001390Y-105592476D02*
X182049009Y-105640095D01*
X182049009Y-105640095D02*
X182096628Y-105735333D01*
X182096628Y-105735333D02*
X182096628Y-106116285D01*
X182572819Y-104592476D02*
X182572819Y-105163904D01*
X182572819Y-104878190D02*
X181572819Y-104878190D01*
X181572819Y-104878190D02*
X181715676Y-104973428D01*
X181715676Y-104973428D02*
X181810914Y-105068666D01*
X181810914Y-105068666D02*
X181858533Y-105163904D01*
X181572819Y-104259142D02*
X181572819Y-103640095D01*
X181572819Y-103640095D02*
X181953771Y-103973428D01*
X181953771Y-103973428D02*
X181953771Y-103830571D01*
X181953771Y-103830571D02*
X182001390Y-103735333D01*
X182001390Y-103735333D02*
X182049009Y-103687714D01*
X182049009Y-103687714D02*
X182144247Y-103640095D01*
X182144247Y-103640095D02*
X182382342Y-103640095D01*
X182382342Y-103640095D02*
X182477580Y-103687714D01*
X182477580Y-103687714D02*
X182525200Y-103735333D01*
X182525200Y-103735333D02*
X182572819Y-103830571D01*
X182572819Y-103830571D02*
X182572819Y-104116285D01*
X182572819Y-104116285D02*
X182525200Y-104211523D01*
X182525200Y-104211523D02*
X182477580Y-104259142D01*
X171904819Y-105544857D02*
X171428628Y-105878190D01*
X171904819Y-106116285D02*
X170904819Y-106116285D01*
X170904819Y-106116285D02*
X170904819Y-105735333D01*
X170904819Y-105735333D02*
X170952438Y-105640095D01*
X170952438Y-105640095D02*
X171000057Y-105592476D01*
X171000057Y-105592476D02*
X171095295Y-105544857D01*
X171095295Y-105544857D02*
X171238152Y-105544857D01*
X171238152Y-105544857D02*
X171333390Y-105592476D01*
X171333390Y-105592476D02*
X171381009Y-105640095D01*
X171381009Y-105640095D02*
X171428628Y-105735333D01*
X171428628Y-105735333D02*
X171428628Y-106116285D01*
X171904819Y-104592476D02*
X171904819Y-105163904D01*
X171904819Y-104878190D02*
X170904819Y-104878190D01*
X170904819Y-104878190D02*
X171047676Y-104973428D01*
X171047676Y-104973428D02*
X171142914Y-105068666D01*
X171142914Y-105068666D02*
X171190533Y-105163904D01*
X171000057Y-104211523D02*
X170952438Y-104163904D01*
X170952438Y-104163904D02*
X170904819Y-104068666D01*
X170904819Y-104068666D02*
X170904819Y-103830571D01*
X170904819Y-103830571D02*
X170952438Y-103735333D01*
X170952438Y-103735333D02*
X171000057Y-103687714D01*
X171000057Y-103687714D02*
X171095295Y-103640095D01*
X171095295Y-103640095D02*
X171190533Y-103640095D01*
X171190533Y-103640095D02*
X171333390Y-103687714D01*
X171333390Y-103687714D02*
X171904819Y-104259142D01*
X171904819Y-104259142D02*
X171904819Y-103640095D01*
X182572819Y-94368857D02*
X182096628Y-94702190D01*
X182572819Y-94940285D02*
X181572819Y-94940285D01*
X181572819Y-94940285D02*
X181572819Y-94559333D01*
X181572819Y-94559333D02*
X181620438Y-94464095D01*
X181620438Y-94464095D02*
X181668057Y-94416476D01*
X181668057Y-94416476D02*
X181763295Y-94368857D01*
X181763295Y-94368857D02*
X181906152Y-94368857D01*
X181906152Y-94368857D02*
X182001390Y-94416476D01*
X182001390Y-94416476D02*
X182049009Y-94464095D01*
X182049009Y-94464095D02*
X182096628Y-94559333D01*
X182096628Y-94559333D02*
X182096628Y-94940285D01*
X182572819Y-93416476D02*
X182572819Y-93987904D01*
X182572819Y-93702190D02*
X181572819Y-93702190D01*
X181572819Y-93702190D02*
X181715676Y-93797428D01*
X181715676Y-93797428D02*
X181810914Y-93892666D01*
X181810914Y-93892666D02*
X181858533Y-93987904D01*
X182572819Y-92464095D02*
X182572819Y-93035523D01*
X182572819Y-92749809D02*
X181572819Y-92749809D01*
X181572819Y-92749809D02*
X181715676Y-92845047D01*
X181715676Y-92845047D02*
X181810914Y-92940285D01*
X181810914Y-92940285D02*
X181858533Y-93035523D01*
X171904819Y-94368857D02*
X171428628Y-94702190D01*
X171904819Y-94940285D02*
X170904819Y-94940285D01*
X170904819Y-94940285D02*
X170904819Y-94559333D01*
X170904819Y-94559333D02*
X170952438Y-94464095D01*
X170952438Y-94464095D02*
X171000057Y-94416476D01*
X171000057Y-94416476D02*
X171095295Y-94368857D01*
X171095295Y-94368857D02*
X171238152Y-94368857D01*
X171238152Y-94368857D02*
X171333390Y-94416476D01*
X171333390Y-94416476D02*
X171381009Y-94464095D01*
X171381009Y-94464095D02*
X171428628Y-94559333D01*
X171428628Y-94559333D02*
X171428628Y-94940285D01*
X171904819Y-93416476D02*
X171904819Y-93987904D01*
X171904819Y-93702190D02*
X170904819Y-93702190D01*
X170904819Y-93702190D02*
X171047676Y-93797428D01*
X171047676Y-93797428D02*
X171142914Y-93892666D01*
X171142914Y-93892666D02*
X171190533Y-93987904D01*
X170904819Y-92797428D02*
X170904819Y-92702190D01*
X170904819Y-92702190D02*
X170952438Y-92606952D01*
X170952438Y-92606952D02*
X171000057Y-92559333D01*
X171000057Y-92559333D02*
X171095295Y-92511714D01*
X171095295Y-92511714D02*
X171285771Y-92464095D01*
X171285771Y-92464095D02*
X171523866Y-92464095D01*
X171523866Y-92464095D02*
X171714342Y-92511714D01*
X171714342Y-92511714D02*
X171809580Y-92559333D01*
X171809580Y-92559333D02*
X171857200Y-92606952D01*
X171857200Y-92606952D02*
X171904819Y-92702190D01*
X171904819Y-92702190D02*
X171904819Y-92797428D01*
X171904819Y-92797428D02*
X171857200Y-92892666D01*
X171857200Y-92892666D02*
X171809580Y-92940285D01*
X171809580Y-92940285D02*
X171714342Y-92987904D01*
X171714342Y-92987904D02*
X171523866Y-93035523D01*
X171523866Y-93035523D02*
X171285771Y-93035523D01*
X171285771Y-93035523D02*
X171095295Y-92987904D01*
X171095295Y-92987904D02*
X171000057Y-92940285D01*
X171000057Y-92940285D02*
X170952438Y-92892666D01*
X170952438Y-92892666D02*
X170904819Y-92797428D01*
X123390819Y-103290666D02*
X122914628Y-103623999D01*
X123390819Y-103862094D02*
X122390819Y-103862094D01*
X122390819Y-103862094D02*
X122390819Y-103481142D01*
X122390819Y-103481142D02*
X122438438Y-103385904D01*
X122438438Y-103385904D02*
X122486057Y-103338285D01*
X122486057Y-103338285D02*
X122581295Y-103290666D01*
X122581295Y-103290666D02*
X122724152Y-103290666D01*
X122724152Y-103290666D02*
X122819390Y-103338285D01*
X122819390Y-103338285D02*
X122867009Y-103385904D01*
X122867009Y-103385904D02*
X122914628Y-103481142D01*
X122914628Y-103481142D02*
X122914628Y-103862094D01*
X122390819Y-102957332D02*
X122390819Y-102290666D01*
X122390819Y-102290666D02*
X123390819Y-102719237D01*
X121358819Y-95670666D02*
X120882628Y-96003999D01*
X121358819Y-96242094D02*
X120358819Y-96242094D01*
X120358819Y-96242094D02*
X120358819Y-95861142D01*
X120358819Y-95861142D02*
X120406438Y-95765904D01*
X120406438Y-95765904D02*
X120454057Y-95718285D01*
X120454057Y-95718285D02*
X120549295Y-95670666D01*
X120549295Y-95670666D02*
X120692152Y-95670666D01*
X120692152Y-95670666D02*
X120787390Y-95718285D01*
X120787390Y-95718285D02*
X120835009Y-95765904D01*
X120835009Y-95765904D02*
X120882628Y-95861142D01*
X120882628Y-95861142D02*
X120882628Y-96242094D01*
X120358819Y-94813523D02*
X120358819Y-95003999D01*
X120358819Y-95003999D02*
X120406438Y-95099237D01*
X120406438Y-95099237D02*
X120454057Y-95146856D01*
X120454057Y-95146856D02*
X120596914Y-95242094D01*
X120596914Y-95242094D02*
X120787390Y-95289713D01*
X120787390Y-95289713D02*
X121168342Y-95289713D01*
X121168342Y-95289713D02*
X121263580Y-95242094D01*
X121263580Y-95242094D02*
X121311200Y-95194475D01*
X121311200Y-95194475D02*
X121358819Y-95099237D01*
X121358819Y-95099237D02*
X121358819Y-94908761D01*
X121358819Y-94908761D02*
X121311200Y-94813523D01*
X121311200Y-94813523D02*
X121263580Y-94765904D01*
X121263580Y-94765904D02*
X121168342Y-94718285D01*
X121168342Y-94718285D02*
X120930247Y-94718285D01*
X120930247Y-94718285D02*
X120835009Y-94765904D01*
X120835009Y-94765904D02*
X120787390Y-94813523D01*
X120787390Y-94813523D02*
X120739771Y-94908761D01*
X120739771Y-94908761D02*
X120739771Y-95099237D01*
X120739771Y-95099237D02*
X120787390Y-95194475D01*
X120787390Y-95194475D02*
X120835009Y-95242094D01*
X120835009Y-95242094D02*
X120930247Y-95289713D01*
X123644819Y-95670666D02*
X123168628Y-96003999D01*
X123644819Y-96242094D02*
X122644819Y-96242094D01*
X122644819Y-96242094D02*
X122644819Y-95861142D01*
X122644819Y-95861142D02*
X122692438Y-95765904D01*
X122692438Y-95765904D02*
X122740057Y-95718285D01*
X122740057Y-95718285D02*
X122835295Y-95670666D01*
X122835295Y-95670666D02*
X122978152Y-95670666D01*
X122978152Y-95670666D02*
X123073390Y-95718285D01*
X123073390Y-95718285D02*
X123121009Y-95765904D01*
X123121009Y-95765904D02*
X123168628Y-95861142D01*
X123168628Y-95861142D02*
X123168628Y-96242094D01*
X122644819Y-94765904D02*
X122644819Y-95242094D01*
X122644819Y-95242094D02*
X123121009Y-95289713D01*
X123121009Y-95289713D02*
X123073390Y-95242094D01*
X123073390Y-95242094D02*
X123025771Y-95146856D01*
X123025771Y-95146856D02*
X123025771Y-94908761D01*
X123025771Y-94908761D02*
X123073390Y-94813523D01*
X123073390Y-94813523D02*
X123121009Y-94765904D01*
X123121009Y-94765904D02*
X123216247Y-94718285D01*
X123216247Y-94718285D02*
X123454342Y-94718285D01*
X123454342Y-94718285D02*
X123549580Y-94765904D01*
X123549580Y-94765904D02*
X123597200Y-94813523D01*
X123597200Y-94813523D02*
X123644819Y-94908761D01*
X123644819Y-94908761D02*
X123644819Y-95146856D01*
X123644819Y-95146856D02*
X123597200Y-95242094D01*
X123597200Y-95242094D02*
X123549580Y-95289713D01*
X125776819Y-111164666D02*
X125300628Y-111497999D01*
X125776819Y-111736094D02*
X124776819Y-111736094D01*
X124776819Y-111736094D02*
X124776819Y-111355142D01*
X124776819Y-111355142D02*
X124824438Y-111259904D01*
X124824438Y-111259904D02*
X124872057Y-111212285D01*
X124872057Y-111212285D02*
X124967295Y-111164666D01*
X124967295Y-111164666D02*
X125110152Y-111164666D01*
X125110152Y-111164666D02*
X125205390Y-111212285D01*
X125205390Y-111212285D02*
X125253009Y-111259904D01*
X125253009Y-111259904D02*
X125300628Y-111355142D01*
X125300628Y-111355142D02*
X125300628Y-111736094D01*
X125110152Y-110307523D02*
X125776819Y-110307523D01*
X124729200Y-110545618D02*
X125443485Y-110783713D01*
X125443485Y-110783713D02*
X125443485Y-110164666D01*
X123798819Y-111164666D02*
X123322628Y-111497999D01*
X123798819Y-111736094D02*
X122798819Y-111736094D01*
X122798819Y-111736094D02*
X122798819Y-111355142D01*
X122798819Y-111355142D02*
X122846438Y-111259904D01*
X122846438Y-111259904D02*
X122894057Y-111212285D01*
X122894057Y-111212285D02*
X122989295Y-111164666D01*
X122989295Y-111164666D02*
X123132152Y-111164666D01*
X123132152Y-111164666D02*
X123227390Y-111212285D01*
X123227390Y-111212285D02*
X123275009Y-111259904D01*
X123275009Y-111259904D02*
X123322628Y-111355142D01*
X123322628Y-111355142D02*
X123322628Y-111736094D01*
X122798819Y-110831332D02*
X122798819Y-110212285D01*
X122798819Y-110212285D02*
X123179771Y-110545618D01*
X123179771Y-110545618D02*
X123179771Y-110402761D01*
X123179771Y-110402761D02*
X123227390Y-110307523D01*
X123227390Y-110307523D02*
X123275009Y-110259904D01*
X123275009Y-110259904D02*
X123370247Y-110212285D01*
X123370247Y-110212285D02*
X123608342Y-110212285D01*
X123608342Y-110212285D02*
X123703580Y-110259904D01*
X123703580Y-110259904D02*
X123751200Y-110307523D01*
X123751200Y-110307523D02*
X123798819Y-110402761D01*
X123798819Y-110402761D02*
X123798819Y-110688475D01*
X123798819Y-110688475D02*
X123751200Y-110783713D01*
X123751200Y-110783713D02*
X123703580Y-110831332D01*
X110831333Y-67002819D02*
X110498000Y-66526628D01*
X110259905Y-67002819D02*
X110259905Y-66002819D01*
X110259905Y-66002819D02*
X110640857Y-66002819D01*
X110640857Y-66002819D02*
X110736095Y-66050438D01*
X110736095Y-66050438D02*
X110783714Y-66098057D01*
X110783714Y-66098057D02*
X110831333Y-66193295D01*
X110831333Y-66193295D02*
X110831333Y-66336152D01*
X110831333Y-66336152D02*
X110783714Y-66431390D01*
X110783714Y-66431390D02*
X110736095Y-66479009D01*
X110736095Y-66479009D02*
X110640857Y-66526628D01*
X110640857Y-66526628D02*
X110259905Y-66526628D01*
X111212286Y-66098057D02*
X111259905Y-66050438D01*
X111259905Y-66050438D02*
X111355143Y-66002819D01*
X111355143Y-66002819D02*
X111593238Y-66002819D01*
X111593238Y-66002819D02*
X111688476Y-66050438D01*
X111688476Y-66050438D02*
X111736095Y-66098057D01*
X111736095Y-66098057D02*
X111783714Y-66193295D01*
X111783714Y-66193295D02*
X111783714Y-66288533D01*
X111783714Y-66288533D02*
X111736095Y-66431390D01*
X111736095Y-66431390D02*
X111164667Y-67002819D01*
X111164667Y-67002819D02*
X111783714Y-67002819D01*
X121612819Y-66206666D02*
X121136628Y-66539999D01*
X121612819Y-66778094D02*
X120612819Y-66778094D01*
X120612819Y-66778094D02*
X120612819Y-66397142D01*
X120612819Y-66397142D02*
X120660438Y-66301904D01*
X120660438Y-66301904D02*
X120708057Y-66254285D01*
X120708057Y-66254285D02*
X120803295Y-66206666D01*
X120803295Y-66206666D02*
X120946152Y-66206666D01*
X120946152Y-66206666D02*
X121041390Y-66254285D01*
X121041390Y-66254285D02*
X121089009Y-66301904D01*
X121089009Y-66301904D02*
X121136628Y-66397142D01*
X121136628Y-66397142D02*
X121136628Y-66778094D01*
X121612819Y-65254285D02*
X121612819Y-65825713D01*
X121612819Y-65539999D02*
X120612819Y-65539999D01*
X120612819Y-65539999D02*
X120755676Y-65635237D01*
X120755676Y-65635237D02*
X120850914Y-65730475D01*
X120850914Y-65730475D02*
X120898533Y-65825713D01*
D12*
X135945905Y-92151419D02*
X135945905Y-91151419D01*
X135945905Y-91151419D02*
X136184000Y-91151419D01*
X136184000Y-91151419D02*
X136326857Y-91199038D01*
X136326857Y-91199038D02*
X136422095Y-91294276D01*
X136422095Y-91294276D02*
X136469714Y-91389514D01*
X136469714Y-91389514D02*
X136517333Y-91579990D01*
X136517333Y-91579990D02*
X136517333Y-91722847D01*
X136517333Y-91722847D02*
X136469714Y-91913323D01*
X136469714Y-91913323D02*
X136422095Y-92008561D01*
X136422095Y-92008561D02*
X136326857Y-92103800D01*
X136326857Y-92103800D02*
X136184000Y-92151419D01*
X136184000Y-92151419D02*
X135945905Y-92151419D01*
X136945905Y-92151419D02*
X136945905Y-91151419D01*
X137374476Y-92103800D02*
X137517333Y-92151419D01*
X137517333Y-92151419D02*
X137755428Y-92151419D01*
X137755428Y-92151419D02*
X137850666Y-92103800D01*
X137850666Y-92103800D02*
X137898285Y-92056180D01*
X137898285Y-92056180D02*
X137945904Y-91960942D01*
X137945904Y-91960942D02*
X137945904Y-91865704D01*
X137945904Y-91865704D02*
X137898285Y-91770466D01*
X137898285Y-91770466D02*
X137850666Y-91722847D01*
X137850666Y-91722847D02*
X137755428Y-91675228D01*
X137755428Y-91675228D02*
X137564952Y-91627609D01*
X137564952Y-91627609D02*
X137469714Y-91579990D01*
X137469714Y-91579990D02*
X137422095Y-91532371D01*
X137422095Y-91532371D02*
X137374476Y-91437133D01*
X137374476Y-91437133D02*
X137374476Y-91341895D01*
X137374476Y-91341895D02*
X137422095Y-91246657D01*
X137422095Y-91246657D02*
X137469714Y-91199038D01*
X137469714Y-91199038D02*
X137564952Y-91151419D01*
X137564952Y-91151419D02*
X137803047Y-91151419D01*
X137803047Y-91151419D02*
X137945904Y-91199038D01*
X138374476Y-92151419D02*
X138374476Y-91151419D01*
X138374476Y-91151419D02*
X138755428Y-91151419D01*
X138755428Y-91151419D02*
X138850666Y-91199038D01*
X138850666Y-91199038D02*
X138898285Y-91246657D01*
X138898285Y-91246657D02*
X138945904Y-91341895D01*
X138945904Y-91341895D02*
X138945904Y-91484752D01*
X138945904Y-91484752D02*
X138898285Y-91579990D01*
X138898285Y-91579990D02*
X138850666Y-91627609D01*
X138850666Y-91627609D02*
X138755428Y-91675228D01*
X138755428Y-91675228D02*
X138374476Y-91675228D01*
X139850666Y-92151419D02*
X139374476Y-92151419D01*
X139374476Y-92151419D02*
X139374476Y-91151419D01*
X140136381Y-91865704D02*
X140612571Y-91865704D01*
X140041143Y-92151419D02*
X140374476Y-91151419D01*
X140374476Y-91151419D02*
X140707809Y-92151419D01*
X141231619Y-91675228D02*
X141231619Y-92151419D01*
X140898286Y-91151419D02*
X141231619Y-91675228D01*
X141231619Y-91675228D02*
X141564952Y-91151419D01*
D11*
X114704819Y-79073333D02*
X115419104Y-79073333D01*
X115419104Y-79073333D02*
X115561961Y-79120952D01*
X115561961Y-79120952D02*
X115657200Y-79216190D01*
X115657200Y-79216190D02*
X115704819Y-79359047D01*
X115704819Y-79359047D02*
X115704819Y-79454285D01*
X115038152Y-78168571D02*
X115704819Y-78168571D01*
X114657200Y-78406666D02*
X115371485Y-78644761D01*
X115371485Y-78644761D02*
X115371485Y-78025714D01*
X124288779Y-100530819D02*
X124288779Y-99530819D01*
X124288779Y-99530819D02*
X124669731Y-99530819D01*
X124669731Y-99530819D02*
X124764969Y-99578438D01*
X124764969Y-99578438D02*
X124812588Y-99626057D01*
X124812588Y-99626057D02*
X124860207Y-99721295D01*
X124860207Y-99721295D02*
X124860207Y-99864152D01*
X124860207Y-99864152D02*
X124812588Y-99959390D01*
X124812588Y-99959390D02*
X124764969Y-100007009D01*
X124764969Y-100007009D02*
X124669731Y-100054628D01*
X124669731Y-100054628D02*
X124288779Y-100054628D01*
X125860207Y-100530819D02*
X125526874Y-100054628D01*
X125288779Y-100530819D02*
X125288779Y-99530819D01*
X125288779Y-99530819D02*
X125669731Y-99530819D01*
X125669731Y-99530819D02*
X125764969Y-99578438D01*
X125764969Y-99578438D02*
X125812588Y-99626057D01*
X125812588Y-99626057D02*
X125860207Y-99721295D01*
X125860207Y-99721295D02*
X125860207Y-99864152D01*
X125860207Y-99864152D02*
X125812588Y-99959390D01*
X125812588Y-99959390D02*
X125764969Y-100007009D01*
X125764969Y-100007009D02*
X125669731Y-100054628D01*
X125669731Y-100054628D02*
X125288779Y-100054628D01*
X126812588Y-99578438D02*
X126717350Y-99530819D01*
X126717350Y-99530819D02*
X126574493Y-99530819D01*
X126574493Y-99530819D02*
X126431636Y-99578438D01*
X126431636Y-99578438D02*
X126336398Y-99673676D01*
X126336398Y-99673676D02*
X126288779Y-99768914D01*
X126288779Y-99768914D02*
X126241160Y-99959390D01*
X126241160Y-99959390D02*
X126241160Y-100102247D01*
X126241160Y-100102247D02*
X126288779Y-100292723D01*
X126288779Y-100292723D02*
X126336398Y-100387961D01*
X126336398Y-100387961D02*
X126431636Y-100483200D01*
X126431636Y-100483200D02*
X126574493Y-100530819D01*
X126574493Y-100530819D02*
X126669731Y-100530819D01*
X126669731Y-100530819D02*
X126812588Y-100483200D01*
X126812588Y-100483200D02*
X126860207Y-100435580D01*
X126860207Y-100435580D02*
X126860207Y-100102247D01*
X126860207Y-100102247D02*
X126669731Y-100102247D01*
X109751905Y-64970819D02*
X109751905Y-63970819D01*
X109751905Y-63970819D02*
X109990000Y-63970819D01*
X109990000Y-63970819D02*
X110132857Y-64018438D01*
X110132857Y-64018438D02*
X110228095Y-64113676D01*
X110228095Y-64113676D02*
X110275714Y-64208914D01*
X110275714Y-64208914D02*
X110323333Y-64399390D01*
X110323333Y-64399390D02*
X110323333Y-64542247D01*
X110323333Y-64542247D02*
X110275714Y-64732723D01*
X110275714Y-64732723D02*
X110228095Y-64827961D01*
X110228095Y-64827961D02*
X110132857Y-64923200D01*
X110132857Y-64923200D02*
X109990000Y-64970819D01*
X109990000Y-64970819D02*
X109751905Y-64970819D01*
X111275714Y-64970819D02*
X110704286Y-64970819D01*
X110990000Y-64970819D02*
X110990000Y-63970819D01*
X110990000Y-63970819D02*
X110894762Y-64113676D01*
X110894762Y-64113676D02*
X110799524Y-64208914D01*
X110799524Y-64208914D02*
X110704286Y-64256533D01*
X161795580Y-106100857D02*
X161843200Y-106148476D01*
X161843200Y-106148476D02*
X161890819Y-106291333D01*
X161890819Y-106291333D02*
X161890819Y-106386571D01*
X161890819Y-106386571D02*
X161843200Y-106529428D01*
X161843200Y-106529428D02*
X161747961Y-106624666D01*
X161747961Y-106624666D02*
X161652723Y-106672285D01*
X161652723Y-106672285D02*
X161462247Y-106719904D01*
X161462247Y-106719904D02*
X161319390Y-106719904D01*
X161319390Y-106719904D02*
X161128914Y-106672285D01*
X161128914Y-106672285D02*
X161033676Y-106624666D01*
X161033676Y-106624666D02*
X160938438Y-106529428D01*
X160938438Y-106529428D02*
X160890819Y-106386571D01*
X160890819Y-106386571D02*
X160890819Y-106291333D01*
X160890819Y-106291333D02*
X160938438Y-106148476D01*
X160938438Y-106148476D02*
X160986057Y-106100857D01*
X161890819Y-105148476D02*
X161890819Y-105719904D01*
X161890819Y-105434190D02*
X160890819Y-105434190D01*
X160890819Y-105434190D02*
X161033676Y-105529428D01*
X161033676Y-105529428D02*
X161128914Y-105624666D01*
X161128914Y-105624666D02*
X161176533Y-105719904D01*
X161890819Y-104672285D02*
X161890819Y-104481809D01*
X161890819Y-104481809D02*
X161843200Y-104386571D01*
X161843200Y-104386571D02*
X161795580Y-104338952D01*
X161795580Y-104338952D02*
X161652723Y-104243714D01*
X161652723Y-104243714D02*
X161462247Y-104196095D01*
X161462247Y-104196095D02*
X161081295Y-104196095D01*
X161081295Y-104196095D02*
X160986057Y-104243714D01*
X160986057Y-104243714D02*
X160938438Y-104291333D01*
X160938438Y-104291333D02*
X160890819Y-104386571D01*
X160890819Y-104386571D02*
X160890819Y-104577047D01*
X160890819Y-104577047D02*
X160938438Y-104672285D01*
X160938438Y-104672285D02*
X160986057Y-104719904D01*
X160986057Y-104719904D02*
X161081295Y-104767523D01*
X161081295Y-104767523D02*
X161319390Y-104767523D01*
X161319390Y-104767523D02*
X161414628Y-104719904D01*
X161414628Y-104719904D02*
X161462247Y-104672285D01*
X161462247Y-104672285D02*
X161509866Y-104577047D01*
X161509866Y-104577047D02*
X161509866Y-104386571D01*
X161509866Y-104386571D02*
X161462247Y-104291333D01*
X161462247Y-104291333D02*
X161414628Y-104243714D01*
X161414628Y-104243714D02*
X161319390Y-104196095D01*
X163319580Y-106100857D02*
X163367200Y-106148476D01*
X163367200Y-106148476D02*
X163414819Y-106291333D01*
X163414819Y-106291333D02*
X163414819Y-106386571D01*
X163414819Y-106386571D02*
X163367200Y-106529428D01*
X163367200Y-106529428D02*
X163271961Y-106624666D01*
X163271961Y-106624666D02*
X163176723Y-106672285D01*
X163176723Y-106672285D02*
X162986247Y-106719904D01*
X162986247Y-106719904D02*
X162843390Y-106719904D01*
X162843390Y-106719904D02*
X162652914Y-106672285D01*
X162652914Y-106672285D02*
X162557676Y-106624666D01*
X162557676Y-106624666D02*
X162462438Y-106529428D01*
X162462438Y-106529428D02*
X162414819Y-106386571D01*
X162414819Y-106386571D02*
X162414819Y-106291333D01*
X162414819Y-106291333D02*
X162462438Y-106148476D01*
X162462438Y-106148476D02*
X162510057Y-106100857D01*
X163414819Y-105148476D02*
X163414819Y-105719904D01*
X163414819Y-105434190D02*
X162414819Y-105434190D01*
X162414819Y-105434190D02*
X162557676Y-105529428D01*
X162557676Y-105529428D02*
X162652914Y-105624666D01*
X162652914Y-105624666D02*
X162700533Y-105719904D01*
X162843390Y-104577047D02*
X162795771Y-104672285D01*
X162795771Y-104672285D02*
X162748152Y-104719904D01*
X162748152Y-104719904D02*
X162652914Y-104767523D01*
X162652914Y-104767523D02*
X162605295Y-104767523D01*
X162605295Y-104767523D02*
X162510057Y-104719904D01*
X162510057Y-104719904D02*
X162462438Y-104672285D01*
X162462438Y-104672285D02*
X162414819Y-104577047D01*
X162414819Y-104577047D02*
X162414819Y-104386571D01*
X162414819Y-104386571D02*
X162462438Y-104291333D01*
X162462438Y-104291333D02*
X162510057Y-104243714D01*
X162510057Y-104243714D02*
X162605295Y-104196095D01*
X162605295Y-104196095D02*
X162652914Y-104196095D01*
X162652914Y-104196095D02*
X162748152Y-104243714D01*
X162748152Y-104243714D02*
X162795771Y-104291333D01*
X162795771Y-104291333D02*
X162843390Y-104386571D01*
X162843390Y-104386571D02*
X162843390Y-104577047D01*
X162843390Y-104577047D02*
X162891009Y-104672285D01*
X162891009Y-104672285D02*
X162938628Y-104719904D01*
X162938628Y-104719904D02*
X163033866Y-104767523D01*
X163033866Y-104767523D02*
X163224342Y-104767523D01*
X163224342Y-104767523D02*
X163319580Y-104719904D01*
X163319580Y-104719904D02*
X163367200Y-104672285D01*
X163367200Y-104672285D02*
X163414819Y-104577047D01*
X163414819Y-104577047D02*
X163414819Y-104386571D01*
X163414819Y-104386571D02*
X163367200Y-104291333D01*
X163367200Y-104291333D02*
X163319580Y-104243714D01*
X163319580Y-104243714D02*
X163224342Y-104196095D01*
X163224342Y-104196095D02*
X163033866Y-104196095D01*
X163033866Y-104196095D02*
X162938628Y-104243714D01*
X162938628Y-104243714D02*
X162891009Y-104291333D01*
X162891009Y-104291333D02*
X162843390Y-104386571D01*
X156329142Y-103229580D02*
X156281523Y-103277200D01*
X156281523Y-103277200D02*
X156138666Y-103324819D01*
X156138666Y-103324819D02*
X156043428Y-103324819D01*
X156043428Y-103324819D02*
X155900571Y-103277200D01*
X155900571Y-103277200D02*
X155805333Y-103181961D01*
X155805333Y-103181961D02*
X155757714Y-103086723D01*
X155757714Y-103086723D02*
X155710095Y-102896247D01*
X155710095Y-102896247D02*
X155710095Y-102753390D01*
X155710095Y-102753390D02*
X155757714Y-102562914D01*
X155757714Y-102562914D02*
X155805333Y-102467676D01*
X155805333Y-102467676D02*
X155900571Y-102372438D01*
X155900571Y-102372438D02*
X156043428Y-102324819D01*
X156043428Y-102324819D02*
X156138666Y-102324819D01*
X156138666Y-102324819D02*
X156281523Y-102372438D01*
X156281523Y-102372438D02*
X156329142Y-102420057D01*
X157281523Y-103324819D02*
X156710095Y-103324819D01*
X156995809Y-103324819D02*
X156995809Y-102324819D01*
X156995809Y-102324819D02*
X156900571Y-102467676D01*
X156900571Y-102467676D02*
X156805333Y-102562914D01*
X156805333Y-102562914D02*
X156710095Y-102610533D01*
X158138666Y-102324819D02*
X157948190Y-102324819D01*
X157948190Y-102324819D02*
X157852952Y-102372438D01*
X157852952Y-102372438D02*
X157805333Y-102420057D01*
X157805333Y-102420057D02*
X157710095Y-102562914D01*
X157710095Y-102562914D02*
X157662476Y-102753390D01*
X157662476Y-102753390D02*
X157662476Y-103134342D01*
X157662476Y-103134342D02*
X157710095Y-103229580D01*
X157710095Y-103229580D02*
X157757714Y-103277200D01*
X157757714Y-103277200D02*
X157852952Y-103324819D01*
X157852952Y-103324819D02*
X158043428Y-103324819D01*
X158043428Y-103324819D02*
X158138666Y-103277200D01*
X158138666Y-103277200D02*
X158186285Y-103229580D01*
X158186285Y-103229580D02*
X158233904Y-103134342D01*
X158233904Y-103134342D02*
X158233904Y-102896247D01*
X158233904Y-102896247D02*
X158186285Y-102801009D01*
X158186285Y-102801009D02*
X158138666Y-102753390D01*
X158138666Y-102753390D02*
X158043428Y-102705771D01*
X158043428Y-102705771D02*
X157852952Y-102705771D01*
X157852952Y-102705771D02*
X157757714Y-102753390D01*
X157757714Y-102753390D02*
X157710095Y-102801009D01*
X157710095Y-102801009D02*
X157662476Y-102896247D01*
X154805142Y-101451580D02*
X154757523Y-101499200D01*
X154757523Y-101499200D02*
X154614666Y-101546819D01*
X154614666Y-101546819D02*
X154519428Y-101546819D01*
X154519428Y-101546819D02*
X154376571Y-101499200D01*
X154376571Y-101499200D02*
X154281333Y-101403961D01*
X154281333Y-101403961D02*
X154233714Y-101308723D01*
X154233714Y-101308723D02*
X154186095Y-101118247D01*
X154186095Y-101118247D02*
X154186095Y-100975390D01*
X154186095Y-100975390D02*
X154233714Y-100784914D01*
X154233714Y-100784914D02*
X154281333Y-100689676D01*
X154281333Y-100689676D02*
X154376571Y-100594438D01*
X154376571Y-100594438D02*
X154519428Y-100546819D01*
X154519428Y-100546819D02*
X154614666Y-100546819D01*
X154614666Y-100546819D02*
X154757523Y-100594438D01*
X154757523Y-100594438D02*
X154805142Y-100642057D01*
X155757523Y-101546819D02*
X155186095Y-101546819D01*
X155471809Y-101546819D02*
X155471809Y-100546819D01*
X155471809Y-100546819D02*
X155376571Y-100689676D01*
X155376571Y-100689676D02*
X155281333Y-100784914D01*
X155281333Y-100784914D02*
X155186095Y-100832533D01*
X156662285Y-100546819D02*
X156186095Y-100546819D01*
X156186095Y-100546819D02*
X156138476Y-101023009D01*
X156138476Y-101023009D02*
X156186095Y-100975390D01*
X156186095Y-100975390D02*
X156281333Y-100927771D01*
X156281333Y-100927771D02*
X156519428Y-100927771D01*
X156519428Y-100927771D02*
X156614666Y-100975390D01*
X156614666Y-100975390D02*
X156662285Y-101023009D01*
X156662285Y-101023009D02*
X156709904Y-101118247D01*
X156709904Y-101118247D02*
X156709904Y-101356342D01*
X156709904Y-101356342D02*
X156662285Y-101451580D01*
X156662285Y-101451580D02*
X156614666Y-101499200D01*
X156614666Y-101499200D02*
X156519428Y-101546819D01*
X156519428Y-101546819D02*
X156281333Y-101546819D01*
X156281333Y-101546819D02*
X156186095Y-101499200D01*
X156186095Y-101499200D02*
X156138476Y-101451580D01*
X142091580Y-101734857D02*
X142139200Y-101782476D01*
X142139200Y-101782476D02*
X142186819Y-101925333D01*
X142186819Y-101925333D02*
X142186819Y-102020571D01*
X142186819Y-102020571D02*
X142139200Y-102163428D01*
X142139200Y-102163428D02*
X142043961Y-102258666D01*
X142043961Y-102258666D02*
X141948723Y-102306285D01*
X141948723Y-102306285D02*
X141758247Y-102353904D01*
X141758247Y-102353904D02*
X141615390Y-102353904D01*
X141615390Y-102353904D02*
X141424914Y-102306285D01*
X141424914Y-102306285D02*
X141329676Y-102258666D01*
X141329676Y-102258666D02*
X141234438Y-102163428D01*
X141234438Y-102163428D02*
X141186819Y-102020571D01*
X141186819Y-102020571D02*
X141186819Y-101925333D01*
X141186819Y-101925333D02*
X141234438Y-101782476D01*
X141234438Y-101782476D02*
X141282057Y-101734857D01*
X142186819Y-100782476D02*
X142186819Y-101353904D01*
X142186819Y-101068190D02*
X141186819Y-101068190D01*
X141186819Y-101068190D02*
X141329676Y-101163428D01*
X141329676Y-101163428D02*
X141424914Y-101258666D01*
X141424914Y-101258666D02*
X141472533Y-101353904D01*
X141282057Y-100401523D02*
X141234438Y-100353904D01*
X141234438Y-100353904D02*
X141186819Y-100258666D01*
X141186819Y-100258666D02*
X141186819Y-100020571D01*
X141186819Y-100020571D02*
X141234438Y-99925333D01*
X141234438Y-99925333D02*
X141282057Y-99877714D01*
X141282057Y-99877714D02*
X141377295Y-99830095D01*
X141377295Y-99830095D02*
X141472533Y-99830095D01*
X141472533Y-99830095D02*
X141615390Y-99877714D01*
X141615390Y-99877714D02*
X142186819Y-100449142D01*
X142186819Y-100449142D02*
X142186819Y-99830095D01*
X117467142Y-75797580D02*
X117419523Y-75845200D01*
X117419523Y-75845200D02*
X117276666Y-75892819D01*
X117276666Y-75892819D02*
X117181428Y-75892819D01*
X117181428Y-75892819D02*
X117038571Y-75845200D01*
X117038571Y-75845200D02*
X116943333Y-75749961D01*
X116943333Y-75749961D02*
X116895714Y-75654723D01*
X116895714Y-75654723D02*
X116848095Y-75464247D01*
X116848095Y-75464247D02*
X116848095Y-75321390D01*
X116848095Y-75321390D02*
X116895714Y-75130914D01*
X116895714Y-75130914D02*
X116943333Y-75035676D01*
X116943333Y-75035676D02*
X117038571Y-74940438D01*
X117038571Y-74940438D02*
X117181428Y-74892819D01*
X117181428Y-74892819D02*
X117276666Y-74892819D01*
X117276666Y-74892819D02*
X117419523Y-74940438D01*
X117419523Y-74940438D02*
X117467142Y-74988057D01*
X118419523Y-75892819D02*
X117848095Y-75892819D01*
X118133809Y-75892819D02*
X118133809Y-74892819D01*
X118133809Y-74892819D02*
X118038571Y-75035676D01*
X118038571Y-75035676D02*
X117943333Y-75130914D01*
X117943333Y-75130914D02*
X117848095Y-75178533D01*
X119371904Y-75892819D02*
X118800476Y-75892819D01*
X119086190Y-75892819D02*
X119086190Y-74892819D01*
X119086190Y-74892819D02*
X118990952Y-75035676D01*
X118990952Y-75035676D02*
X118895714Y-75130914D01*
X118895714Y-75130914D02*
X118800476Y-75178533D01*
X119993580Y-73540857D02*
X120041200Y-73588476D01*
X120041200Y-73588476D02*
X120088819Y-73731333D01*
X120088819Y-73731333D02*
X120088819Y-73826571D01*
X120088819Y-73826571D02*
X120041200Y-73969428D01*
X120041200Y-73969428D02*
X119945961Y-74064666D01*
X119945961Y-74064666D02*
X119850723Y-74112285D01*
X119850723Y-74112285D02*
X119660247Y-74159904D01*
X119660247Y-74159904D02*
X119517390Y-74159904D01*
X119517390Y-74159904D02*
X119326914Y-74112285D01*
X119326914Y-74112285D02*
X119231676Y-74064666D01*
X119231676Y-74064666D02*
X119136438Y-73969428D01*
X119136438Y-73969428D02*
X119088819Y-73826571D01*
X119088819Y-73826571D02*
X119088819Y-73731333D01*
X119088819Y-73731333D02*
X119136438Y-73588476D01*
X119136438Y-73588476D02*
X119184057Y-73540857D01*
X120088819Y-72588476D02*
X120088819Y-73159904D01*
X120088819Y-72874190D02*
X119088819Y-72874190D01*
X119088819Y-72874190D02*
X119231676Y-72969428D01*
X119231676Y-72969428D02*
X119326914Y-73064666D01*
X119326914Y-73064666D02*
X119374533Y-73159904D01*
X119088819Y-71969428D02*
X119088819Y-71874190D01*
X119088819Y-71874190D02*
X119136438Y-71778952D01*
X119136438Y-71778952D02*
X119184057Y-71731333D01*
X119184057Y-71731333D02*
X119279295Y-71683714D01*
X119279295Y-71683714D02*
X119469771Y-71636095D01*
X119469771Y-71636095D02*
X119707866Y-71636095D01*
X119707866Y-71636095D02*
X119898342Y-71683714D01*
X119898342Y-71683714D02*
X119993580Y-71731333D01*
X119993580Y-71731333D02*
X120041200Y-71778952D01*
X120041200Y-71778952D02*
X120088819Y-71874190D01*
X120088819Y-71874190D02*
X120088819Y-71969428D01*
X120088819Y-71969428D02*
X120041200Y-72064666D01*
X120041200Y-72064666D02*
X119993580Y-72112285D01*
X119993580Y-72112285D02*
X119898342Y-72159904D01*
X119898342Y-72159904D02*
X119707866Y-72207523D01*
X119707866Y-72207523D02*
X119469771Y-72207523D01*
X119469771Y-72207523D02*
X119279295Y-72159904D01*
X119279295Y-72159904D02*
X119184057Y-72112285D01*
X119184057Y-72112285D02*
X119136438Y-72064666D01*
X119136438Y-72064666D02*
X119088819Y-71969428D01*
X110069333Y-92815580D02*
X110021714Y-92863200D01*
X110021714Y-92863200D02*
X109878857Y-92910819D01*
X109878857Y-92910819D02*
X109783619Y-92910819D01*
X109783619Y-92910819D02*
X109640762Y-92863200D01*
X109640762Y-92863200D02*
X109545524Y-92767961D01*
X109545524Y-92767961D02*
X109497905Y-92672723D01*
X109497905Y-92672723D02*
X109450286Y-92482247D01*
X109450286Y-92482247D02*
X109450286Y-92339390D01*
X109450286Y-92339390D02*
X109497905Y-92148914D01*
X109497905Y-92148914D02*
X109545524Y-92053676D01*
X109545524Y-92053676D02*
X109640762Y-91958438D01*
X109640762Y-91958438D02*
X109783619Y-91910819D01*
X109783619Y-91910819D02*
X109878857Y-91910819D01*
X109878857Y-91910819D02*
X110021714Y-91958438D01*
X110021714Y-91958438D02*
X110069333Y-92006057D01*
X110545524Y-92910819D02*
X110736000Y-92910819D01*
X110736000Y-92910819D02*
X110831238Y-92863200D01*
X110831238Y-92863200D02*
X110878857Y-92815580D01*
X110878857Y-92815580D02*
X110974095Y-92672723D01*
X110974095Y-92672723D02*
X111021714Y-92482247D01*
X111021714Y-92482247D02*
X111021714Y-92101295D01*
X111021714Y-92101295D02*
X110974095Y-92006057D01*
X110974095Y-92006057D02*
X110926476Y-91958438D01*
X110926476Y-91958438D02*
X110831238Y-91910819D01*
X110831238Y-91910819D02*
X110640762Y-91910819D01*
X110640762Y-91910819D02*
X110545524Y-91958438D01*
X110545524Y-91958438D02*
X110497905Y-92006057D01*
X110497905Y-92006057D02*
X110450286Y-92101295D01*
X110450286Y-92101295D02*
X110450286Y-92339390D01*
X110450286Y-92339390D02*
X110497905Y-92434628D01*
X110497905Y-92434628D02*
X110545524Y-92482247D01*
X110545524Y-92482247D02*
X110640762Y-92529866D01*
X110640762Y-92529866D02*
X110831238Y-92529866D01*
X110831238Y-92529866D02*
X110926476Y-92482247D01*
X110926476Y-92482247D02*
X110974095Y-92434628D01*
X110974095Y-92434628D02*
X111021714Y-92339390D01*
X118959333Y-96469580D02*
X118911714Y-96517200D01*
X118911714Y-96517200D02*
X118768857Y-96564819D01*
X118768857Y-96564819D02*
X118673619Y-96564819D01*
X118673619Y-96564819D02*
X118530762Y-96517200D01*
X118530762Y-96517200D02*
X118435524Y-96421961D01*
X118435524Y-96421961D02*
X118387905Y-96326723D01*
X118387905Y-96326723D02*
X118340286Y-96136247D01*
X118340286Y-96136247D02*
X118340286Y-95993390D01*
X118340286Y-95993390D02*
X118387905Y-95802914D01*
X118387905Y-95802914D02*
X118435524Y-95707676D01*
X118435524Y-95707676D02*
X118530762Y-95612438D01*
X118530762Y-95612438D02*
X118673619Y-95564819D01*
X118673619Y-95564819D02*
X118768857Y-95564819D01*
X118768857Y-95564819D02*
X118911714Y-95612438D01*
X118911714Y-95612438D02*
X118959333Y-95660057D01*
X119530762Y-95993390D02*
X119435524Y-95945771D01*
X119435524Y-95945771D02*
X119387905Y-95898152D01*
X119387905Y-95898152D02*
X119340286Y-95802914D01*
X119340286Y-95802914D02*
X119340286Y-95755295D01*
X119340286Y-95755295D02*
X119387905Y-95660057D01*
X119387905Y-95660057D02*
X119435524Y-95612438D01*
X119435524Y-95612438D02*
X119530762Y-95564819D01*
X119530762Y-95564819D02*
X119721238Y-95564819D01*
X119721238Y-95564819D02*
X119816476Y-95612438D01*
X119816476Y-95612438D02*
X119864095Y-95660057D01*
X119864095Y-95660057D02*
X119911714Y-95755295D01*
X119911714Y-95755295D02*
X119911714Y-95802914D01*
X119911714Y-95802914D02*
X119864095Y-95898152D01*
X119864095Y-95898152D02*
X119816476Y-95945771D01*
X119816476Y-95945771D02*
X119721238Y-95993390D01*
X119721238Y-95993390D02*
X119530762Y-95993390D01*
X119530762Y-95993390D02*
X119435524Y-96041009D01*
X119435524Y-96041009D02*
X119387905Y-96088628D01*
X119387905Y-96088628D02*
X119340286Y-96183866D01*
X119340286Y-96183866D02*
X119340286Y-96374342D01*
X119340286Y-96374342D02*
X119387905Y-96469580D01*
X119387905Y-96469580D02*
X119435524Y-96517200D01*
X119435524Y-96517200D02*
X119530762Y-96564819D01*
X119530762Y-96564819D02*
X119721238Y-96564819D01*
X119721238Y-96564819D02*
X119816476Y-96517200D01*
X119816476Y-96517200D02*
X119864095Y-96469580D01*
X119864095Y-96469580D02*
X119911714Y-96374342D01*
X119911714Y-96374342D02*
X119911714Y-96183866D01*
X119911714Y-96183866D02*
X119864095Y-96088628D01*
X119864095Y-96088628D02*
X119816476Y-96041009D01*
X119816476Y-96041009D02*
X119721238Y-95993390D01*
X117943333Y-112119580D02*
X117895714Y-112167200D01*
X117895714Y-112167200D02*
X117752857Y-112214819D01*
X117752857Y-112214819D02*
X117657619Y-112214819D01*
X117657619Y-112214819D02*
X117514762Y-112167200D01*
X117514762Y-112167200D02*
X117419524Y-112071961D01*
X117419524Y-112071961D02*
X117371905Y-111976723D01*
X117371905Y-111976723D02*
X117324286Y-111786247D01*
X117324286Y-111786247D02*
X117324286Y-111643390D01*
X117324286Y-111643390D02*
X117371905Y-111452914D01*
X117371905Y-111452914D02*
X117419524Y-111357676D01*
X117419524Y-111357676D02*
X117514762Y-111262438D01*
X117514762Y-111262438D02*
X117657619Y-111214819D01*
X117657619Y-111214819D02*
X117752857Y-111214819D01*
X117752857Y-111214819D02*
X117895714Y-111262438D01*
X117895714Y-111262438D02*
X117943333Y-111310057D01*
X118276667Y-111214819D02*
X118943333Y-111214819D01*
X118943333Y-111214819D02*
X118514762Y-112214819D01*
X108799333Y-111865580D02*
X108751714Y-111913200D01*
X108751714Y-111913200D02*
X108608857Y-111960819D01*
X108608857Y-111960819D02*
X108513619Y-111960819D01*
X108513619Y-111960819D02*
X108370762Y-111913200D01*
X108370762Y-111913200D02*
X108275524Y-111817961D01*
X108275524Y-111817961D02*
X108227905Y-111722723D01*
X108227905Y-111722723D02*
X108180286Y-111532247D01*
X108180286Y-111532247D02*
X108180286Y-111389390D01*
X108180286Y-111389390D02*
X108227905Y-111198914D01*
X108227905Y-111198914D02*
X108275524Y-111103676D01*
X108275524Y-111103676D02*
X108370762Y-111008438D01*
X108370762Y-111008438D02*
X108513619Y-110960819D01*
X108513619Y-110960819D02*
X108608857Y-110960819D01*
X108608857Y-110960819D02*
X108751714Y-111008438D01*
X108751714Y-111008438D02*
X108799333Y-111056057D01*
X109656476Y-110960819D02*
X109466000Y-110960819D01*
X109466000Y-110960819D02*
X109370762Y-111008438D01*
X109370762Y-111008438D02*
X109323143Y-111056057D01*
X109323143Y-111056057D02*
X109227905Y-111198914D01*
X109227905Y-111198914D02*
X109180286Y-111389390D01*
X109180286Y-111389390D02*
X109180286Y-111770342D01*
X109180286Y-111770342D02*
X109227905Y-111865580D01*
X109227905Y-111865580D02*
X109275524Y-111913200D01*
X109275524Y-111913200D02*
X109370762Y-111960819D01*
X109370762Y-111960819D02*
X109561238Y-111960819D01*
X109561238Y-111960819D02*
X109656476Y-111913200D01*
X109656476Y-111913200D02*
X109704095Y-111865580D01*
X109704095Y-111865580D02*
X109751714Y-111770342D01*
X109751714Y-111770342D02*
X109751714Y-111532247D01*
X109751714Y-111532247D02*
X109704095Y-111437009D01*
X109704095Y-111437009D02*
X109656476Y-111389390D01*
X109656476Y-111389390D02*
X109561238Y-111341771D01*
X109561238Y-111341771D02*
X109370762Y-111341771D01*
X109370762Y-111341771D02*
X109275524Y-111389390D01*
X109275524Y-111389390D02*
X109227905Y-111437009D01*
X109227905Y-111437009D02*
X109180286Y-111532247D01*
X116673333Y-94687580D02*
X116625714Y-94735200D01*
X116625714Y-94735200D02*
X116482857Y-94782819D01*
X116482857Y-94782819D02*
X116387619Y-94782819D01*
X116387619Y-94782819D02*
X116244762Y-94735200D01*
X116244762Y-94735200D02*
X116149524Y-94639961D01*
X116149524Y-94639961D02*
X116101905Y-94544723D01*
X116101905Y-94544723D02*
X116054286Y-94354247D01*
X116054286Y-94354247D02*
X116054286Y-94211390D01*
X116054286Y-94211390D02*
X116101905Y-94020914D01*
X116101905Y-94020914D02*
X116149524Y-93925676D01*
X116149524Y-93925676D02*
X116244762Y-93830438D01*
X116244762Y-93830438D02*
X116387619Y-93782819D01*
X116387619Y-93782819D02*
X116482857Y-93782819D01*
X116482857Y-93782819D02*
X116625714Y-93830438D01*
X116625714Y-93830438D02*
X116673333Y-93878057D01*
X117578095Y-93782819D02*
X117101905Y-93782819D01*
X117101905Y-93782819D02*
X117054286Y-94259009D01*
X117054286Y-94259009D02*
X117101905Y-94211390D01*
X117101905Y-94211390D02*
X117197143Y-94163771D01*
X117197143Y-94163771D02*
X117435238Y-94163771D01*
X117435238Y-94163771D02*
X117530476Y-94211390D01*
X117530476Y-94211390D02*
X117578095Y-94259009D01*
X117578095Y-94259009D02*
X117625714Y-94354247D01*
X117625714Y-94354247D02*
X117625714Y-94592342D01*
X117625714Y-94592342D02*
X117578095Y-94687580D01*
X117578095Y-94687580D02*
X117530476Y-94735200D01*
X117530476Y-94735200D02*
X117435238Y-94782819D01*
X117435238Y-94782819D02*
X117197143Y-94782819D01*
X117197143Y-94782819D02*
X117101905Y-94735200D01*
X117101905Y-94735200D02*
X117054286Y-94687580D01*
X117833333Y-62589580D02*
X117785714Y-62637200D01*
X117785714Y-62637200D02*
X117642857Y-62684819D01*
X117642857Y-62684819D02*
X117547619Y-62684819D01*
X117547619Y-62684819D02*
X117404762Y-62637200D01*
X117404762Y-62637200D02*
X117309524Y-62541961D01*
X117309524Y-62541961D02*
X117261905Y-62446723D01*
X117261905Y-62446723D02*
X117214286Y-62256247D01*
X117214286Y-62256247D02*
X117214286Y-62113390D01*
X117214286Y-62113390D02*
X117261905Y-61922914D01*
X117261905Y-61922914D02*
X117309524Y-61827676D01*
X117309524Y-61827676D02*
X117404762Y-61732438D01*
X117404762Y-61732438D02*
X117547619Y-61684819D01*
X117547619Y-61684819D02*
X117642857Y-61684819D01*
X117642857Y-61684819D02*
X117785714Y-61732438D01*
X117785714Y-61732438D02*
X117833333Y-61780057D01*
X118214286Y-61780057D02*
X118261905Y-61732438D01*
X118261905Y-61732438D02*
X118357143Y-61684819D01*
X118357143Y-61684819D02*
X118595238Y-61684819D01*
X118595238Y-61684819D02*
X118690476Y-61732438D01*
X118690476Y-61732438D02*
X118738095Y-61780057D01*
X118738095Y-61780057D02*
X118785714Y-61875295D01*
X118785714Y-61875295D02*
X118785714Y-61970533D01*
X118785714Y-61970533D02*
X118738095Y-62113390D01*
X118738095Y-62113390D02*
X118166667Y-62684819D01*
X118166667Y-62684819D02*
X118785714Y-62684819D01*
X115421580Y-68238666D02*
X115469200Y-68286285D01*
X115469200Y-68286285D02*
X115516819Y-68429142D01*
X115516819Y-68429142D02*
X115516819Y-68524380D01*
X115516819Y-68524380D02*
X115469200Y-68667237D01*
X115469200Y-68667237D02*
X115373961Y-68762475D01*
X115373961Y-68762475D02*
X115278723Y-68810094D01*
X115278723Y-68810094D02*
X115088247Y-68857713D01*
X115088247Y-68857713D02*
X114945390Y-68857713D01*
X114945390Y-68857713D02*
X114754914Y-68810094D01*
X114754914Y-68810094D02*
X114659676Y-68762475D01*
X114659676Y-68762475D02*
X114564438Y-68667237D01*
X114564438Y-68667237D02*
X114516819Y-68524380D01*
X114516819Y-68524380D02*
X114516819Y-68429142D01*
X114516819Y-68429142D02*
X114564438Y-68286285D01*
X114564438Y-68286285D02*
X114612057Y-68238666D01*
X115516819Y-67286285D02*
X115516819Y-67857713D01*
X115516819Y-67571999D02*
X114516819Y-67571999D01*
X114516819Y-67571999D02*
X114659676Y-67667237D01*
X114659676Y-67667237D02*
X114754914Y-67762475D01*
X114754914Y-67762475D02*
X114802533Y-67857713D01*
D13*
%TO.C,RST*%
X106900000Y-100650000D02*
X106600000Y-100650000D01*
X109100000Y-100650000D02*
X109400000Y-100650000D01*
X109400000Y-97350000D02*
X109100000Y-97350000D01*
X106600000Y-100650000D02*
X106600000Y-97350000D01*
X109400000Y-100650000D02*
X109400000Y-97350000D01*
X106600000Y-97350000D02*
X106900000Y-97350000D01*
%TO.C,G\u002A\u002A\u002A*%
G36*
X189572087Y-109526505D02*
G01*
X190573469Y-110533795D01*
X190573469Y-111239939D01*
X190573469Y-111946084D01*
X189731123Y-111111224D01*
X188888776Y-110276365D01*
X188888776Y-112378488D01*
X188888776Y-114480612D01*
X188564796Y-114480612D01*
X188240816Y-114480612D01*
X188240816Y-112378488D01*
X188240816Y-110276365D01*
X187398469Y-111111224D01*
X186556123Y-111946084D01*
X186556123Y-111234032D01*
X186556123Y-110521980D01*
X187563413Y-109520597D01*
X188570704Y-108519215D01*
X189572087Y-109526505D01*
G37*
%TO.C,D2*%
X119558000Y-69104000D02*
X115698000Y-69104000D01*
X119558000Y-71104000D02*
X119558000Y-69104000D01*
X119558000Y-71104000D02*
X115698000Y-71104000D01*
%TO.C,POS*%
X121366000Y-74190000D02*
G75*
G03*
X121366000Y-70590000I0J1800000D01*
G01*
X134746000Y-78090000D02*
X134746000Y-66690000D01*
X134746000Y-66690000D02*
X124866000Y-66690000D01*
X124866000Y-78090000D02*
X134746000Y-78090000D01*
X124866000Y-76990000D02*
X124866000Y-78090000D01*
X124866000Y-67790000D02*
X121366000Y-67790000D01*
X124866000Y-66690000D02*
X124866000Y-67790000D01*
X121366000Y-76990000D02*
X124866000Y-76990000D01*
X121366000Y-67790000D02*
X121366000Y-76990000D01*
%TO.C,NEG*%
X192166000Y-70590000D02*
G75*
G03*
X192166000Y-74190000I0J-1800000D01*
G01*
X178786000Y-66690000D02*
X178786000Y-78090000D01*
X178786000Y-78090000D02*
X188666000Y-78090000D01*
X188666000Y-66690000D02*
X178786000Y-66690000D01*
X188666000Y-67790000D02*
X188666000Y-66690000D01*
X188666000Y-76990000D02*
X192166000Y-76990000D01*
X188666000Y-78090000D02*
X188666000Y-76990000D01*
X192166000Y-67790000D02*
X188666000Y-67790000D01*
X192166000Y-76990000D02*
X192166000Y-67790000D01*
%TO.C,Y1*%
X114506000Y-95800000D02*
X114506000Y-97800000D01*
X110906000Y-97800000D02*
X110906000Y-98200000D01*
X110906000Y-97800000D02*
X110906000Y-95800000D01*
X114506000Y-98200000D02*
X114356000Y-98200000D01*
X111956000Y-98200000D02*
X111906000Y-98200000D01*
X114506000Y-95800000D02*
X114356000Y-95800000D01*
X110706000Y-95800000D02*
X110706000Y-97800000D01*
X110906000Y-95800000D02*
X111056000Y-95800000D01*
X110906000Y-98200000D02*
X111056000Y-98200000D01*
X111956000Y-98200000D02*
X111956000Y-98600000D01*
X114506000Y-97800000D02*
X114506000Y-98200000D01*
X110706000Y-97800000D02*
X110706000Y-98200000D01*
D11*
%TO.C,U8*%
X164932000Y-110844000D02*
X165332000Y-110844000D01*
X168132000Y-107644000D02*
X167732000Y-107644000D01*
X164932000Y-110844000D02*
X164932000Y-110444000D01*
X164932000Y-107644000D02*
X164932000Y-108044000D01*
X168132000Y-107644000D02*
X168132000Y-108044000D01*
X164932000Y-107644000D02*
X165332000Y-107644000D01*
X168132000Y-110844000D02*
X167732000Y-110844000D01*
D13*
%TO.C,U5*%
X136652000Y-102850000D02*
X138602000Y-102850000D01*
X136652000Y-107970000D02*
X138602000Y-107970000D01*
X136652000Y-102850000D02*
X133202000Y-102850000D01*
X136652000Y-107970000D02*
X134702000Y-107970000D01*
%TO.C,U4*%
X110764000Y-87884000D02*
X110764000Y-85934000D01*
X120884000Y-87884000D02*
X120884000Y-89834000D01*
X110764000Y-87884000D02*
X110764000Y-89834000D01*
X120884000Y-87884000D02*
X120884000Y-84434000D01*
D11*
%TO.C,U3*%
X111691000Y-101277000D02*
X111691000Y-101602000D01*
X118941000Y-101277000D02*
X118716000Y-101277000D01*
X118941000Y-101277000D02*
X118941000Y-101602000D01*
X118941000Y-108527000D02*
X118941000Y-108202000D01*
X118941000Y-108527000D02*
X118616000Y-108527000D01*
X111691000Y-108527000D02*
X112016000Y-108527000D01*
X111691000Y-108527000D02*
X111691000Y-108202000D01*
X111691000Y-101277000D02*
X112016000Y-101277000D01*
X118716000Y-101277000D02*
X118716000Y-99852000D01*
D13*
%TO.C,U1*%
X115788000Y-65278000D02*
X115788000Y-64478000D01*
X118908000Y-65278000D02*
X118908000Y-63478000D01*
X118908000Y-65278000D02*
X118908000Y-66078000D01*
X115788000Y-65278000D02*
X115788000Y-66078000D01*
%TO.C,D*%
X190936000Y-103560000D02*
X190936000Y-97100000D01*
X184476000Y-103560000D02*
X184476000Y-97100000D01*
X190936000Y-97100000D02*
X190906000Y-97100000D01*
X186406000Y-97100000D02*
X189006000Y-97100000D01*
X184476000Y-97100000D02*
X184506000Y-97100000D01*
X184506000Y-103560000D02*
X184476000Y-103560000D01*
X190936000Y-103560000D02*
X190906000Y-103560000D01*
X186406000Y-103560000D02*
X189006000Y-103560000D01*
%TO.C,C*%
X180268000Y-103560000D02*
X180268000Y-97100000D01*
X173808000Y-103560000D02*
X173808000Y-97100000D01*
X180268000Y-97100000D02*
X180238000Y-97100000D01*
X175738000Y-97100000D02*
X178338000Y-97100000D01*
X173808000Y-97100000D02*
X173838000Y-97100000D01*
X173838000Y-103560000D02*
X173808000Y-103560000D01*
X180268000Y-103560000D02*
X180238000Y-103560000D01*
X175738000Y-103560000D02*
X178338000Y-103560000D01*
%TO.C,B*%
X190936000Y-92230000D02*
X190936000Y-85770000D01*
X184476000Y-92230000D02*
X184476000Y-85770000D01*
X190936000Y-85770000D02*
X190906000Y-85770000D01*
X186406000Y-85770000D02*
X189006000Y-85770000D01*
X184476000Y-85770000D02*
X184506000Y-85770000D01*
X184506000Y-92230000D02*
X184476000Y-92230000D01*
X190936000Y-92230000D02*
X190906000Y-92230000D01*
X186406000Y-92230000D02*
X189006000Y-92230000D01*
%TO.C,A*%
X180268000Y-92230000D02*
X180268000Y-85770000D01*
X173808000Y-92230000D02*
X173808000Y-85770000D01*
X180268000Y-85770000D02*
X180238000Y-85770000D01*
X175738000Y-85770000D02*
X178338000Y-85770000D01*
X173808000Y-85770000D02*
X173838000Y-85770000D01*
X173838000Y-92230000D02*
X173808000Y-92230000D01*
X180268000Y-92230000D02*
X180238000Y-92230000D01*
X175738000Y-92230000D02*
X178338000Y-92230000D01*
%TO.C,R14*%
X151510000Y-102956379D02*
X151510000Y-103291621D01*
X150750000Y-102956379D02*
X150750000Y-103291621D01*
%TO.C,R13*%
X183768000Y-104734379D02*
X183768000Y-105069621D01*
X183008000Y-104734379D02*
X183008000Y-105069621D01*
%TO.C,R12*%
X173100000Y-104734379D02*
X173100000Y-105069621D01*
X172340000Y-104734379D02*
X172340000Y-105069621D01*
%TO.C,R11*%
X183768000Y-93558379D02*
X183768000Y-93893621D01*
X183008000Y-93558379D02*
X183008000Y-93893621D01*
%TO.C,R10*%
X173100000Y-93558379D02*
X173100000Y-93893621D01*
X172340000Y-93558379D02*
X172340000Y-93893621D01*
%TO.C,R7*%
X123062000Y-104988379D02*
X123062000Y-105323621D01*
X122302000Y-104988379D02*
X122302000Y-105323621D01*
%TO.C,R6*%
X120524000Y-97957621D02*
X120524000Y-97622379D01*
X121284000Y-97957621D02*
X121284000Y-97622379D01*
%TO.C,R5*%
X121794000Y-97957621D02*
X121794000Y-97622379D01*
X122554000Y-97957621D02*
X122554000Y-97622379D01*
%TO.C,R4*%
X126112000Y-111165621D02*
X126112000Y-110830379D01*
X126872000Y-111165621D02*
X126872000Y-110830379D01*
%TO.C,R3*%
X122554000Y-110830379D02*
X122554000Y-111165621D01*
X121794000Y-110830379D02*
X121794000Y-111165621D01*
%TO.C,R2*%
X113116379Y-66168000D02*
X113451621Y-66168000D01*
X113116379Y-66928000D02*
X113451621Y-66928000D01*
%TO.C,R1*%
X119508000Y-66207621D02*
X119508000Y-65872379D01*
X120268000Y-66207621D02*
X120268000Y-65872379D01*
%TO.C,J4*%
X114050000Y-71950000D02*
X114050000Y-72650000D01*
X103990000Y-77960000D02*
X105650000Y-77960000D01*
X111150000Y-77960000D02*
X108550000Y-77960000D01*
X105650000Y-70040000D02*
X103990000Y-70040000D01*
X113460000Y-71950000D02*
X114050000Y-71950000D01*
X108550000Y-70040000D02*
X111150000Y-70040000D01*
X113460000Y-70800000D02*
X113460000Y-71950000D01*
X103990000Y-70040000D02*
X103990000Y-77960000D01*
X113460000Y-76050000D02*
X113460000Y-77200000D01*
%TO.C,PRG*%
X127000000Y-103886000D02*
X127000000Y-101286000D01*
X124400000Y-109026000D02*
X129600000Y-109026000D01*
X129600000Y-101286000D02*
X129600000Y-109026000D01*
X124400000Y-101286000D02*
X125730000Y-101286000D01*
X124400000Y-103886000D02*
X124400000Y-109026000D01*
X124400000Y-103886000D02*
X127000000Y-103886000D01*
X124400000Y-102616000D02*
X124400000Y-101286000D01*
X127000000Y-101286000D02*
X129600000Y-101286000D01*
%TO.C,D1*%
X114969000Y-63556000D02*
X112284000Y-63556000D01*
X114969000Y-65476000D02*
X114969000Y-63556000D01*
X112284000Y-65476000D02*
X114969000Y-65476000D01*
%TO.C,C19*%
X160926000Y-108613733D02*
X160926000Y-108906267D01*
X161946000Y-108613733D02*
X161946000Y-108906267D01*
%TO.C,C18*%
X163470000Y-108613733D02*
X163470000Y-108906267D01*
X162450000Y-108613733D02*
X162450000Y-108906267D01*
%TO.C,C17*%
X150260267Y-108714000D02*
X149967733Y-108714000D01*
X150260267Y-107694000D02*
X149967733Y-107694000D01*
%TO.C,C16*%
X153523733Y-102106000D02*
X153816267Y-102106000D01*
X153523733Y-103126000D02*
X153816267Y-103126000D01*
%TO.C,C15*%
X151999733Y-100582000D02*
X152292267Y-100582000D01*
X151999733Y-101602000D02*
X152292267Y-101602000D01*
%TO.C,C12*%
X142242000Y-104247733D02*
X142242000Y-104540267D01*
X141222000Y-104247733D02*
X141222000Y-104540267D01*
%TO.C,C11*%
X116947733Y-73150000D02*
X117240267Y-73150000D01*
X116947733Y-74170000D02*
X117240267Y-74170000D01*
%TO.C,C10*%
X116947733Y-71626000D02*
X117240267Y-71626000D01*
X116947733Y-72646000D02*
X117240267Y-72646000D01*
%TO.C,C9*%
X112629733Y-92200000D02*
X112922267Y-92200000D01*
X112629733Y-93220000D02*
X112922267Y-93220000D01*
%TO.C,C8*%
X116578748Y-97055000D02*
X117101252Y-97055000D01*
X116578748Y-98525000D02*
X117101252Y-98525000D01*
%TO.C,C7*%
X115169733Y-110996000D02*
X115462267Y-110996000D01*
X115169733Y-112016000D02*
X115462267Y-112016000D01*
%TO.C,C6*%
X111906267Y-112016000D02*
X111613733Y-112016000D01*
X111906267Y-110996000D02*
X111613733Y-110996000D01*
%TO.C,C5*%
X116439733Y-95248000D02*
X116732267Y-95248000D01*
X116439733Y-96268000D02*
X116732267Y-96268000D01*
%TO.C,C2*%
X115615767Y-62740000D02*
X115323233Y-62740000D01*
X115615767Y-61720000D02*
X115323233Y-61720000D01*
%TO.C,C1*%
X117201733Y-67562000D02*
X117494267Y-67562000D01*
X117201733Y-68582000D02*
X117494267Y-68582000D01*
%TD*%
M02*
