%TF.GenerationSoftware,KiCad,Pcbnew,7.0.7*%
%TF.CreationDate,2023-09-10T20:13:10+02:00*%
%TF.ProjectId,Riddle_PCB,52696464-6c65-45f5-9043-422e6b696361,rev?*%
%TF.SameCoordinates,Original*%
%TF.FileFunction,Copper,L3,Inr*%
%TF.FilePolarity,Positive*%
%FSLAX46Y46*%
G04 Gerber Fmt 4.6, Leading zero omitted, Abs format (unit mm)*
G04 Created by KiCad (PCBNEW 7.0.7) date 2023-09-10 20:13:10*
%MOMM*%
%LPD*%
G01*
G04 APERTURE LIST*
%TA.AperFunction,ComponentPad*%
%ADD10C,2.590800*%
%TD*%
%TA.AperFunction,ComponentPad*%
%ADD11C,2.100000*%
%TD*%
%TA.AperFunction,ComponentPad*%
%ADD12R,1.700000X1.700000*%
%TD*%
%TA.AperFunction,ComponentPad*%
%ADD13O,1.700000X1.700000*%
%TD*%
%TA.AperFunction,ViaPad*%
%ADD14C,0.800000*%
%TD*%
G04 APERTURE END LIST*
D10*
%TO.N,/Powersupply/Bat_pos*%
%TO.C,POS*%
X132766000Y-74930000D03*
X132766000Y-69850000D03*
X125146000Y-72390000D03*
%TD*%
%TO.N,GND*%
%TO.C,NEG*%
X180766000Y-69850000D03*
X180766000Y-74930000D03*
X188386000Y-72390000D03*
%TD*%
D11*
%TO.N,/SDA*%
%TO.C,DISPLAY*%
X133280000Y-87884000D03*
%TO.N,/SCL*%
X133280000Y-90424000D03*
%TO.N,/3V3*%
X133280000Y-92964000D03*
%TO.N,GND*%
X133280000Y-95504000D03*
%TD*%
D12*
%TO.N,/Microcontroller/MISO*%
%TO.C,PRG*%
X125730000Y-102616000D03*
D13*
%TO.N,/3V3*%
X128270000Y-102616000D03*
%TO.N,/Microcontroller/SCK*%
X125730000Y-105156000D03*
%TO.N,/Microcontroller/MOSI*%
X128270000Y-105156000D03*
%TO.N,/Microcontroller/RESET*%
X125730000Y-107696000D03*
%TO.N,GND*%
X128270000Y-107696000D03*
%TD*%
D14*
%TO.N,GND*%
X117637662Y-62849500D03*
X113000000Y-62000000D03*
X130500000Y-76500000D03*
X132000000Y-79500000D03*
X132000000Y-81000000D03*
X146500000Y-108000000D03*
X137000000Y-107000000D03*
X130500000Y-107500000D03*
X108000000Y-102500000D03*
X107000000Y-81000000D03*
X112500000Y-81000000D03*
X120000000Y-83500000D03*
X188500000Y-64500000D03*
X180500000Y-64500000D03*
X188500000Y-80000000D03*
X180500000Y-80000000D03*
X183500000Y-96500000D03*
X183500000Y-107500000D03*
X172500000Y-95500000D03*
%TO.N,/Microcontroller/MISO*%
X117602000Y-107250500D03*
%TO.N,/Microcontroller/SCK*%
X117602000Y-105228500D03*
%TO.N,/Microcontroller/MOSI*%
X117602000Y-106228003D03*
%TO.N,GND*%
X172974000Y-106680000D03*
%TO.N,/SW4*%
X117860055Y-114881755D03*
%TO.N,/SW3*%
X118807457Y-114182255D03*
%TO.N,/SW2*%
X117856000Y-113482755D03*
%TO.N,/SW1*%
X119126000Y-112776000D03*
%TO.N,/SW4*%
X113030000Y-103632000D03*
%TO.N,/SW3*%
X113030000Y-102362000D03*
%TO.N,/SW2*%
X118142810Y-102142810D03*
%TO.N,/SW1*%
X119126000Y-99060000D03*
%TO.N,/3V3*%
X191770000Y-96266000D03*
X181102000Y-96266000D03*
X181102000Y-85000000D03*
X191770000Y-85090000D03*
%TO.N,/SDA*%
X135091973Y-91476027D03*
X124206000Y-112014000D03*
X127762000Y-112268000D03*
X146304000Y-103632000D03*
%TO.N,/SCL*%
X154940000Y-104902000D03*
%TO.N,/3V3*%
X127508000Y-110490000D03*
X122174000Y-112776000D03*
%TO.N,GND*%
X117094000Y-102362000D03*
X119634000Y-97790000D03*
X118618000Y-94488000D03*
X119888000Y-100330000D03*
%TO.N,/3V3*%
X116586000Y-83566000D03*
X152400000Y-107188000D03*
%TO.N,GND*%
X113792000Y-94234000D03*
X112014000Y-94234000D03*
%TO.N,/3V3*%
X112522000Y-112776000D03*
X122682000Y-106934000D03*
%TO.N,/Microcontroller/RESET*%
X116000000Y-103500000D03*
X110000000Y-94000000D03*
%TO.N,/3V3*%
X116078000Y-92964000D03*
%TO.N,Net-(U7-VCC)*%
X152400000Y-103886000D03*
%TO.N,GND*%
X152400000Y-105664000D03*
%TO.N,/3V3*%
X149860000Y-100584000D03*
%TO.N,GND*%
X165246000Y-111834756D03*
%TO.N,/3V3*%
X169056000Y-104442000D03*
%TO.N,Net-(U8-SDO{slash}AD0)*%
X166768584Y-106499340D03*
%TO.N,Net-(U8-REGOUT)*%
X165754000Y-106474000D03*
%TO.N,GND*%
X134112000Y-108712000D03*
X141732000Y-106680000D03*
%TO.N,/analog_temp*%
X117348000Y-110744000D03*
X132334000Y-103632000D03*
%TO.N,GND*%
X163468000Y-111046000D03*
X161944000Y-111046000D03*
%TO.N,/3V3*%
X160166000Y-107897500D03*
X143256000Y-103632000D03*
X125730000Y-83566000D03*
X126746000Y-83566000D03*
%TO.N,Net-(J4-D-)*%
X113919000Y-83820000D03*
X115915500Y-82042000D03*
%TO.N,GND*%
X109728000Y-78740000D03*
X109728000Y-69342000D03*
%TD*%
%TA.AperFunction,Conductor*%
%TO.N,GND*%
G36*
X190001424Y-60800566D02*
G01*
X190384618Y-60818282D01*
X190390311Y-60818808D01*
X190768824Y-60871609D01*
X190774443Y-60872659D01*
X191146465Y-60960158D01*
X191151957Y-60961721D01*
X191514326Y-61083175D01*
X191519636Y-61085232D01*
X191869269Y-61239610D01*
X191874369Y-61242149D01*
X192168852Y-61406175D01*
X192208242Y-61428115D01*
X192213113Y-61431131D01*
X192528396Y-61647105D01*
X192532969Y-61650558D01*
X192826984Y-61894705D01*
X192831218Y-61898565D01*
X193101434Y-62168781D01*
X193105294Y-62173015D01*
X193349441Y-62467030D01*
X193352894Y-62471603D01*
X193568868Y-62786886D01*
X193571884Y-62791757D01*
X193757844Y-63125619D01*
X193760393Y-63130739D01*
X193914762Y-63480352D01*
X193916826Y-63485679D01*
X194038276Y-63848035D01*
X194039844Y-63853546D01*
X194127338Y-64225548D01*
X194128391Y-64231180D01*
X194181189Y-64609675D01*
X194181717Y-64615380D01*
X194199434Y-64998575D01*
X194199500Y-65001439D01*
X194199500Y-111998560D01*
X194199434Y-112001424D01*
X194181717Y-112384619D01*
X194181189Y-112390324D01*
X194128391Y-112768819D01*
X194127338Y-112774451D01*
X194039844Y-113146453D01*
X194038276Y-113151964D01*
X193916826Y-113514320D01*
X193914759Y-113519655D01*
X193816726Y-113741680D01*
X193760398Y-113869251D01*
X193757844Y-113874380D01*
X193571884Y-114208242D01*
X193568868Y-114213113D01*
X193352894Y-114528396D01*
X193349441Y-114532969D01*
X193105294Y-114826984D01*
X193101434Y-114831218D01*
X192831218Y-115101434D01*
X192826984Y-115105294D01*
X192532969Y-115349441D01*
X192528396Y-115352894D01*
X192213113Y-115568868D01*
X192208242Y-115571884D01*
X191874380Y-115757844D01*
X191869252Y-115760397D01*
X191519655Y-115914759D01*
X191514320Y-115916826D01*
X191151964Y-116038276D01*
X191146453Y-116039844D01*
X190774451Y-116127338D01*
X190768819Y-116128391D01*
X190390324Y-116181189D01*
X190384619Y-116181717D01*
X190001424Y-116199434D01*
X189998560Y-116199500D01*
X118808371Y-116199500D01*
X118741332Y-116179815D01*
X118695577Y-116127011D01*
X118685633Y-116057853D01*
X118714658Y-115994297D01*
X118732209Y-115977646D01*
X118811839Y-115915668D01*
X118969034Y-115744908D01*
X119063757Y-115599921D01*
X119116903Y-115554565D01*
X119147159Y-115545434D01*
X119148914Y-115545140D01*
X119152438Y-115544553D01*
X119371960Y-115469191D01*
X119576083Y-115358725D01*
X119585658Y-115351273D01*
X119747802Y-115225071D01*
X119759241Y-115216168D01*
X119916436Y-115045408D01*
X120043381Y-114851104D01*
X120136614Y-114638555D01*
X120193591Y-114413560D01*
X120212757Y-114182255D01*
X120193717Y-113952468D01*
X120193592Y-113950957D01*
X120193588Y-113950937D01*
X120157070Y-113806732D01*
X120159694Y-113736912D01*
X120186043Y-113692310D01*
X120234979Y-113639153D01*
X120361924Y-113444849D01*
X120455157Y-113232300D01*
X120512134Y-113007305D01*
X120517972Y-112936848D01*
X120526424Y-112834852D01*
X120547934Y-112779106D01*
X120749666Y-112779106D01*
X120771456Y-112820101D01*
X120773576Y-112834852D01*
X120787864Y-113007297D01*
X120787866Y-113007308D01*
X120844842Y-113232300D01*
X120938075Y-113444848D01*
X121065016Y-113639147D01*
X121065019Y-113639150D01*
X121065021Y-113639153D01*
X121222216Y-113809913D01*
X121222219Y-113809915D01*
X121222222Y-113809918D01*
X121405365Y-113952464D01*
X121405371Y-113952468D01*
X121405374Y-113952470D01*
X121609497Y-114062936D01*
X121723487Y-114102068D01*
X121829015Y-114138297D01*
X121829017Y-114138297D01*
X121829019Y-114138298D01*
X122057951Y-114176500D01*
X122057952Y-114176500D01*
X122290048Y-114176500D01*
X122290049Y-114176500D01*
X122518981Y-114138298D01*
X122738503Y-114062936D01*
X122942626Y-113952470D01*
X123125784Y-113809913D01*
X123282979Y-113639153D01*
X123409924Y-113444849D01*
X123451256Y-113350620D01*
X123496213Y-113297134D01*
X123562949Y-113276444D01*
X123623831Y-113291375D01*
X123641497Y-113300936D01*
X123755487Y-113340068D01*
X123861015Y-113376297D01*
X123861017Y-113376297D01*
X123861019Y-113376298D01*
X124089951Y-113414500D01*
X124089952Y-113414500D01*
X124322048Y-113414500D01*
X124322049Y-113414500D01*
X124550981Y-113376298D01*
X124770503Y-113300936D01*
X124974626Y-113190470D01*
X125157784Y-113047913D01*
X125314979Y-112877153D01*
X125441924Y-112682849D01*
X125535157Y-112470300D01*
X125592134Y-112245305D01*
X125593576Y-112227902D01*
X125611300Y-112014006D01*
X125611300Y-112013993D01*
X125592135Y-111782702D01*
X125592133Y-111782691D01*
X125535157Y-111557699D01*
X125441924Y-111345151D01*
X125314983Y-111150852D01*
X125314980Y-111150849D01*
X125314979Y-111150847D01*
X125157784Y-110980087D01*
X125157779Y-110980083D01*
X125157777Y-110980081D01*
X124974634Y-110837535D01*
X124974628Y-110837531D01*
X124770504Y-110727064D01*
X124770495Y-110727061D01*
X124550984Y-110651702D01*
X124379281Y-110623050D01*
X124322049Y-110613500D01*
X124089951Y-110613500D01*
X124044164Y-110621140D01*
X123861015Y-110651702D01*
X123641504Y-110727061D01*
X123641495Y-110727064D01*
X123437371Y-110837531D01*
X123437365Y-110837535D01*
X123254222Y-110980081D01*
X123254219Y-110980084D01*
X123097016Y-111150852D01*
X122970076Y-111345149D01*
X122928743Y-111439380D01*
X122883786Y-111492865D01*
X122817050Y-111513555D01*
X122756172Y-111498625D01*
X122738511Y-111489067D01*
X122738495Y-111489061D01*
X122518984Y-111413702D01*
X122347281Y-111385050D01*
X122290049Y-111375500D01*
X122057951Y-111375500D01*
X122012164Y-111383140D01*
X121829015Y-111413702D01*
X121609504Y-111489061D01*
X121609495Y-111489064D01*
X121405371Y-111599531D01*
X121405365Y-111599535D01*
X121222222Y-111742081D01*
X121222219Y-111742084D01*
X121222216Y-111742086D01*
X121222216Y-111742087D01*
X121163267Y-111806121D01*
X121065016Y-111912852D01*
X120938075Y-112107151D01*
X120844842Y-112319699D01*
X120787866Y-112544691D01*
X120787864Y-112544703D01*
X120773575Y-112717147D01*
X120749666Y-112779106D01*
X120547934Y-112779106D01*
X120550332Y-112772892D01*
X120528543Y-112731897D01*
X120526425Y-112717167D01*
X120512134Y-112544695D01*
X120500638Y-112499297D01*
X120455157Y-112319699D01*
X120361924Y-112107151D01*
X120234983Y-111912852D01*
X120234980Y-111912849D01*
X120234979Y-111912847D01*
X120077784Y-111742087D01*
X120077779Y-111742083D01*
X120077777Y-111742081D01*
X119894634Y-111599535D01*
X119894628Y-111599531D01*
X119690504Y-111489064D01*
X119690495Y-111489061D01*
X119470984Y-111413702D01*
X119299282Y-111385050D01*
X119242049Y-111375500D01*
X119009951Y-111375500D01*
X118910342Y-111392121D01*
X118793962Y-111411542D01*
X118724596Y-111403160D01*
X118670774Y-111358607D01*
X118649584Y-111292028D01*
X118659996Y-111239422D01*
X118677157Y-111200300D01*
X118734134Y-110975305D01*
X118734135Y-110975297D01*
X118753300Y-110744006D01*
X118753300Y-110743993D01*
X118734135Y-110512702D01*
X118734133Y-110512691D01*
X118677157Y-110287699D01*
X118583924Y-110075151D01*
X118456983Y-109880852D01*
X118456980Y-109880849D01*
X118456979Y-109880847D01*
X118299784Y-109710087D01*
X118299779Y-109710083D01*
X118299777Y-109710081D01*
X118116634Y-109567535D01*
X118116628Y-109567531D01*
X117912504Y-109457064D01*
X117912495Y-109457061D01*
X117692984Y-109381702D01*
X117521281Y-109353050D01*
X117464049Y-109343500D01*
X117231951Y-109343500D01*
X117186164Y-109351140D01*
X117003015Y-109381702D01*
X116783504Y-109457061D01*
X116783495Y-109457064D01*
X116579371Y-109567531D01*
X116579365Y-109567535D01*
X116396222Y-109710081D01*
X116396219Y-109710084D01*
X116239016Y-109880852D01*
X116112075Y-110075151D01*
X116018842Y-110287699D01*
X115961866Y-110512691D01*
X115961864Y-110512702D01*
X115942700Y-110743993D01*
X115942700Y-110744006D01*
X115961864Y-110975297D01*
X115961866Y-110975308D01*
X116018842Y-111200300D01*
X116112075Y-111412848D01*
X116239016Y-111607147D01*
X116239019Y-111607151D01*
X116239021Y-111607153D01*
X116396216Y-111777913D01*
X116396219Y-111777915D01*
X116396222Y-111777918D01*
X116579365Y-111920464D01*
X116579371Y-111920468D01*
X116579374Y-111920470D01*
X116783497Y-112030936D01*
X117003019Y-112106298D01*
X117005222Y-112106665D01*
X117006048Y-112107065D01*
X117007989Y-112107557D01*
X117007887Y-112107956D01*
X117068107Y-112137113D01*
X117104549Y-112196726D01*
X117102977Y-112266578D01*
X117063889Y-112324492D01*
X117060979Y-112326828D01*
X116904218Y-112448840D01*
X116747016Y-112619607D01*
X116620075Y-112813906D01*
X116526842Y-113026454D01*
X116469866Y-113251446D01*
X116469864Y-113251457D01*
X116450700Y-113482748D01*
X116450700Y-113482761D01*
X116469864Y-113714052D01*
X116469866Y-113714063D01*
X116526842Y-113939055D01*
X116613699Y-114137067D01*
X116622602Y-114206367D01*
X116613699Y-114236687D01*
X116530897Y-114425454D01*
X116473921Y-114650446D01*
X116473919Y-114650457D01*
X116454755Y-114881748D01*
X116454755Y-114881761D01*
X116473919Y-115113052D01*
X116473921Y-115113063D01*
X116530897Y-115338055D01*
X116624130Y-115550603D01*
X116751071Y-115744902D01*
X116751074Y-115744905D01*
X116751076Y-115744908D01*
X116908271Y-115915668D01*
X116987901Y-115977646D01*
X117028714Y-116034357D01*
X117032389Y-116104130D01*
X116997758Y-116164813D01*
X116935816Y-116197140D01*
X116911739Y-116199500D01*
X110001440Y-116199500D01*
X109998576Y-116199434D01*
X109615380Y-116181717D01*
X109609675Y-116181189D01*
X109231180Y-116128391D01*
X109225548Y-116127338D01*
X108853546Y-116039844D01*
X108848035Y-116038276D01*
X108485679Y-115916826D01*
X108480352Y-115914762D01*
X108130739Y-115760393D01*
X108125619Y-115757844D01*
X108102394Y-115744908D01*
X108045560Y-115713251D01*
X107791757Y-115571884D01*
X107786886Y-115568868D01*
X107471603Y-115352894D01*
X107467030Y-115349441D01*
X107173015Y-115105294D01*
X107168781Y-115101434D01*
X106898565Y-114831218D01*
X106894705Y-114826984D01*
X106650558Y-114532969D01*
X106647105Y-114528396D01*
X106431131Y-114213113D01*
X106428115Y-114208242D01*
X106396568Y-114151604D01*
X106242149Y-113874369D01*
X106239610Y-113869269D01*
X106085232Y-113519636D01*
X106083173Y-113514320D01*
X106072595Y-113482761D01*
X105961721Y-113151957D01*
X105960158Y-113146465D01*
X105873027Y-112776006D01*
X111116700Y-112776006D01*
X111135864Y-113007297D01*
X111135866Y-113007308D01*
X111192842Y-113232300D01*
X111286075Y-113444848D01*
X111413016Y-113639147D01*
X111413019Y-113639150D01*
X111413021Y-113639153D01*
X111570216Y-113809913D01*
X111570219Y-113809915D01*
X111570222Y-113809918D01*
X111753365Y-113952464D01*
X111753371Y-113952468D01*
X111753374Y-113952470D01*
X111957497Y-114062936D01*
X112071487Y-114102068D01*
X112177015Y-114138297D01*
X112177017Y-114138297D01*
X112177019Y-114138298D01*
X112405951Y-114176500D01*
X112405952Y-114176500D01*
X112638048Y-114176500D01*
X112638049Y-114176500D01*
X112866981Y-114138298D01*
X113086503Y-114062936D01*
X113290626Y-113952470D01*
X113473784Y-113809913D01*
X113630979Y-113639153D01*
X113757924Y-113444849D01*
X113851157Y-113232300D01*
X113908134Y-113007305D01*
X113913972Y-112936848D01*
X113927300Y-112776006D01*
X113927300Y-112775993D01*
X113908135Y-112544702D01*
X113908133Y-112544691D01*
X113851157Y-112319699D01*
X113757924Y-112107151D01*
X113630983Y-111912852D01*
X113630980Y-111912849D01*
X113630979Y-111912847D01*
X113473784Y-111742087D01*
X113473779Y-111742083D01*
X113473777Y-111742081D01*
X113290634Y-111599535D01*
X113290628Y-111599531D01*
X113086504Y-111489064D01*
X113086495Y-111489061D01*
X112866984Y-111413702D01*
X112695282Y-111385050D01*
X112638049Y-111375500D01*
X112405951Y-111375500D01*
X112360164Y-111383140D01*
X112177015Y-111413702D01*
X111957504Y-111489061D01*
X111957495Y-111489064D01*
X111753371Y-111599531D01*
X111753365Y-111599535D01*
X111570222Y-111742081D01*
X111570219Y-111742084D01*
X111570216Y-111742086D01*
X111570216Y-111742087D01*
X111511267Y-111806121D01*
X111413016Y-111912852D01*
X111286075Y-112107151D01*
X111192842Y-112319699D01*
X111135866Y-112544691D01*
X111135864Y-112544702D01*
X111116700Y-112775993D01*
X111116700Y-112776006D01*
X105873027Y-112776006D01*
X105872659Y-112774443D01*
X105871608Y-112768819D01*
X105859616Y-112682848D01*
X105818808Y-112390311D01*
X105818282Y-112384618D01*
X105800566Y-112001424D01*
X105800500Y-111998560D01*
X105800500Y-103632006D01*
X111624700Y-103632006D01*
X111643864Y-103863297D01*
X111643866Y-103863308D01*
X111700842Y-104088300D01*
X111794075Y-104300848D01*
X111921016Y-104495147D01*
X111921019Y-104495151D01*
X111921021Y-104495153D01*
X112078216Y-104665913D01*
X112078219Y-104665915D01*
X112078222Y-104665918D01*
X112261365Y-104808464D01*
X112261371Y-104808468D01*
X112261374Y-104808470D01*
X112465497Y-104918936D01*
X112579487Y-104958068D01*
X112685015Y-104994297D01*
X112685017Y-104994297D01*
X112685019Y-104994298D01*
X112913951Y-105032500D01*
X112913952Y-105032500D01*
X113146048Y-105032500D01*
X113146049Y-105032500D01*
X113374981Y-104994298D01*
X113594503Y-104918936D01*
X113798626Y-104808470D01*
X113826291Y-104786938D01*
X113874837Y-104749153D01*
X113981784Y-104665913D01*
X114138979Y-104495153D01*
X114265924Y-104300849D01*
X114359157Y-104088300D01*
X114411508Y-103881572D01*
X114447047Y-103821418D01*
X114509467Y-103790026D01*
X114578950Y-103797364D01*
X114633436Y-103841103D01*
X114651918Y-103881573D01*
X114670840Y-103956295D01*
X114670841Y-103956296D01*
X114764075Y-104168848D01*
X114891016Y-104363147D01*
X114891019Y-104363151D01*
X114891021Y-104363153D01*
X115048216Y-104533913D01*
X115048219Y-104533915D01*
X115048222Y-104533918D01*
X115231365Y-104676464D01*
X115231371Y-104676468D01*
X115231374Y-104676470D01*
X115435497Y-104786936D01*
X115549487Y-104826068D01*
X115655015Y-104862297D01*
X115655017Y-104862297D01*
X115655019Y-104862298D01*
X115883951Y-104900500D01*
X115883952Y-104900500D01*
X116089179Y-104900500D01*
X116156218Y-104920185D01*
X116201973Y-104972989D01*
X116212755Y-105034740D01*
X116196700Y-105228494D01*
X116196700Y-105228506D01*
X116215864Y-105459797D01*
X116215866Y-105459808D01*
X116272842Y-105684797D01*
X116273935Y-105687980D01*
X116273997Y-105689358D01*
X116274102Y-105689772D01*
X116274016Y-105689793D01*
X116277089Y-105757779D01*
X116273939Y-105768506D01*
X116272846Y-105771689D01*
X116215866Y-105996694D01*
X116215864Y-105996705D01*
X116196700Y-106227996D01*
X116196700Y-106228009D01*
X116215864Y-106459300D01*
X116215866Y-106459311D01*
X116272842Y-106684300D01*
X116275097Y-106689441D01*
X116284000Y-106758741D01*
X116275101Y-106789052D01*
X116272843Y-106794200D01*
X116272841Y-106794204D01*
X116215866Y-107019191D01*
X116215864Y-107019202D01*
X116196700Y-107250493D01*
X116196700Y-107250506D01*
X116215864Y-107481797D01*
X116215866Y-107481808D01*
X116272842Y-107706800D01*
X116366075Y-107919348D01*
X116493016Y-108113647D01*
X116493019Y-108113651D01*
X116493021Y-108113653D01*
X116650216Y-108284413D01*
X116650219Y-108284415D01*
X116650222Y-108284418D01*
X116833365Y-108426964D01*
X116833371Y-108426968D01*
X116833374Y-108426970D01*
X117037497Y-108537436D01*
X117121715Y-108566348D01*
X117257015Y-108612797D01*
X117257017Y-108612797D01*
X117257019Y-108612798D01*
X117485951Y-108651000D01*
X117485952Y-108651000D01*
X117718048Y-108651000D01*
X117718049Y-108651000D01*
X117946981Y-108612798D01*
X118166503Y-108537436D01*
X118370626Y-108426970D01*
X118553784Y-108284413D01*
X118710979Y-108113653D01*
X118713063Y-108110464D01*
X118806194Y-107967915D01*
X118837924Y-107919349D01*
X118931157Y-107706800D01*
X118988134Y-107481805D01*
X118988135Y-107481797D01*
X119007300Y-107250506D01*
X119007300Y-107250493D01*
X118988135Y-107019202D01*
X118988133Y-107019191D01*
X118966561Y-106934006D01*
X121276700Y-106934006D01*
X121295864Y-107165297D01*
X121295866Y-107165308D01*
X121352842Y-107390300D01*
X121446075Y-107602848D01*
X121573016Y-107797147D01*
X121573019Y-107797151D01*
X121573021Y-107797153D01*
X121730216Y-107967913D01*
X121730219Y-107967915D01*
X121730222Y-107967918D01*
X121913365Y-108110464D01*
X121913371Y-108110468D01*
X121913374Y-108110470D01*
X121947260Y-108128808D01*
X122113324Y-108218678D01*
X122117497Y-108220936D01*
X122176702Y-108241261D01*
X122337015Y-108296297D01*
X122337017Y-108296297D01*
X122337019Y-108296298D01*
X122565951Y-108334500D01*
X122565952Y-108334500D01*
X122798048Y-108334500D01*
X122798049Y-108334500D01*
X123026981Y-108296298D01*
X123246503Y-108220936D01*
X123450626Y-108110470D01*
X123633784Y-107967913D01*
X123683713Y-107913675D01*
X123743598Y-107877685D01*
X123813436Y-107879784D01*
X123871053Y-107919308D01*
X123896108Y-107971299D01*
X123949922Y-108218674D01*
X123949923Y-108218678D01*
X123978874Y-108296298D01*
X124042426Y-108466690D01*
X124042428Y-108466694D01*
X124169280Y-108699005D01*
X124169285Y-108699013D01*
X124327906Y-108910907D01*
X124327922Y-108910925D01*
X124515074Y-109098077D01*
X124515092Y-109098093D01*
X124726986Y-109256714D01*
X124726994Y-109256719D01*
X124959305Y-109383571D01*
X124959309Y-109383573D01*
X124959311Y-109383574D01*
X125207322Y-109476077D01*
X125207325Y-109476077D01*
X125207326Y-109476078D01*
X125402552Y-109518546D01*
X125465974Y-109532343D01*
X125709660Y-109549772D01*
X125729999Y-109551227D01*
X125730000Y-109551227D01*
X125730001Y-109551227D01*
X125748885Y-109549876D01*
X125994026Y-109532343D01*
X125994036Y-109532341D01*
X126027041Y-109525161D01*
X126242430Y-109478306D01*
X126312119Y-109483290D01*
X126368053Y-109525161D01*
X126392470Y-109590625D01*
X126377618Y-109658898D01*
X126372595Y-109667293D01*
X126272075Y-109821151D01*
X126178842Y-110033699D01*
X126121866Y-110258691D01*
X126121864Y-110258702D01*
X126102700Y-110489993D01*
X126102700Y-110490006D01*
X126121864Y-110721297D01*
X126121866Y-110721308D01*
X126178842Y-110946300D01*
X126272075Y-111158848D01*
X126393791Y-111345149D01*
X126399021Y-111353153D01*
X126503287Y-111466417D01*
X126534208Y-111529069D01*
X126526348Y-111598495D01*
X126525612Y-111600207D01*
X126432842Y-111811699D01*
X126375866Y-112036691D01*
X126375864Y-112036702D01*
X126356700Y-112267993D01*
X126356700Y-112268006D01*
X126375864Y-112499297D01*
X126375866Y-112499308D01*
X126432842Y-112724300D01*
X126526075Y-112936848D01*
X126653016Y-113131147D01*
X126653019Y-113131151D01*
X126653021Y-113131153D01*
X126810216Y-113301913D01*
X126810219Y-113301915D01*
X126810222Y-113301918D01*
X126993365Y-113444464D01*
X126993371Y-113444468D01*
X126993374Y-113444470D01*
X127197497Y-113554936D01*
X127311487Y-113594068D01*
X127417015Y-113630297D01*
X127417017Y-113630297D01*
X127417019Y-113630298D01*
X127645951Y-113668500D01*
X127645952Y-113668500D01*
X127878048Y-113668500D01*
X127878049Y-113668500D01*
X128106981Y-113630298D01*
X128326503Y-113554936D01*
X128530626Y-113444470D01*
X128713784Y-113301913D01*
X128870979Y-113131153D01*
X128997924Y-112936849D01*
X129091157Y-112724300D01*
X129148134Y-112499305D01*
X129148135Y-112499297D01*
X129167300Y-112268006D01*
X129167300Y-112267993D01*
X129148135Y-112036702D01*
X129148133Y-112036691D01*
X129091157Y-111811699D01*
X128997924Y-111599151D01*
X128870983Y-111404853D01*
X128870982Y-111404852D01*
X128870979Y-111404847D01*
X128774461Y-111300000D01*
X128766713Y-111291583D01*
X128735792Y-111228928D01*
X128743653Y-111159502D01*
X128744388Y-111157791D01*
X128837157Y-110946300D01*
X128864701Y-110837531D01*
X128894134Y-110721305D01*
X128894135Y-110721297D01*
X128913300Y-110490006D01*
X128913300Y-110489993D01*
X128894135Y-110258702D01*
X128894133Y-110258691D01*
X128837157Y-110033699D01*
X128743924Y-109821151D01*
X128616983Y-109626852D01*
X128616980Y-109626849D01*
X128616979Y-109626847D01*
X128459784Y-109456087D01*
X128459779Y-109456083D01*
X128459777Y-109456081D01*
X128276634Y-109313535D01*
X128276628Y-109313531D01*
X128075063Y-109204449D01*
X128025473Y-109155229D01*
X128010365Y-109087012D01*
X128019998Y-109060883D01*
X128019998Y-108308300D01*
X128039682Y-108241261D01*
X128092486Y-108195506D01*
X128161642Y-108185562D01*
X128234237Y-108196000D01*
X128234240Y-108196000D01*
X128305762Y-108196000D01*
X128305763Y-108196000D01*
X128378353Y-108185563D01*
X128447512Y-108195507D01*
X128500315Y-108241262D01*
X128520000Y-108308301D01*
X128520000Y-109026633D01*
X128733483Y-108969433D01*
X128733492Y-108969429D01*
X128947578Y-108869600D01*
X129141082Y-108734105D01*
X129308105Y-108567082D01*
X129443600Y-108373578D01*
X129543429Y-108159492D01*
X129543432Y-108159486D01*
X129600636Y-107946000D01*
X128883347Y-107946000D01*
X128816308Y-107926315D01*
X128770553Y-107873511D01*
X128760609Y-107804353D01*
X128764369Y-107787067D01*
X128770000Y-107767888D01*
X128770000Y-107624111D01*
X128764369Y-107604933D01*
X128764370Y-107535064D01*
X128802145Y-107476286D01*
X128865701Y-107447262D01*
X128883347Y-107446000D01*
X129600636Y-107446000D01*
X129600635Y-107445999D01*
X129543432Y-107232513D01*
X129543429Y-107232507D01*
X129522678Y-107188006D01*
X150994700Y-107188006D01*
X151013864Y-107419297D01*
X151013866Y-107419308D01*
X151070842Y-107644300D01*
X151164075Y-107856848D01*
X151291016Y-108051147D01*
X151291019Y-108051151D01*
X151291021Y-108051153D01*
X151448216Y-108221913D01*
X151448219Y-108221915D01*
X151448222Y-108221918D01*
X151631365Y-108364464D01*
X151631371Y-108364468D01*
X151631374Y-108364470D01*
X151835497Y-108474936D01*
X151949487Y-108514068D01*
X152055015Y-108550297D01*
X152055017Y-108550297D01*
X152055019Y-108550298D01*
X152283951Y-108588500D01*
X152283952Y-108588500D01*
X152516048Y-108588500D01*
X152516049Y-108588500D01*
X152744981Y-108550298D01*
X152964503Y-108474936D01*
X153168626Y-108364470D01*
X153351784Y-108221913D01*
X153508979Y-108051153D01*
X153609361Y-107897506D01*
X158760700Y-107897506D01*
X158779864Y-108128797D01*
X158779866Y-108128808D01*
X158836842Y-108353800D01*
X158930075Y-108566348D01*
X159057016Y-108760647D01*
X159057019Y-108760651D01*
X159057021Y-108760653D01*
X159214216Y-108931413D01*
X159214219Y-108931415D01*
X159214222Y-108931418D01*
X159397365Y-109073964D01*
X159397371Y-109073968D01*
X159397374Y-109073970D01*
X159601497Y-109184436D01*
X159655759Y-109203064D01*
X159821015Y-109259797D01*
X159821017Y-109259797D01*
X159821019Y-109259798D01*
X160049951Y-109298000D01*
X160049952Y-109298000D01*
X160282048Y-109298000D01*
X160282049Y-109298000D01*
X160510981Y-109259798D01*
X160730503Y-109184436D01*
X160934626Y-109073970D01*
X160964966Y-109050356D01*
X161045079Y-108988001D01*
X161117784Y-108931413D01*
X161274979Y-108760653D01*
X161401924Y-108566349D01*
X161495157Y-108353800D01*
X161552134Y-108128805D01*
X161552785Y-108120952D01*
X161571300Y-107897506D01*
X161571300Y-107897493D01*
X161552135Y-107666202D01*
X161552133Y-107666191D01*
X161495157Y-107441199D01*
X161401924Y-107228651D01*
X161274983Y-107034352D01*
X161274980Y-107034349D01*
X161274979Y-107034347D01*
X161117784Y-106863587D01*
X161117779Y-106863583D01*
X161117777Y-106863581D01*
X160934634Y-106721035D01*
X160934628Y-106721031D01*
X160730504Y-106610564D01*
X160730495Y-106610561D01*
X160510984Y-106535202D01*
X160339282Y-106506550D01*
X160282049Y-106497000D01*
X160049951Y-106497000D01*
X160004164Y-106504640D01*
X159821015Y-106535202D01*
X159601504Y-106610561D01*
X159601495Y-106610564D01*
X159397371Y-106721031D01*
X159397365Y-106721035D01*
X159214222Y-106863581D01*
X159214219Y-106863584D01*
X159057016Y-107034352D01*
X158930075Y-107228651D01*
X158836842Y-107441199D01*
X158779866Y-107666191D01*
X158779864Y-107666202D01*
X158760700Y-107897493D01*
X158760700Y-107897506D01*
X153609361Y-107897506D01*
X153635924Y-107856849D01*
X153729157Y-107644300D01*
X153786134Y-107419305D01*
X153786135Y-107419297D01*
X153805300Y-107188006D01*
X153805300Y-107187993D01*
X153786135Y-106956702D01*
X153786133Y-106956691D01*
X153729157Y-106731699D01*
X153635924Y-106519151D01*
X153606430Y-106474006D01*
X164348700Y-106474006D01*
X164367864Y-106705297D01*
X164367866Y-106705308D01*
X164424842Y-106930297D01*
X164424843Y-106930300D01*
X164502056Y-107106327D01*
X164510959Y-107175627D01*
X164484000Y-107232385D01*
X164484000Y-107236000D01*
X164484000Y-111300000D01*
X168548000Y-111300000D01*
X168548000Y-107236000D01*
X168164560Y-107236000D01*
X168097521Y-107216315D01*
X168051766Y-107163511D01*
X168041822Y-107094353D01*
X168051004Y-107062190D01*
X168097741Y-106955640D01*
X168128269Y-106835090D01*
X168154718Y-106730645D01*
X168154719Y-106730637D01*
X168173884Y-106499346D01*
X168173884Y-106499333D01*
X168154719Y-106268042D01*
X168154717Y-106268031D01*
X168097741Y-106043039D01*
X168004508Y-105830491D01*
X167877567Y-105636192D01*
X167877564Y-105636189D01*
X167877563Y-105636187D01*
X167720368Y-105465427D01*
X167720363Y-105465423D01*
X167720361Y-105465421D01*
X167537218Y-105322875D01*
X167537212Y-105322871D01*
X167333088Y-105212404D01*
X167333079Y-105212401D01*
X167113568Y-105137042D01*
X166941865Y-105108390D01*
X166884633Y-105098840D01*
X166652535Y-105098840D01*
X166623893Y-105103619D01*
X166423602Y-105137041D01*
X166338459Y-105166271D01*
X166268660Y-105169420D01*
X166257934Y-105166270D01*
X166098984Y-105111702D01*
X165927281Y-105083050D01*
X165870049Y-105073500D01*
X165637951Y-105073500D01*
X165592164Y-105081140D01*
X165409015Y-105111702D01*
X165189504Y-105187061D01*
X165189495Y-105187064D01*
X164985371Y-105297531D01*
X164985365Y-105297535D01*
X164802222Y-105440081D01*
X164802219Y-105440084D01*
X164802216Y-105440086D01*
X164802216Y-105440087D01*
X164784062Y-105459808D01*
X164645016Y-105610852D01*
X164518075Y-105805151D01*
X164424842Y-106017699D01*
X164367866Y-106242691D01*
X164367864Y-106242702D01*
X164348700Y-106473993D01*
X164348700Y-106474006D01*
X153606430Y-106474006D01*
X153508983Y-106324852D01*
X153508980Y-106324849D01*
X153508979Y-106324847D01*
X153351784Y-106154087D01*
X153351779Y-106154083D01*
X153351777Y-106154081D01*
X153168634Y-106011535D01*
X153168628Y-106011531D01*
X152964504Y-105901064D01*
X152964495Y-105901061D01*
X152744984Y-105825702D01*
X152573281Y-105797050D01*
X152516049Y-105787500D01*
X152283951Y-105787500D01*
X152238164Y-105795140D01*
X152055015Y-105825702D01*
X151835504Y-105901061D01*
X151835495Y-105901064D01*
X151631371Y-106011531D01*
X151631365Y-106011535D01*
X151448222Y-106154081D01*
X151448219Y-106154084D01*
X151448216Y-106154086D01*
X151448216Y-106154087D01*
X151416136Y-106188935D01*
X151291016Y-106324852D01*
X151164075Y-106519151D01*
X151070842Y-106731699D01*
X151013866Y-106956691D01*
X151013864Y-106956702D01*
X150994700Y-107187993D01*
X150994700Y-107188006D01*
X129522678Y-107188006D01*
X129443600Y-107018422D01*
X129443599Y-107018420D01*
X129315230Y-106835090D01*
X129292903Y-106768884D01*
X129309913Y-106701117D01*
X129342489Y-106664705D01*
X129484915Y-106558087D01*
X129672087Y-106370915D01*
X129830716Y-106159011D01*
X129957574Y-105926689D01*
X130050077Y-105678678D01*
X130106343Y-105420026D01*
X130125227Y-105156000D01*
X130106343Y-104891974D01*
X130058773Y-104673297D01*
X130050078Y-104633326D01*
X130020807Y-104554848D01*
X129957574Y-104385311D01*
X129945471Y-104363147D01*
X129830719Y-104152994D01*
X129830714Y-104152986D01*
X129686479Y-103960309D01*
X129662062Y-103894845D01*
X129676914Y-103826572D01*
X129686472Y-103811698D01*
X129820988Y-103632006D01*
X130928700Y-103632006D01*
X130947864Y-103863297D01*
X130947866Y-103863308D01*
X131004842Y-104088300D01*
X131098075Y-104300848D01*
X131225016Y-104495147D01*
X131225019Y-104495151D01*
X131225021Y-104495153D01*
X131382216Y-104665913D01*
X131382219Y-104665915D01*
X131382222Y-104665918D01*
X131565365Y-104808464D01*
X131565371Y-104808468D01*
X131565374Y-104808470D01*
X131769497Y-104918936D01*
X131883487Y-104958068D01*
X131989015Y-104994297D01*
X131989017Y-104994297D01*
X131989019Y-104994298D01*
X132217951Y-105032500D01*
X132217952Y-105032500D01*
X132450048Y-105032500D01*
X132450049Y-105032500D01*
X132678981Y-104994298D01*
X132898503Y-104918936D01*
X133102626Y-104808470D01*
X133130291Y-104786938D01*
X133178837Y-104749153D01*
X133285784Y-104665913D01*
X133442979Y-104495153D01*
X133569924Y-104300849D01*
X133663157Y-104088300D01*
X133720134Y-103863305D01*
X133720135Y-103863297D01*
X133739300Y-103632006D01*
X141850700Y-103632006D01*
X141869864Y-103863297D01*
X141869866Y-103863308D01*
X141926842Y-104088300D01*
X142020075Y-104300848D01*
X142147016Y-104495147D01*
X142147019Y-104495151D01*
X142147021Y-104495153D01*
X142304216Y-104665913D01*
X142304219Y-104665915D01*
X142304222Y-104665918D01*
X142487365Y-104808464D01*
X142487371Y-104808468D01*
X142487374Y-104808470D01*
X142691497Y-104918936D01*
X142805487Y-104958068D01*
X142911015Y-104994297D01*
X142911017Y-104994297D01*
X142911019Y-104994298D01*
X143139951Y-105032500D01*
X143139952Y-105032500D01*
X143372048Y-105032500D01*
X143372049Y-105032500D01*
X143600981Y-104994298D01*
X143820503Y-104918936D01*
X144024626Y-104808470D01*
X144052291Y-104786938D01*
X144100837Y-104749153D01*
X144207784Y-104665913D01*
X144364979Y-104495153D01*
X144491924Y-104300849D01*
X144585157Y-104088300D01*
X144642134Y-103863305D01*
X144642135Y-103863297D01*
X144656424Y-103690852D01*
X144677934Y-103635107D01*
X144879667Y-103635107D01*
X144901456Y-103676101D01*
X144903576Y-103690852D01*
X144917864Y-103863297D01*
X144917866Y-103863308D01*
X144974842Y-104088300D01*
X145068075Y-104300848D01*
X145195016Y-104495147D01*
X145195019Y-104495151D01*
X145195021Y-104495153D01*
X145352216Y-104665913D01*
X145352219Y-104665915D01*
X145352222Y-104665918D01*
X145535365Y-104808464D01*
X145535371Y-104808468D01*
X145535374Y-104808470D01*
X145739497Y-104918936D01*
X145853487Y-104958068D01*
X145959015Y-104994297D01*
X145959017Y-104994297D01*
X145959019Y-104994298D01*
X146187951Y-105032500D01*
X146187952Y-105032500D01*
X146420048Y-105032500D01*
X146420049Y-105032500D01*
X146648981Y-104994298D01*
X146868503Y-104918936D01*
X147072626Y-104808470D01*
X147100291Y-104786938D01*
X147148837Y-104749153D01*
X147255784Y-104665913D01*
X147412979Y-104495153D01*
X147539924Y-104300849D01*
X147633157Y-104088300D01*
X147684385Y-103886006D01*
X150994700Y-103886006D01*
X151013864Y-104117297D01*
X151013866Y-104117308D01*
X151070842Y-104342300D01*
X151164075Y-104554848D01*
X151291016Y-104749147D01*
X151291019Y-104749151D01*
X151291021Y-104749153D01*
X151448216Y-104919913D01*
X151448219Y-104919915D01*
X151448222Y-104919918D01*
X151631365Y-105062464D01*
X151631371Y-105062468D01*
X151631374Y-105062470D01*
X151835497Y-105172936D01*
X151949487Y-105212068D01*
X152055015Y-105248297D01*
X152055017Y-105248297D01*
X152055019Y-105248298D01*
X152283951Y-105286500D01*
X152283952Y-105286500D01*
X152516048Y-105286500D01*
X152516049Y-105286500D01*
X152744981Y-105248298D01*
X152964503Y-105172936D01*
X153168626Y-105062470D01*
X153344196Y-104925818D01*
X153409187Y-104900177D01*
X153477727Y-104913743D01*
X153528052Y-104962211D01*
X153543932Y-105013433D01*
X153553864Y-105133296D01*
X153553866Y-105133308D01*
X153610842Y-105358300D01*
X153704075Y-105570848D01*
X153831016Y-105765147D01*
X153831019Y-105765151D01*
X153831021Y-105765153D01*
X153988216Y-105935913D01*
X153988219Y-105935915D01*
X153988222Y-105935918D01*
X154171365Y-106078464D01*
X154171371Y-106078468D01*
X154171374Y-106078470D01*
X154375497Y-106188936D01*
X154489275Y-106227996D01*
X154595015Y-106264297D01*
X154595017Y-106264297D01*
X154595019Y-106264298D01*
X154823951Y-106302500D01*
X154823952Y-106302500D01*
X155056048Y-106302500D01*
X155056049Y-106302500D01*
X155284981Y-106264298D01*
X155504503Y-106188936D01*
X155708626Y-106078470D01*
X155891784Y-105935913D01*
X156048979Y-105765153D01*
X156175924Y-105570849D01*
X156269157Y-105358300D01*
X156326134Y-105133305D01*
X156328990Y-105098840D01*
X156345300Y-104902006D01*
X156345300Y-104901993D01*
X156326135Y-104670702D01*
X156326133Y-104670691D01*
X156269157Y-104445699D01*
X156267537Y-104442006D01*
X167650700Y-104442006D01*
X167669864Y-104673297D01*
X167669866Y-104673308D01*
X167726842Y-104898300D01*
X167820075Y-105110848D01*
X167947016Y-105305147D01*
X167947019Y-105305151D01*
X167947021Y-105305153D01*
X168104216Y-105475913D01*
X168104219Y-105475915D01*
X168104222Y-105475918D01*
X168287365Y-105618464D01*
X168287371Y-105618468D01*
X168287374Y-105618470D01*
X168491497Y-105728936D01*
X168574803Y-105757535D01*
X168711015Y-105804297D01*
X168711017Y-105804297D01*
X168711019Y-105804298D01*
X168939951Y-105842500D01*
X168939952Y-105842500D01*
X169172048Y-105842500D01*
X169172049Y-105842500D01*
X169400981Y-105804298D01*
X169620503Y-105728936D01*
X169824626Y-105618470D01*
X170007784Y-105475913D01*
X170164979Y-105305153D01*
X170291924Y-105110849D01*
X170385157Y-104898300D01*
X170442134Y-104673305D01*
X170442350Y-104670702D01*
X170461300Y-104442006D01*
X170461300Y-104441993D01*
X170442135Y-104210702D01*
X170442133Y-104210691D01*
X170385157Y-103985699D01*
X170291924Y-103773151D01*
X170164983Y-103578852D01*
X170164980Y-103578849D01*
X170164979Y-103578847D01*
X170007784Y-103408087D01*
X170007779Y-103408083D01*
X170007777Y-103408081D01*
X169824634Y-103265535D01*
X169824628Y-103265531D01*
X169620504Y-103155064D01*
X169620495Y-103155061D01*
X169400984Y-103079702D01*
X169203864Y-103046809D01*
X169172049Y-103041500D01*
X168939951Y-103041500D01*
X168908136Y-103046809D01*
X168711015Y-103079702D01*
X168491504Y-103155061D01*
X168491495Y-103155064D01*
X168287371Y-103265531D01*
X168287365Y-103265535D01*
X168104222Y-103408081D01*
X168104219Y-103408084D01*
X168104216Y-103408086D01*
X168104216Y-103408087D01*
X168084278Y-103429746D01*
X167947016Y-103578852D01*
X167820075Y-103773151D01*
X167726842Y-103985699D01*
X167669866Y-104210691D01*
X167669864Y-104210702D01*
X167650700Y-104441993D01*
X167650700Y-104442006D01*
X156267537Y-104442006D01*
X156175924Y-104233151D01*
X156048983Y-104038852D01*
X156048980Y-104038849D01*
X156048979Y-104038847D01*
X155891784Y-103868087D01*
X155891779Y-103868083D01*
X155891777Y-103868081D01*
X155708634Y-103725535D01*
X155708628Y-103725531D01*
X155504504Y-103615064D01*
X155504495Y-103615061D01*
X155284984Y-103539702D01*
X155113282Y-103511050D01*
X155056049Y-103501500D01*
X154823951Y-103501500D01*
X154778164Y-103509140D01*
X154595015Y-103539702D01*
X154375504Y-103615061D01*
X154375495Y-103615064D01*
X154171372Y-103725531D01*
X153995805Y-103862180D01*
X153930811Y-103887822D01*
X153862271Y-103874255D01*
X153811946Y-103825787D01*
X153796066Y-103774568D01*
X153786134Y-103654695D01*
X153783278Y-103643418D01*
X153729157Y-103429699D01*
X153635924Y-103217151D01*
X153508983Y-103022852D01*
X153508980Y-103022849D01*
X153508979Y-103022847D01*
X153351784Y-102852087D01*
X153351779Y-102852083D01*
X153351777Y-102852081D01*
X153168634Y-102709535D01*
X153168628Y-102709531D01*
X152964504Y-102599064D01*
X152964495Y-102599061D01*
X152744984Y-102523702D01*
X152573282Y-102495050D01*
X152516049Y-102485500D01*
X152283951Y-102485500D01*
X152238164Y-102493140D01*
X152055015Y-102523702D01*
X151835504Y-102599061D01*
X151835495Y-102599064D01*
X151631371Y-102709531D01*
X151631365Y-102709535D01*
X151448222Y-102852081D01*
X151448219Y-102852084D01*
X151448216Y-102852086D01*
X151448216Y-102852087D01*
X151422496Y-102880027D01*
X151291016Y-103022852D01*
X151164075Y-103217151D01*
X151070842Y-103429699D01*
X151013866Y-103654691D01*
X151013864Y-103654702D01*
X150994700Y-103885993D01*
X150994700Y-103886006D01*
X147684385Y-103886006D01*
X147690134Y-103863305D01*
X147690135Y-103863297D01*
X147709300Y-103632006D01*
X147709300Y-103631993D01*
X147690135Y-103400702D01*
X147690133Y-103400691D01*
X147633157Y-103175699D01*
X147539924Y-102963151D01*
X147412983Y-102768852D01*
X147412980Y-102768849D01*
X147412979Y-102768847D01*
X147255784Y-102598087D01*
X147255779Y-102598083D01*
X147255777Y-102598081D01*
X147072634Y-102455535D01*
X147072628Y-102455531D01*
X146868504Y-102345064D01*
X146868495Y-102345061D01*
X146648984Y-102269702D01*
X146477281Y-102241050D01*
X146420049Y-102231500D01*
X146187951Y-102231500D01*
X146142164Y-102239140D01*
X145959015Y-102269702D01*
X145739504Y-102345061D01*
X145739495Y-102345064D01*
X145535371Y-102455531D01*
X145535365Y-102455535D01*
X145352222Y-102598081D01*
X145352219Y-102598084D01*
X145352216Y-102598086D01*
X145352216Y-102598087D01*
X145293267Y-102662121D01*
X145195016Y-102768852D01*
X145068075Y-102963151D01*
X144974842Y-103175699D01*
X144917866Y-103400691D01*
X144917864Y-103400702D01*
X144903576Y-103573147D01*
X144879667Y-103635107D01*
X144677934Y-103635107D01*
X144680332Y-103628891D01*
X144658544Y-103587898D01*
X144656424Y-103573147D01*
X144642135Y-103400702D01*
X144642133Y-103400691D01*
X144585157Y-103175699D01*
X144491924Y-102963151D01*
X144364983Y-102768852D01*
X144364980Y-102768849D01*
X144364979Y-102768847D01*
X144207784Y-102598087D01*
X144207779Y-102598083D01*
X144207777Y-102598081D01*
X144024634Y-102455535D01*
X144024628Y-102455531D01*
X143820504Y-102345064D01*
X143820495Y-102345061D01*
X143600984Y-102269702D01*
X143429282Y-102241050D01*
X143372049Y-102231500D01*
X143139951Y-102231500D01*
X143094164Y-102239140D01*
X142911015Y-102269702D01*
X142691504Y-102345061D01*
X142691495Y-102345064D01*
X142487371Y-102455531D01*
X142487365Y-102455535D01*
X142304222Y-102598081D01*
X142304219Y-102598084D01*
X142304216Y-102598086D01*
X142304216Y-102598087D01*
X142245267Y-102662121D01*
X142147016Y-102768852D01*
X142020075Y-102963151D01*
X141926842Y-103175699D01*
X141869866Y-103400691D01*
X141869864Y-103400702D01*
X141850700Y-103631993D01*
X141850700Y-103632006D01*
X133739300Y-103632006D01*
X133739300Y-103631993D01*
X133720135Y-103400702D01*
X133720133Y-103400691D01*
X133663157Y-103175699D01*
X133569924Y-102963151D01*
X133442983Y-102768852D01*
X133442980Y-102768849D01*
X133442979Y-102768847D01*
X133285784Y-102598087D01*
X133285779Y-102598083D01*
X133285777Y-102598081D01*
X133102634Y-102455535D01*
X133102628Y-102455531D01*
X132898504Y-102345064D01*
X132898495Y-102345061D01*
X132678984Y-102269702D01*
X132507281Y-102241050D01*
X132450049Y-102231500D01*
X132217951Y-102231500D01*
X132172164Y-102239140D01*
X131989015Y-102269702D01*
X131769504Y-102345061D01*
X131769495Y-102345064D01*
X131565371Y-102455531D01*
X131565365Y-102455535D01*
X131382222Y-102598081D01*
X131382219Y-102598084D01*
X131382216Y-102598086D01*
X131382216Y-102598087D01*
X131323267Y-102662121D01*
X131225016Y-102768852D01*
X131098075Y-102963151D01*
X131004842Y-103175699D01*
X130947866Y-103400691D01*
X130947864Y-103400702D01*
X130928700Y-103631993D01*
X130928700Y-103632006D01*
X129820988Y-103632006D01*
X129830716Y-103619011D01*
X129957574Y-103386689D01*
X130050077Y-103138678D01*
X130106343Y-102880026D01*
X130125227Y-102616000D01*
X130124015Y-102599061D01*
X130122525Y-102578229D01*
X130106343Y-102351974D01*
X130076125Y-102213064D01*
X130050078Y-102093326D01*
X130009488Y-101984500D01*
X129957574Y-101845311D01*
X129833407Y-101617918D01*
X129830719Y-101612994D01*
X129830714Y-101612986D01*
X129672093Y-101401092D01*
X129672077Y-101401074D01*
X129484925Y-101213922D01*
X129484907Y-101213906D01*
X129273013Y-101055285D01*
X129273005Y-101055280D01*
X129040694Y-100928428D01*
X129040690Y-100928426D01*
X128792673Y-100835921D01*
X128534034Y-100779658D01*
X128534027Y-100779657D01*
X128270001Y-100760773D01*
X128269999Y-100760773D01*
X128005972Y-100779657D01*
X128005965Y-100779658D01*
X127747326Y-100835921D01*
X127499309Y-100928426D01*
X127354895Y-101007282D01*
X127286622Y-101022133D01*
X127221158Y-100997716D01*
X127217108Y-100994551D01*
X127136014Y-100928428D01*
X127133407Y-100926302D01*
X126953049Y-100832091D01*
X126953048Y-100832090D01*
X126953045Y-100832089D01*
X126835829Y-100798550D01*
X126757418Y-100776114D01*
X126757415Y-100776113D01*
X126757413Y-100776113D01*
X126666983Y-100768073D01*
X126638037Y-100765500D01*
X126638035Y-100765500D01*
X126638034Y-100765500D01*
X125866569Y-100765500D01*
X124821964Y-100765501D01*
X124792727Y-100768100D01*
X124702584Y-100776113D01*
X124506954Y-100832089D01*
X124416772Y-100879196D01*
X124326593Y-100926302D01*
X124326591Y-100926303D01*
X124326590Y-100926304D01*
X124168890Y-101054890D01*
X124040304Y-101212590D01*
X124040302Y-101212593D01*
X124039608Y-101213922D01*
X123946089Y-101392954D01*
X123890114Y-101588583D01*
X123890113Y-101588586D01*
X123881795Y-101682146D01*
X123879500Y-101707963D01*
X123879501Y-103524036D01*
X123882331Y-103555872D01*
X123890113Y-103643415D01*
X123946089Y-103839045D01*
X123946090Y-103839048D01*
X123946091Y-103839049D01*
X124040302Y-104019407D01*
X124066907Y-104052035D01*
X124108551Y-104103108D01*
X124135660Y-104167505D01*
X124123651Y-104236334D01*
X124121282Y-104240895D01*
X124042426Y-104385309D01*
X123949921Y-104633326D01*
X123893658Y-104891965D01*
X123893657Y-104891972D01*
X123874773Y-105155998D01*
X123874773Y-105156001D01*
X123893657Y-105420027D01*
X123893658Y-105420034D01*
X123949921Y-105678673D01*
X124042426Y-105926690D01*
X124042428Y-105926694D01*
X124169280Y-106159005D01*
X124169285Y-106159013D01*
X124313520Y-106351690D01*
X124337937Y-106417155D01*
X124323085Y-106485427D01*
X124313520Y-106500311D01*
X124247559Y-106588424D01*
X124191625Y-106630295D01*
X124121934Y-106635279D01*
X124060610Y-106601794D01*
X124028086Y-106544552D01*
X124025718Y-106535202D01*
X124011157Y-106477700D01*
X123917924Y-106265151D01*
X123893654Y-106228003D01*
X123790983Y-106070852D01*
X123790980Y-106070849D01*
X123790979Y-106070847D01*
X123633784Y-105900087D01*
X123633779Y-105900083D01*
X123633777Y-105900081D01*
X123450634Y-105757535D01*
X123450628Y-105757531D01*
X123246504Y-105647064D01*
X123246495Y-105647061D01*
X123026984Y-105571702D01*
X122855281Y-105543050D01*
X122798049Y-105533500D01*
X122565951Y-105533500D01*
X122520164Y-105541140D01*
X122337015Y-105571702D01*
X122117504Y-105647061D01*
X122117495Y-105647064D01*
X121913371Y-105757531D01*
X121913365Y-105757535D01*
X121730222Y-105900081D01*
X121730219Y-105900084D01*
X121730216Y-105900086D01*
X121730216Y-105900087D01*
X121729317Y-105901064D01*
X121573016Y-106070852D01*
X121446075Y-106265151D01*
X121352842Y-106477699D01*
X121295866Y-106702691D01*
X121295864Y-106702702D01*
X121276700Y-106933993D01*
X121276700Y-106934006D01*
X118966561Y-106934006D01*
X118931157Y-106794199D01*
X118928903Y-106789061D01*
X118920000Y-106719761D01*
X118928905Y-106689437D01*
X118931155Y-106684307D01*
X118931157Y-106684303D01*
X118988134Y-106459308D01*
X118991627Y-106417155D01*
X119007300Y-106228009D01*
X119007300Y-106227996D01*
X118988135Y-105996705D01*
X118988133Y-105996694D01*
X118972742Y-105935918D01*
X118931157Y-105771703D01*
X118931156Y-105771700D01*
X118930066Y-105768525D01*
X118930003Y-105767148D01*
X118929898Y-105766731D01*
X118929983Y-105766709D01*
X118926909Y-105698727D01*
X118930064Y-105687981D01*
X118931150Y-105684814D01*
X118931157Y-105684800D01*
X118988134Y-105459805D01*
X118989768Y-105440084D01*
X119007300Y-105228506D01*
X119007300Y-105228493D01*
X118988135Y-104997202D01*
X118988133Y-104997191D01*
X118931157Y-104772199D01*
X118837924Y-104559651D01*
X118710983Y-104365352D01*
X118710980Y-104365349D01*
X118710979Y-104365347D01*
X118553784Y-104194587D01*
X118553779Y-104194583D01*
X118553777Y-104194581D01*
X118370634Y-104052035D01*
X118370628Y-104052031D01*
X118166504Y-103941564D01*
X118166495Y-103941561D01*
X117946984Y-103866202D01*
X117775282Y-103837550D01*
X117718049Y-103828000D01*
X117512821Y-103828000D01*
X117445782Y-103808315D01*
X117400027Y-103755511D01*
X117389244Y-103693764D01*
X117402643Y-103532060D01*
X117427796Y-103466879D01*
X117484198Y-103425640D01*
X117553941Y-103421442D01*
X117576028Y-103428747D01*
X117578304Y-103429745D01*
X117797825Y-103505107D01*
X117797827Y-103505107D01*
X117797829Y-103505108D01*
X118026761Y-103543310D01*
X118026762Y-103543310D01*
X118258858Y-103543310D01*
X118258859Y-103543310D01*
X118487791Y-103505108D01*
X118707313Y-103429746D01*
X118911436Y-103319280D01*
X119094594Y-103176723D01*
X119251789Y-103005963D01*
X119378734Y-102811659D01*
X119471967Y-102599110D01*
X119528944Y-102374115D01*
X119528945Y-102374107D01*
X119548110Y-102142816D01*
X119548110Y-102142803D01*
X119528945Y-101911512D01*
X119528943Y-101911501D01*
X119471967Y-101686509D01*
X119378734Y-101473961D01*
X119251793Y-101279662D01*
X119251790Y-101279659D01*
X119251789Y-101279657D01*
X119094594Y-101108897D01*
X119094589Y-101108893D01*
X119094587Y-101108891D01*
X118911444Y-100966345D01*
X118911438Y-100966341D01*
X118707314Y-100855874D01*
X118707305Y-100855871D01*
X118487794Y-100780512D01*
X118316091Y-100751860D01*
X118258859Y-100742310D01*
X118026761Y-100742310D01*
X117980974Y-100749950D01*
X117797825Y-100780512D01*
X117578314Y-100855871D01*
X117578305Y-100855874D01*
X117374181Y-100966341D01*
X117374175Y-100966345D01*
X117191032Y-101108891D01*
X117191029Y-101108894D01*
X117033826Y-101279662D01*
X116906885Y-101473961D01*
X116813652Y-101686509D01*
X116756676Y-101911501D01*
X116756674Y-101911513D01*
X116740166Y-102110746D01*
X116715013Y-102175931D01*
X116658611Y-102217169D01*
X116588868Y-102221367D01*
X116566789Y-102214066D01*
X116564504Y-102213064D01*
X116344984Y-102137702D01*
X116173281Y-102109050D01*
X116116049Y-102099500D01*
X115883951Y-102099500D01*
X115838164Y-102107140D01*
X115655015Y-102137702D01*
X115435504Y-102213061D01*
X115435495Y-102213064D01*
X115231371Y-102323531D01*
X115231365Y-102323535D01*
X115048222Y-102466081D01*
X115048219Y-102466084D01*
X114891016Y-102636852D01*
X114764075Y-102831151D01*
X114670841Y-103043703D01*
X114670841Y-103043704D01*
X114618491Y-103250426D01*
X114582952Y-103310581D01*
X114520531Y-103341973D01*
X114451048Y-103334635D01*
X114396563Y-103290896D01*
X114378080Y-103250425D01*
X114359157Y-103175699D01*
X114302620Y-103046809D01*
X114293717Y-102977509D01*
X114302620Y-102947189D01*
X114359157Y-102818300D01*
X114416134Y-102593305D01*
X114416135Y-102593297D01*
X114435300Y-102362006D01*
X114435300Y-102361993D01*
X114416135Y-102130702D01*
X114416133Y-102130691D01*
X114359157Y-101905699D01*
X114265924Y-101693151D01*
X114138983Y-101498852D01*
X114138980Y-101498849D01*
X114138979Y-101498847D01*
X113981784Y-101328087D01*
X113981779Y-101328083D01*
X113981777Y-101328081D01*
X113798634Y-101185535D01*
X113798628Y-101185531D01*
X113594504Y-101075064D01*
X113594495Y-101075061D01*
X113374984Y-100999702D01*
X113175083Y-100966345D01*
X113146049Y-100961500D01*
X112913951Y-100961500D01*
X112884917Y-100966345D01*
X112685015Y-100999702D01*
X112465504Y-101075061D01*
X112465495Y-101075064D01*
X112261371Y-101185531D01*
X112261365Y-101185535D01*
X112078222Y-101328081D01*
X112078219Y-101328084D01*
X111921016Y-101498852D01*
X111794075Y-101693151D01*
X111700842Y-101905699D01*
X111643866Y-102130691D01*
X111643864Y-102130702D01*
X111624700Y-102361993D01*
X111624700Y-102362006D01*
X111643864Y-102593297D01*
X111643866Y-102593308D01*
X111700842Y-102818300D01*
X111727922Y-102880034D01*
X111757378Y-102947188D01*
X111757379Y-102947189D01*
X111766282Y-103016489D01*
X111757379Y-103046809D01*
X111700843Y-103175699D01*
X111643866Y-103400691D01*
X111643864Y-103400702D01*
X111624700Y-103631993D01*
X111624700Y-103632006D01*
X105800500Y-103632006D01*
X105800500Y-100584006D01*
X148454700Y-100584006D01*
X148473864Y-100815297D01*
X148473866Y-100815308D01*
X148530842Y-101040300D01*
X148624075Y-101252848D01*
X148751016Y-101447147D01*
X148751019Y-101447151D01*
X148751021Y-101447153D01*
X148908216Y-101617913D01*
X148908219Y-101617915D01*
X148908222Y-101617918D01*
X149091365Y-101760464D01*
X149091371Y-101760468D01*
X149091374Y-101760470D01*
X149295497Y-101870936D01*
X149396758Y-101905699D01*
X149515015Y-101946297D01*
X149515017Y-101946297D01*
X149515019Y-101946298D01*
X149743951Y-101984500D01*
X149743952Y-101984500D01*
X149976048Y-101984500D01*
X149976049Y-101984500D01*
X150204981Y-101946298D01*
X150424503Y-101870936D01*
X150628626Y-101760470D01*
X150811784Y-101617913D01*
X150968979Y-101447153D01*
X151095924Y-101252849D01*
X151189157Y-101040300D01*
X151246134Y-100815305D01*
X151249088Y-100779657D01*
X151265300Y-100584006D01*
X151265300Y-100583993D01*
X151246135Y-100352702D01*
X151246133Y-100352691D01*
X151189157Y-100127699D01*
X151095924Y-99915151D01*
X150968983Y-99720852D01*
X150968980Y-99720849D01*
X150968979Y-99720847D01*
X150811784Y-99550087D01*
X150811779Y-99550083D01*
X150811777Y-99550081D01*
X150628634Y-99407535D01*
X150628628Y-99407531D01*
X150424504Y-99297064D01*
X150424495Y-99297061D01*
X150204984Y-99221702D01*
X150033282Y-99193050D01*
X149976049Y-99183500D01*
X149743951Y-99183500D01*
X149698164Y-99191140D01*
X149515015Y-99221702D01*
X149295504Y-99297061D01*
X149295495Y-99297064D01*
X149091371Y-99407531D01*
X149091365Y-99407535D01*
X148908222Y-99550081D01*
X148908219Y-99550084D01*
X148751016Y-99720852D01*
X148624075Y-99915151D01*
X148530842Y-100127699D01*
X148473866Y-100352691D01*
X148473864Y-100352702D01*
X148454700Y-100583993D01*
X148454700Y-100584006D01*
X105800500Y-100584006D01*
X105800500Y-98958833D01*
X107345624Y-98958833D01*
X107355944Y-99122860D01*
X107406732Y-99279171D01*
X107406734Y-99279175D01*
X107494798Y-99417940D01*
X107614603Y-99530445D01*
X107614611Y-99530451D01*
X107694860Y-99574568D01*
X107758632Y-99609627D01*
X107917823Y-99650500D01*
X107917827Y-99650500D01*
X108040923Y-99650500D01*
X108040925Y-99650500D01*
X108040930Y-99650499D01*
X108040934Y-99650499D01*
X108054174Y-99648826D01*
X108163058Y-99635071D01*
X108315871Y-99574568D01*
X108315878Y-99574563D01*
X108448835Y-99477965D01*
X108448835Y-99477963D01*
X108448837Y-99477963D01*
X108553600Y-99351326D01*
X108623579Y-99202613D01*
X108650783Y-99060006D01*
X117720700Y-99060006D01*
X117739864Y-99291297D01*
X117739866Y-99291308D01*
X117796842Y-99516300D01*
X117890075Y-99728848D01*
X118017016Y-99923147D01*
X118017019Y-99923151D01*
X118017021Y-99923153D01*
X118174216Y-100093913D01*
X118174219Y-100093915D01*
X118174222Y-100093918D01*
X118357365Y-100236464D01*
X118357371Y-100236468D01*
X118357374Y-100236470D01*
X118561497Y-100346936D01*
X118675487Y-100386068D01*
X118781015Y-100422297D01*
X118781017Y-100422297D01*
X118781019Y-100422298D01*
X119009951Y-100460500D01*
X119009952Y-100460500D01*
X119242048Y-100460500D01*
X119242049Y-100460500D01*
X119470981Y-100422298D01*
X119690503Y-100346936D01*
X119894626Y-100236470D01*
X120077784Y-100093913D01*
X120234979Y-99923153D01*
X120361924Y-99728849D01*
X120455157Y-99516300D01*
X120512134Y-99291305D01*
X120513139Y-99279175D01*
X120531300Y-99060006D01*
X120531300Y-99059993D01*
X120512135Y-98828702D01*
X120512133Y-98828691D01*
X120455157Y-98603699D01*
X120361924Y-98391151D01*
X120234983Y-98196852D01*
X120234980Y-98196849D01*
X120234979Y-98196847D01*
X120077784Y-98026087D01*
X120077779Y-98026083D01*
X120077777Y-98026081D01*
X119894634Y-97883535D01*
X119894628Y-97883531D01*
X119690504Y-97773064D01*
X119690495Y-97773061D01*
X119470984Y-97697702D01*
X119299281Y-97669050D01*
X119242049Y-97659500D01*
X119009951Y-97659500D01*
X118968002Y-97666500D01*
X118781015Y-97697702D01*
X118561504Y-97773061D01*
X118561495Y-97773064D01*
X118357371Y-97883531D01*
X118357365Y-97883535D01*
X118174222Y-98026081D01*
X118174219Y-98026084D01*
X118017016Y-98196852D01*
X117890075Y-98391151D01*
X117796842Y-98603699D01*
X117739866Y-98828691D01*
X117739864Y-98828702D01*
X117720700Y-99059993D01*
X117720700Y-99060006D01*
X108650783Y-99060006D01*
X108654376Y-99041170D01*
X108644056Y-98877140D01*
X108593268Y-98720829D01*
X108505202Y-98582060D01*
X108441281Y-98522034D01*
X108385396Y-98469554D01*
X108385388Y-98469548D01*
X108241371Y-98390374D01*
X108241361Y-98390371D01*
X108082180Y-98349500D01*
X108082177Y-98349500D01*
X107959075Y-98349500D01*
X107959065Y-98349500D01*
X107836942Y-98364929D01*
X107836939Y-98364929D01*
X107684130Y-98425431D01*
X107684121Y-98425436D01*
X107551164Y-98522034D01*
X107551162Y-98522037D01*
X107446400Y-98648673D01*
X107376420Y-98797387D01*
X107370447Y-98828702D01*
X107345624Y-98958830D01*
X107345624Y-98958832D01*
X107345624Y-98958833D01*
X105800500Y-98958833D01*
X105800500Y-94000006D01*
X108594700Y-94000006D01*
X108613864Y-94231297D01*
X108613866Y-94231308D01*
X108670842Y-94456300D01*
X108764075Y-94668848D01*
X108891016Y-94863147D01*
X108891019Y-94863151D01*
X108891021Y-94863153D01*
X109048216Y-95033913D01*
X109048219Y-95033915D01*
X109048222Y-95033918D01*
X109231365Y-95176464D01*
X109231371Y-95176468D01*
X109231374Y-95176470D01*
X109435497Y-95286936D01*
X109526231Y-95318085D01*
X109655015Y-95362297D01*
X109655017Y-95362297D01*
X109655019Y-95362298D01*
X109883951Y-95400500D01*
X109883952Y-95400500D01*
X110116048Y-95400500D01*
X110116049Y-95400500D01*
X110344981Y-95362298D01*
X110564503Y-95286936D01*
X110768626Y-95176470D01*
X110951784Y-95033913D01*
X111108979Y-94863153D01*
X111235924Y-94668849D01*
X111329157Y-94456300D01*
X111386134Y-94231305D01*
X111393661Y-94140468D01*
X111405300Y-94000006D01*
X111405300Y-93999993D01*
X111386135Y-93768702D01*
X111386133Y-93768691D01*
X111329157Y-93543699D01*
X111235924Y-93331151D01*
X111108983Y-93136852D01*
X111108980Y-93136849D01*
X111108979Y-93136847D01*
X110951784Y-92966087D01*
X110951779Y-92966083D01*
X110951777Y-92966081D01*
X110949111Y-92964006D01*
X114672700Y-92964006D01*
X114691864Y-93195297D01*
X114691866Y-93195308D01*
X114748842Y-93420300D01*
X114842075Y-93632848D01*
X114969016Y-93827147D01*
X114969019Y-93827151D01*
X114969021Y-93827153D01*
X115126216Y-93997913D01*
X115126219Y-93997915D01*
X115126222Y-93997918D01*
X115309365Y-94140464D01*
X115309371Y-94140468D01*
X115309374Y-94140470D01*
X115513497Y-94250936D01*
X115627487Y-94290068D01*
X115733015Y-94326297D01*
X115733017Y-94326297D01*
X115733019Y-94326298D01*
X115961951Y-94364500D01*
X115961952Y-94364500D01*
X116194048Y-94364500D01*
X116194049Y-94364500D01*
X116422981Y-94326298D01*
X116642503Y-94250936D01*
X116846626Y-94140470D01*
X117029784Y-93997913D01*
X117186979Y-93827153D01*
X117313924Y-93632849D01*
X117407157Y-93420300D01*
X117464134Y-93195305D01*
X117464135Y-93195297D01*
X117483300Y-92964006D01*
X117483300Y-92964000D01*
X131224709Y-92964000D01*
X131243851Y-93243862D01*
X131243852Y-93243864D01*
X131300921Y-93518499D01*
X131300926Y-93518516D01*
X131389839Y-93768691D01*
X131394864Y-93782830D01*
X131523919Y-94031896D01*
X131685688Y-94261069D01*
X131685692Y-94261073D01*
X131685692Y-94261074D01*
X131877154Y-94466080D01*
X131940469Y-94517591D01*
X131980049Y-94575168D01*
X131982218Y-94645004D01*
X131967941Y-94678569D01*
X131894668Y-94798138D01*
X131801303Y-95023542D01*
X131744348Y-95260780D01*
X131725207Y-95504000D01*
X131744348Y-95747219D01*
X131801303Y-95984457D01*
X131894668Y-96209861D01*
X132018504Y-96411942D01*
X132631482Y-95798964D01*
X132692805Y-95765479D01*
X132762496Y-95770463D01*
X132818430Y-95812334D01*
X132821514Y-95817249D01*
X132821549Y-95817225D01*
X132826441Y-95824156D01*
X132929637Y-95934651D01*
X132929638Y-95934652D01*
X132964698Y-95955973D01*
X133011749Y-96007623D01*
X133023407Y-96076513D01*
X132995970Y-96140770D01*
X132987950Y-96149601D01*
X132372056Y-96765494D01*
X132574138Y-96889331D01*
X132799542Y-96982696D01*
X133036780Y-97039651D01*
X133036779Y-97039651D01*
X133280000Y-97058792D01*
X133523219Y-97039651D01*
X133760457Y-96982696D01*
X133985861Y-96889331D01*
X134187942Y-96765494D01*
X133573166Y-96150718D01*
X133539681Y-96089395D01*
X133544665Y-96019703D01*
X133582588Y-95966853D01*
X133685739Y-95882934D01*
X133736052Y-95811655D01*
X133790793Y-95768239D01*
X133860318Y-95761310D01*
X133922553Y-95793068D01*
X133925037Y-95795484D01*
X134541494Y-96411942D01*
X134630925Y-96266006D01*
X179696700Y-96266006D01*
X179715864Y-96497297D01*
X179715866Y-96497308D01*
X179772842Y-96722300D01*
X179866075Y-96934848D01*
X179993016Y-97129147D01*
X179993019Y-97129151D01*
X179993021Y-97129153D01*
X180150216Y-97299913D01*
X180150219Y-97299915D01*
X180150222Y-97299918D01*
X180333365Y-97442464D01*
X180333371Y-97442468D01*
X180333374Y-97442470D01*
X180537497Y-97552936D01*
X180651487Y-97592068D01*
X180757015Y-97628297D01*
X180757017Y-97628297D01*
X180757019Y-97628298D01*
X180985951Y-97666500D01*
X180985952Y-97666500D01*
X181218048Y-97666500D01*
X181218049Y-97666500D01*
X181446981Y-97628298D01*
X181666503Y-97552936D01*
X181870626Y-97442470D01*
X182053784Y-97299913D01*
X182210979Y-97129153D01*
X182337924Y-96934849D01*
X182431157Y-96722300D01*
X182488134Y-96497305D01*
X182488135Y-96497297D01*
X182507300Y-96266006D01*
X190364700Y-96266006D01*
X190383864Y-96497297D01*
X190383866Y-96497308D01*
X190440842Y-96722300D01*
X190534075Y-96934848D01*
X190661016Y-97129147D01*
X190661019Y-97129151D01*
X190661021Y-97129153D01*
X190818216Y-97299913D01*
X190818219Y-97299915D01*
X190818222Y-97299918D01*
X191001365Y-97442464D01*
X191001371Y-97442468D01*
X191001374Y-97442470D01*
X191205497Y-97552936D01*
X191319487Y-97592068D01*
X191425015Y-97628297D01*
X191425017Y-97628297D01*
X191425019Y-97628298D01*
X191653951Y-97666500D01*
X191653952Y-97666500D01*
X191886048Y-97666500D01*
X191886049Y-97666500D01*
X192114981Y-97628298D01*
X192334503Y-97552936D01*
X192538626Y-97442470D01*
X192721784Y-97299913D01*
X192878979Y-97129153D01*
X193005924Y-96934849D01*
X193099157Y-96722300D01*
X193156134Y-96497305D01*
X193156135Y-96497297D01*
X193175300Y-96266006D01*
X193175300Y-96265993D01*
X193156135Y-96034702D01*
X193156133Y-96034691D01*
X193099157Y-95809699D01*
X193005924Y-95597151D01*
X192878983Y-95402852D01*
X192878980Y-95402849D01*
X192878979Y-95402847D01*
X192721784Y-95232087D01*
X192721779Y-95232083D01*
X192721777Y-95232081D01*
X192538634Y-95089535D01*
X192538628Y-95089531D01*
X192334504Y-94979064D01*
X192334495Y-94979061D01*
X192114984Y-94903702D01*
X191943281Y-94875050D01*
X191886049Y-94865500D01*
X191653951Y-94865500D01*
X191608164Y-94873140D01*
X191425015Y-94903702D01*
X191205504Y-94979061D01*
X191205495Y-94979064D01*
X191001371Y-95089531D01*
X191001365Y-95089535D01*
X190818222Y-95232081D01*
X190818219Y-95232084D01*
X190661016Y-95402852D01*
X190534075Y-95597151D01*
X190440842Y-95809699D01*
X190383866Y-96034691D01*
X190383864Y-96034702D01*
X190364700Y-96265993D01*
X190364700Y-96266006D01*
X182507300Y-96266006D01*
X182507300Y-96265993D01*
X182488135Y-96034702D01*
X182488133Y-96034691D01*
X182431157Y-95809699D01*
X182337924Y-95597151D01*
X182210983Y-95402852D01*
X182210980Y-95402849D01*
X182210979Y-95402847D01*
X182053784Y-95232087D01*
X182053779Y-95232083D01*
X182053777Y-95232081D01*
X181870634Y-95089535D01*
X181870628Y-95089531D01*
X181666504Y-94979064D01*
X181666495Y-94979061D01*
X181446984Y-94903702D01*
X181275281Y-94875050D01*
X181218049Y-94865500D01*
X180985951Y-94865500D01*
X180940164Y-94873140D01*
X180757015Y-94903702D01*
X180537504Y-94979061D01*
X180537495Y-94979064D01*
X180333371Y-95089531D01*
X180333365Y-95089535D01*
X180150222Y-95232081D01*
X180150219Y-95232084D01*
X179993016Y-95402852D01*
X179866075Y-95597151D01*
X179772842Y-95809699D01*
X179715866Y-96034691D01*
X179715864Y-96034702D01*
X179696700Y-96265993D01*
X179696700Y-96266006D01*
X134630925Y-96266006D01*
X134665331Y-96209861D01*
X134758696Y-95984457D01*
X134815651Y-95747219D01*
X134834792Y-95503999D01*
X134815651Y-95260780D01*
X134758696Y-95023542D01*
X134665331Y-94798138D01*
X134592058Y-94678568D01*
X134573813Y-94611122D01*
X134594929Y-94544520D01*
X134619524Y-94517595D01*
X134682845Y-94466081D01*
X134874312Y-94261069D01*
X135036081Y-94031896D01*
X135165136Y-93782830D01*
X135259075Y-93518511D01*
X135259076Y-93518504D01*
X135259078Y-93518499D01*
X135298009Y-93331151D01*
X135316148Y-93243862D01*
X135335291Y-92964000D01*
X135335291Y-92963993D01*
X135335291Y-92960312D01*
X135354976Y-92893273D01*
X135407780Y-92847518D01*
X135432108Y-92840076D01*
X135431984Y-92839584D01*
X135436955Y-92838325D01*
X135506110Y-92814583D01*
X135656476Y-92762963D01*
X135860599Y-92652497D01*
X136043757Y-92509940D01*
X136200952Y-92339180D01*
X136327897Y-92144876D01*
X136421130Y-91932327D01*
X136478107Y-91707332D01*
X136479212Y-91694000D01*
X136497273Y-91476033D01*
X136497273Y-91476020D01*
X136478108Y-91244729D01*
X136478106Y-91244718D01*
X136421130Y-91019726D01*
X136327897Y-90807178D01*
X136200956Y-90612879D01*
X136200953Y-90612876D01*
X136200952Y-90612874D01*
X136043757Y-90442114D01*
X136043752Y-90442110D01*
X136043750Y-90442108D01*
X135860607Y-90299562D01*
X135860601Y-90299558D01*
X135656477Y-90189091D01*
X135656468Y-90189088D01*
X135436957Y-90113729D01*
X135388987Y-90105724D01*
X135326102Y-90075272D01*
X135289663Y-90015657D01*
X135287995Y-90008660D01*
X135259075Y-89869489D01*
X135165136Y-89605170D01*
X135036081Y-89356104D01*
X134943895Y-89225507D01*
X134921317Y-89159388D01*
X134938070Y-89091557D01*
X134943896Y-89082491D01*
X134943897Y-89082490D01*
X135036081Y-88951896D01*
X135165136Y-88702830D01*
X135259075Y-88438511D01*
X135259076Y-88438504D01*
X135259078Y-88438499D01*
X135285571Y-88311005D01*
X135316148Y-88163862D01*
X135335291Y-87884000D01*
X135316148Y-87604138D01*
X135296443Y-87509315D01*
X135259078Y-87329500D01*
X135259073Y-87329483D01*
X135165136Y-87065171D01*
X135165136Y-87065170D01*
X135036081Y-86816104D01*
X134874312Y-86586931D01*
X134874307Y-86586925D01*
X134682845Y-86381919D01*
X134465242Y-86204886D01*
X134225566Y-86059136D01*
X133968276Y-85947380D01*
X133698166Y-85871698D01*
X133698162Y-85871697D01*
X133698161Y-85871697D01*
X133559209Y-85852598D01*
X133420259Y-85833500D01*
X133420258Y-85833500D01*
X133139742Y-85833500D01*
X133139741Y-85833500D01*
X132861839Y-85871697D01*
X132861833Y-85871698D01*
X132591723Y-85947380D01*
X132334433Y-86059136D01*
X132094757Y-86204886D01*
X131877154Y-86381919D01*
X131685692Y-86586925D01*
X131685692Y-86586926D01*
X131523919Y-86816103D01*
X131394863Y-87065171D01*
X131300926Y-87329483D01*
X131300921Y-87329500D01*
X131243852Y-87604135D01*
X131243851Y-87604137D01*
X131224709Y-87883999D01*
X131243851Y-88163862D01*
X131243852Y-88163864D01*
X131300921Y-88438499D01*
X131300926Y-88438516D01*
X131394863Y-88702828D01*
X131523919Y-88951896D01*
X131616103Y-89082490D01*
X131638682Y-89148611D01*
X131621929Y-89216443D01*
X131616104Y-89225507D01*
X131523918Y-89356104D01*
X131394863Y-89605171D01*
X131300926Y-89869483D01*
X131300921Y-89869500D01*
X131243852Y-90144135D01*
X131243851Y-90144137D01*
X131224709Y-90424000D01*
X131243851Y-90703862D01*
X131243852Y-90703864D01*
X131300921Y-90978499D01*
X131300926Y-90978516D01*
X131394863Y-91242828D01*
X131523919Y-91491896D01*
X131616103Y-91622490D01*
X131638682Y-91688611D01*
X131621929Y-91756443D01*
X131616104Y-91765507D01*
X131523918Y-91896104D01*
X131394863Y-92145171D01*
X131300926Y-92409483D01*
X131300921Y-92409500D01*
X131243852Y-92684135D01*
X131243851Y-92684137D01*
X131224709Y-92964000D01*
X117483300Y-92964000D01*
X117483300Y-92963993D01*
X117464135Y-92732702D01*
X117464133Y-92732691D01*
X117407157Y-92507699D01*
X117313924Y-92295151D01*
X117186983Y-92100852D01*
X117186980Y-92100849D01*
X117186979Y-92100847D01*
X117029784Y-91930087D01*
X117029779Y-91930083D01*
X117029777Y-91930081D01*
X116846634Y-91787535D01*
X116846628Y-91787531D01*
X116642504Y-91677064D01*
X116642495Y-91677061D01*
X116422984Y-91601702D01*
X116251281Y-91573050D01*
X116194049Y-91563500D01*
X115961951Y-91563500D01*
X115916164Y-91571140D01*
X115733015Y-91601702D01*
X115513504Y-91677061D01*
X115513495Y-91677064D01*
X115309371Y-91787531D01*
X115309365Y-91787535D01*
X115126222Y-91930081D01*
X115126219Y-91930084D01*
X114969016Y-92100852D01*
X114842075Y-92295151D01*
X114748842Y-92507699D01*
X114691866Y-92732691D01*
X114691864Y-92732702D01*
X114672700Y-92963993D01*
X114672700Y-92964006D01*
X110949111Y-92964006D01*
X110768634Y-92823535D01*
X110768628Y-92823531D01*
X110564504Y-92713064D01*
X110564495Y-92713061D01*
X110344984Y-92637702D01*
X110173281Y-92609050D01*
X110116049Y-92599500D01*
X109883951Y-92599500D01*
X109838164Y-92607140D01*
X109655015Y-92637702D01*
X109435504Y-92713061D01*
X109435495Y-92713064D01*
X109231371Y-92823531D01*
X109231365Y-92823535D01*
X109048222Y-92966081D01*
X109048219Y-92966084D01*
X108891016Y-93136852D01*
X108764075Y-93331151D01*
X108670842Y-93543699D01*
X108613866Y-93768691D01*
X108613864Y-93768702D01*
X108594700Y-93999993D01*
X108594700Y-94000006D01*
X105800500Y-94000006D01*
X105800500Y-83820006D01*
X112513700Y-83820006D01*
X112532864Y-84051297D01*
X112532866Y-84051308D01*
X112589842Y-84276300D01*
X112683075Y-84488848D01*
X112810016Y-84683147D01*
X112810019Y-84683151D01*
X112810021Y-84683153D01*
X112967216Y-84853913D01*
X112967219Y-84853915D01*
X112967222Y-84853918D01*
X113150365Y-84996464D01*
X113150371Y-84996468D01*
X113150374Y-84996470D01*
X113354497Y-85106936D01*
X113468487Y-85146068D01*
X113574015Y-85182297D01*
X113574017Y-85182297D01*
X113574019Y-85182298D01*
X113802951Y-85220500D01*
X113802952Y-85220500D01*
X114035048Y-85220500D01*
X114035049Y-85220500D01*
X114263981Y-85182298D01*
X114483503Y-85106936D01*
X114681092Y-85000006D01*
X179696700Y-85000006D01*
X179715864Y-85231297D01*
X179715866Y-85231308D01*
X179772842Y-85456300D01*
X179866075Y-85668848D01*
X179993016Y-85863147D01*
X179993019Y-85863151D01*
X179993021Y-85863153D01*
X180150216Y-86033913D01*
X180150219Y-86033915D01*
X180150222Y-86033918D01*
X180333365Y-86176464D01*
X180333371Y-86176468D01*
X180333374Y-86176470D01*
X180537497Y-86286936D01*
X180651487Y-86326068D01*
X180757015Y-86362297D01*
X180757017Y-86362297D01*
X180757019Y-86362298D01*
X180985951Y-86400500D01*
X180985952Y-86400500D01*
X181218048Y-86400500D01*
X181218049Y-86400500D01*
X181446981Y-86362298D01*
X181666503Y-86286936D01*
X181870626Y-86176470D01*
X182053784Y-86033913D01*
X182210979Y-85863153D01*
X182337924Y-85668849D01*
X182431157Y-85456300D01*
X182488134Y-85231305D01*
X182488135Y-85231297D01*
X182499843Y-85090006D01*
X190364700Y-85090006D01*
X190383864Y-85321297D01*
X190383866Y-85321308D01*
X190440842Y-85546300D01*
X190534075Y-85758848D01*
X190661016Y-85953147D01*
X190661019Y-85953151D01*
X190661021Y-85953153D01*
X190818216Y-86123913D01*
X190818219Y-86123915D01*
X190818222Y-86123918D01*
X191001365Y-86266464D01*
X191001371Y-86266468D01*
X191001374Y-86266470D01*
X191168860Y-86357109D01*
X191178446Y-86362297D01*
X191205497Y-86376936D01*
X191274137Y-86400500D01*
X191425015Y-86452297D01*
X191425017Y-86452297D01*
X191425019Y-86452298D01*
X191653951Y-86490500D01*
X191653952Y-86490500D01*
X191886048Y-86490500D01*
X191886049Y-86490500D01*
X192114981Y-86452298D01*
X192334503Y-86376936D01*
X192538626Y-86266470D01*
X192721784Y-86123913D01*
X192878979Y-85953153D01*
X193005924Y-85758849D01*
X193099157Y-85546300D01*
X193156134Y-85321305D01*
X193156135Y-85321297D01*
X193175300Y-85090006D01*
X193175300Y-85089993D01*
X193156135Y-84858702D01*
X193156133Y-84858691D01*
X193099157Y-84633699D01*
X193005924Y-84421151D01*
X192878983Y-84226852D01*
X192878980Y-84226849D01*
X192878979Y-84226847D01*
X192721784Y-84056087D01*
X192721779Y-84056083D01*
X192721777Y-84056081D01*
X192538634Y-83913535D01*
X192538628Y-83913531D01*
X192334504Y-83803064D01*
X192334495Y-83803061D01*
X192114984Y-83727702D01*
X191943281Y-83699050D01*
X191886049Y-83689500D01*
X191653951Y-83689500D01*
X191608164Y-83697140D01*
X191425015Y-83727702D01*
X191205504Y-83803061D01*
X191205495Y-83803064D01*
X191001371Y-83913531D01*
X191001365Y-83913535D01*
X190818222Y-84056081D01*
X190818219Y-84056084D01*
X190661016Y-84226852D01*
X190534075Y-84421151D01*
X190440842Y-84633699D01*
X190383866Y-84858691D01*
X190383864Y-84858702D01*
X190364700Y-85089993D01*
X190364700Y-85090006D01*
X182499843Y-85090006D01*
X182507300Y-85000006D01*
X182507300Y-84999993D01*
X182488135Y-84768702D01*
X182488133Y-84768691D01*
X182431157Y-84543699D01*
X182337924Y-84331151D01*
X182210983Y-84136852D01*
X182210980Y-84136849D01*
X182210979Y-84136847D01*
X182053784Y-83966087D01*
X182053779Y-83966083D01*
X182053777Y-83966081D01*
X181870634Y-83823535D01*
X181870628Y-83823531D01*
X181666504Y-83713064D01*
X181666495Y-83713061D01*
X181446984Y-83637702D01*
X181275281Y-83609050D01*
X181218049Y-83599500D01*
X180985951Y-83599500D01*
X180940164Y-83607140D01*
X180757015Y-83637702D01*
X180537504Y-83713061D01*
X180537495Y-83713064D01*
X180333371Y-83823531D01*
X180333365Y-83823535D01*
X180150222Y-83966081D01*
X180150219Y-83966084D01*
X179993016Y-84136852D01*
X179866075Y-84331151D01*
X179772842Y-84543699D01*
X179715866Y-84768691D01*
X179715864Y-84768702D01*
X179696700Y-84999993D01*
X179696700Y-85000006D01*
X114681092Y-85000006D01*
X114687626Y-84996470D01*
X114870784Y-84853913D01*
X115027979Y-84683153D01*
X115154924Y-84488849D01*
X115207934Y-84367997D01*
X115252890Y-84314512D01*
X115319626Y-84293822D01*
X115386954Y-84312496D01*
X115425299Y-84349987D01*
X115477016Y-84429147D01*
X115477019Y-84429151D01*
X115477021Y-84429153D01*
X115634216Y-84599913D01*
X115634219Y-84599915D01*
X115634222Y-84599918D01*
X115817365Y-84742464D01*
X115817371Y-84742468D01*
X115817374Y-84742470D01*
X116021497Y-84852936D01*
X116077999Y-84872333D01*
X116241015Y-84928297D01*
X116241017Y-84928297D01*
X116241019Y-84928298D01*
X116469951Y-84966500D01*
X116469952Y-84966500D01*
X116702048Y-84966500D01*
X116702049Y-84966500D01*
X116930981Y-84928298D01*
X117150503Y-84852936D01*
X117354626Y-84742470D01*
X117537784Y-84599913D01*
X117694979Y-84429153D01*
X117821924Y-84234849D01*
X117915157Y-84022300D01*
X117972134Y-83797305D01*
X117972135Y-83797297D01*
X117991300Y-83566006D01*
X124324700Y-83566006D01*
X124343864Y-83797297D01*
X124343866Y-83797308D01*
X124400842Y-84022300D01*
X124494075Y-84234848D01*
X124621016Y-84429147D01*
X124621019Y-84429151D01*
X124621021Y-84429153D01*
X124778216Y-84599913D01*
X124778219Y-84599915D01*
X124778222Y-84599918D01*
X124961365Y-84742464D01*
X124961371Y-84742468D01*
X124961374Y-84742470D01*
X125165497Y-84852936D01*
X125221999Y-84872333D01*
X125385015Y-84928297D01*
X125385017Y-84928297D01*
X125385019Y-84928298D01*
X125613951Y-84966500D01*
X125613952Y-84966500D01*
X125846048Y-84966500D01*
X125846049Y-84966500D01*
X126074981Y-84928298D01*
X126197738Y-84886154D01*
X126267533Y-84883005D01*
X126278261Y-84886155D01*
X126401015Y-84928297D01*
X126401017Y-84928297D01*
X126401019Y-84928298D01*
X126629951Y-84966500D01*
X126629952Y-84966500D01*
X126862048Y-84966500D01*
X126862049Y-84966500D01*
X127090981Y-84928298D01*
X127310503Y-84852936D01*
X127514626Y-84742470D01*
X127697784Y-84599913D01*
X127854979Y-84429153D01*
X127981924Y-84234849D01*
X128075157Y-84022300D01*
X128132134Y-83797305D01*
X128132135Y-83797297D01*
X128151300Y-83566006D01*
X128151300Y-83565993D01*
X128132135Y-83334702D01*
X128132133Y-83334691D01*
X128075157Y-83109699D01*
X127981924Y-82897151D01*
X127854983Y-82702852D01*
X127854980Y-82702849D01*
X127854979Y-82702847D01*
X127697784Y-82532087D01*
X127697779Y-82532083D01*
X127697777Y-82532081D01*
X127514634Y-82389535D01*
X127514628Y-82389531D01*
X127310504Y-82279064D01*
X127310495Y-82279061D01*
X127090984Y-82203702D01*
X126919281Y-82175050D01*
X126862049Y-82165500D01*
X126629951Y-82165500D01*
X126597246Y-82170957D01*
X126401013Y-82203702D01*
X126278262Y-82245843D01*
X126208464Y-82248993D01*
X126197738Y-82245843D01*
X126074986Y-82203702D01*
X125884204Y-82171867D01*
X125846049Y-82165500D01*
X125613951Y-82165500D01*
X125568164Y-82173140D01*
X125385015Y-82203702D01*
X125165504Y-82279061D01*
X125165495Y-82279064D01*
X124961371Y-82389531D01*
X124961365Y-82389535D01*
X124778222Y-82532081D01*
X124778219Y-82532084D01*
X124778216Y-82532086D01*
X124778216Y-82532087D01*
X124777317Y-82533064D01*
X124621016Y-82702852D01*
X124494075Y-82897151D01*
X124400842Y-83109699D01*
X124343866Y-83334691D01*
X124343864Y-83334702D01*
X124324700Y-83565993D01*
X124324700Y-83566006D01*
X117991300Y-83566006D01*
X117991300Y-83565993D01*
X117972135Y-83334702D01*
X117972133Y-83334691D01*
X117915157Y-83109699D01*
X117821924Y-82897151D01*
X117694983Y-82702852D01*
X117694980Y-82702849D01*
X117694979Y-82702847D01*
X117537784Y-82532087D01*
X117537779Y-82532083D01*
X117537777Y-82532081D01*
X117350579Y-82386379D01*
X117351742Y-82384884D01*
X117311714Y-82337972D01*
X117301321Y-82277081D01*
X117303910Y-82245843D01*
X117320800Y-82042000D01*
X117320800Y-82041993D01*
X117301635Y-81810702D01*
X117301633Y-81810691D01*
X117244657Y-81585699D01*
X117151424Y-81373151D01*
X117024483Y-81178852D01*
X117024480Y-81178849D01*
X117024479Y-81178847D01*
X116867284Y-81008087D01*
X116867279Y-81008083D01*
X116867277Y-81008081D01*
X116684134Y-80865535D01*
X116684128Y-80865531D01*
X116480004Y-80755064D01*
X116479995Y-80755061D01*
X116260484Y-80679702D01*
X116088782Y-80651050D01*
X116031549Y-80641500D01*
X115799451Y-80641500D01*
X115753664Y-80649140D01*
X115570515Y-80679702D01*
X115351004Y-80755061D01*
X115350995Y-80755064D01*
X115146871Y-80865531D01*
X115146865Y-80865535D01*
X114963722Y-81008081D01*
X114963719Y-81008084D01*
X114806516Y-81178852D01*
X114679575Y-81373151D01*
X114586342Y-81585699D01*
X114529366Y-81810691D01*
X114529364Y-81810702D01*
X114510200Y-82041993D01*
X114510200Y-82042006D01*
X114529364Y-82273297D01*
X114529366Y-82273308D01*
X114549527Y-82352919D01*
X114546902Y-82422739D01*
X114506946Y-82480056D01*
X114442345Y-82506673D01*
X114389059Y-82500640D01*
X114263986Y-82457702D01*
X114054459Y-82422739D01*
X114035049Y-82419500D01*
X113802951Y-82419500D01*
X113783541Y-82422739D01*
X113574015Y-82457702D01*
X113354504Y-82533061D01*
X113354495Y-82533064D01*
X113150371Y-82643531D01*
X113150365Y-82643535D01*
X112967222Y-82786081D01*
X112967219Y-82786084D01*
X112810016Y-82956852D01*
X112683075Y-83151151D01*
X112589842Y-83363699D01*
X112532866Y-83588691D01*
X112532864Y-83588702D01*
X112513700Y-83819993D01*
X112513700Y-83820006D01*
X105800500Y-83820006D01*
X105800500Y-79128772D01*
X134699500Y-79128772D01*
X134736151Y-79383696D01*
X134736154Y-79383706D01*
X134808714Y-79630822D01*
X134915696Y-79865080D01*
X134915709Y-79865103D01*
X135054939Y-80081749D01*
X135054943Y-80081755D01*
X135223601Y-80276398D01*
X135418244Y-80445056D01*
X135418250Y-80445060D01*
X135634896Y-80584290D01*
X135634919Y-80584303D01*
X135869177Y-80691285D01*
X135869181Y-80691286D01*
X135869183Y-80691287D01*
X136116299Y-80763847D01*
X136116300Y-80763847D01*
X136116303Y-80763848D01*
X136185351Y-80773775D01*
X136371226Y-80800500D01*
X136371229Y-80800500D01*
X139628771Y-80800500D01*
X139628774Y-80800500D01*
X139838013Y-80770415D01*
X139883696Y-80763848D01*
X139883697Y-80763847D01*
X139883701Y-80763847D01*
X140130817Y-80691287D01*
X140130820Y-80691285D01*
X140130822Y-80691285D01*
X140365080Y-80584303D01*
X140365084Y-80584300D01*
X140365092Y-80584297D01*
X140581756Y-80445056D01*
X140776398Y-80276398D01*
X140945056Y-80081756D01*
X141084297Y-79865092D01*
X141084300Y-79865084D01*
X141084303Y-79865080D01*
X141191285Y-79630822D01*
X141191285Y-79630820D01*
X141191287Y-79630817D01*
X141263847Y-79383701D01*
X141300500Y-79128774D01*
X141300500Y-79128772D01*
X172199500Y-79128772D01*
X172236151Y-79383696D01*
X172236154Y-79383706D01*
X172308714Y-79630822D01*
X172415696Y-79865080D01*
X172415709Y-79865103D01*
X172554939Y-80081749D01*
X172554943Y-80081755D01*
X172723601Y-80276398D01*
X172918244Y-80445056D01*
X172918250Y-80445060D01*
X173134896Y-80584290D01*
X173134919Y-80584303D01*
X173369177Y-80691285D01*
X173369181Y-80691286D01*
X173369183Y-80691287D01*
X173616299Y-80763847D01*
X173616300Y-80763847D01*
X173616303Y-80763848D01*
X173685351Y-80773775D01*
X173871226Y-80800500D01*
X173871229Y-80800500D01*
X177128771Y-80800500D01*
X177128774Y-80800500D01*
X177338013Y-80770415D01*
X177383696Y-80763848D01*
X177383697Y-80763847D01*
X177383701Y-80763847D01*
X177630817Y-80691287D01*
X177630820Y-80691285D01*
X177630822Y-80691285D01*
X177865080Y-80584303D01*
X177865084Y-80584300D01*
X177865092Y-80584297D01*
X178081756Y-80445056D01*
X178276398Y-80276398D01*
X178445056Y-80081756D01*
X178584297Y-79865092D01*
X178584300Y-79865084D01*
X178584303Y-79865080D01*
X178691285Y-79630822D01*
X178691285Y-79630820D01*
X178691287Y-79630817D01*
X178763847Y-79383701D01*
X178800500Y-79128774D01*
X178800500Y-78871226D01*
X178763847Y-78616299D01*
X178691287Y-78369183D01*
X178691286Y-78369181D01*
X178691285Y-78369177D01*
X178584303Y-78134919D01*
X178584290Y-78134896D01*
X178445060Y-77918250D01*
X178445056Y-77918244D01*
X178276398Y-77723601D01*
X178081755Y-77554943D01*
X178081749Y-77554939D01*
X177865103Y-77415709D01*
X177865080Y-77415696D01*
X177630822Y-77308714D01*
X177383706Y-77236154D01*
X177383696Y-77236151D01*
X177175502Y-77206218D01*
X177128774Y-77199500D01*
X177044954Y-77199500D01*
X174084136Y-77199500D01*
X174000000Y-77199500D01*
X173871226Y-77199500D01*
X173847861Y-77202859D01*
X173616303Y-77236151D01*
X173616293Y-77236154D01*
X173369177Y-77308714D01*
X173134919Y-77415696D01*
X173134896Y-77415709D01*
X172918250Y-77554939D01*
X172918244Y-77554943D01*
X172723601Y-77723601D01*
X172554943Y-77918244D01*
X172554939Y-77918250D01*
X172415709Y-78134896D01*
X172415696Y-78134919D01*
X172308714Y-78369177D01*
X172236154Y-78616293D01*
X172236151Y-78616303D01*
X172199500Y-78871227D01*
X172199500Y-79128772D01*
X141300500Y-79128772D01*
X141300500Y-78871226D01*
X141263847Y-78616299D01*
X141191287Y-78369183D01*
X141191286Y-78369181D01*
X141191285Y-78369177D01*
X141084303Y-78134919D01*
X141084290Y-78134896D01*
X140945060Y-77918250D01*
X140945056Y-77918244D01*
X140776398Y-77723601D01*
X140581755Y-77554943D01*
X140581749Y-77554939D01*
X140365103Y-77415709D01*
X140365080Y-77415696D01*
X140130822Y-77308714D01*
X139883706Y-77236154D01*
X139883696Y-77236151D01*
X139675502Y-77206218D01*
X139628774Y-77199500D01*
X139544954Y-77199500D01*
X136584136Y-77199500D01*
X136500000Y-77199500D01*
X136371226Y-77199500D01*
X136347861Y-77202859D01*
X136116303Y-77236151D01*
X136116293Y-77236154D01*
X135869177Y-77308714D01*
X135634919Y-77415696D01*
X135634896Y-77415709D01*
X135418250Y-77554939D01*
X135418244Y-77554943D01*
X135223601Y-77723601D01*
X135054943Y-77918244D01*
X135054939Y-77918250D01*
X134915709Y-78134896D01*
X134915696Y-78134919D01*
X134808714Y-78369177D01*
X134736154Y-78616293D01*
X134736151Y-78616303D01*
X134699500Y-78871227D01*
X134699500Y-79128772D01*
X105800500Y-79128772D01*
X105800500Y-76285055D01*
X109299500Y-76285055D01*
X109340210Y-76450226D01*
X109419263Y-76600849D01*
X109423810Y-76605981D01*
X109532071Y-76728183D01*
X109622318Y-76790476D01*
X109672068Y-76824817D01*
X109672069Y-76824817D01*
X109672070Y-76824818D01*
X109831128Y-76885140D01*
X109907028Y-76894356D01*
X109957626Y-76900500D01*
X109957628Y-76900500D01*
X110042374Y-76900500D01*
X110084538Y-76895380D01*
X110168872Y-76885140D01*
X110327930Y-76824818D01*
X110467929Y-76728183D01*
X110580734Y-76600852D01*
X110659790Y-76450225D01*
X110700500Y-76285056D01*
X110700500Y-76114944D01*
X110659790Y-75949775D01*
X110656873Y-75944217D01*
X110580736Y-75799150D01*
X110554864Y-75769947D01*
X110467929Y-75671817D01*
X110418177Y-75637475D01*
X110327931Y-75575182D01*
X110168874Y-75514860D01*
X110168868Y-75514859D01*
X110042374Y-75499500D01*
X110042372Y-75499500D01*
X109957628Y-75499500D01*
X109957626Y-75499500D01*
X109831131Y-75514859D01*
X109831125Y-75514860D01*
X109672068Y-75575182D01*
X109532072Y-75671816D01*
X109419263Y-75799150D01*
X109340210Y-75949773D01*
X109299500Y-76114944D01*
X109299500Y-76285055D01*
X105800500Y-76285055D01*
X105800500Y-74930000D01*
X130465174Y-74930000D01*
X130483796Y-75214122D01*
X130484858Y-75230316D01*
X130484860Y-75230328D01*
X130543571Y-75525490D01*
X130543576Y-75525510D01*
X130640310Y-75810480D01*
X130640314Y-75810490D01*
X130773422Y-76080405D01*
X130773426Y-76080413D01*
X130910164Y-76285056D01*
X130940633Y-76330655D01*
X131139069Y-76556930D01*
X131285436Y-76685289D01*
X131365346Y-76755368D01*
X131615587Y-76922574D01*
X131746578Y-76987171D01*
X131885509Y-77055685D01*
X131885519Y-77055689D01*
X132170489Y-77152423D01*
X132170493Y-77152424D01*
X132170502Y-77152427D01*
X132465682Y-77211142D01*
X132766000Y-77230826D01*
X133066318Y-77211142D01*
X133361498Y-77152427D01*
X133361510Y-77152423D01*
X133646480Y-77055689D01*
X133646490Y-77055685D01*
X133916413Y-76922574D01*
X134166654Y-76755368D01*
X134392930Y-76556930D01*
X134591368Y-76330654D01*
X134758574Y-76080413D01*
X134891686Y-75810488D01*
X134895536Y-75799148D01*
X134988423Y-75525510D01*
X134988423Y-75525509D01*
X134988427Y-75525498D01*
X135047142Y-75230318D01*
X135066826Y-74930004D01*
X178965566Y-74930004D01*
X178985673Y-75198331D01*
X178985674Y-75198336D01*
X179045550Y-75460673D01*
X179045556Y-75460692D01*
X179143865Y-75711179D01*
X179143864Y-75711179D01*
X179278411Y-75944219D01*
X179278418Y-75944230D01*
X179331568Y-76010876D01*
X179331569Y-76010877D01*
X179859922Y-75482524D01*
X179921245Y-75449039D01*
X179990936Y-75454023D01*
X180046870Y-75495894D01*
X180047901Y-75497292D01*
X180082725Y-75545223D01*
X180207469Y-75657544D01*
X180244117Y-75717030D01*
X180242786Y-75786887D01*
X180212177Y-75837374D01*
X179684158Y-76365392D01*
X179865782Y-76489221D01*
X179865790Y-76489226D01*
X180108222Y-76605974D01*
X180108241Y-76605981D01*
X180365353Y-76685289D01*
X180365363Y-76685291D01*
X180631447Y-76725399D01*
X180631453Y-76725400D01*
X180900547Y-76725400D01*
X180900552Y-76725399D01*
X181166636Y-76685291D01*
X181166646Y-76685289D01*
X181423758Y-76605981D01*
X181423777Y-76605974D01*
X181666209Y-76489226D01*
X181666210Y-76489225D01*
X181847840Y-76365392D01*
X181319821Y-75837374D01*
X181286336Y-75776051D01*
X181291320Y-75706360D01*
X181324527Y-75657546D01*
X181449275Y-75545223D01*
X181484079Y-75497319D01*
X181539407Y-75454654D01*
X181609020Y-75448675D01*
X181670815Y-75481280D01*
X181672077Y-75482524D01*
X182200429Y-76010877D01*
X182200429Y-76010876D01*
X182253590Y-75944217D01*
X182388134Y-75711179D01*
X182486443Y-75460692D01*
X182486449Y-75460673D01*
X182546325Y-75198336D01*
X182546326Y-75198331D01*
X182566434Y-74930004D01*
X182566434Y-74929995D01*
X182546326Y-74661668D01*
X182546325Y-74661663D01*
X182486449Y-74399326D01*
X182486443Y-74399307D01*
X182388134Y-74148820D01*
X182388135Y-74148820D01*
X182253588Y-73915780D01*
X182253581Y-73915769D01*
X182200430Y-73849122D01*
X182200429Y-73849121D01*
X181672077Y-74377474D01*
X181610754Y-74410959D01*
X181541062Y-74405975D01*
X181485129Y-74364103D01*
X181484079Y-74362679D01*
X181449278Y-74314780D01*
X181449275Y-74314777D01*
X181324528Y-74202454D01*
X181287881Y-74142968D01*
X181289212Y-74073111D01*
X181319821Y-74022624D01*
X181847840Y-73494606D01*
X181666217Y-73370778D01*
X181666209Y-73370773D01*
X181423777Y-73254025D01*
X181423758Y-73254018D01*
X181166646Y-73174710D01*
X181166636Y-73174708D01*
X180900552Y-73134600D01*
X180631447Y-73134600D01*
X180365363Y-73174708D01*
X180365353Y-73174710D01*
X180108241Y-73254018D01*
X180108222Y-73254025D01*
X179865788Y-73370775D01*
X179865775Y-73370782D01*
X179684158Y-73494606D01*
X180212178Y-74022625D01*
X180245663Y-74083948D01*
X180240679Y-74153639D01*
X180207470Y-74202454D01*
X180082725Y-74314777D01*
X180082723Y-74314779D01*
X180047920Y-74362681D01*
X179992590Y-74405346D01*
X179922976Y-74411324D01*
X179861182Y-74378717D01*
X179859922Y-74377475D01*
X179331568Y-73849121D01*
X179278414Y-73915775D01*
X179143865Y-74148820D01*
X179045556Y-74399307D01*
X179045550Y-74399326D01*
X178985674Y-74661663D01*
X178985673Y-74661668D01*
X178965566Y-74929995D01*
X178965566Y-74930004D01*
X135066826Y-74930004D01*
X135066826Y-74930000D01*
X135047142Y-74629682D01*
X134988427Y-74334502D01*
X134988423Y-74334489D01*
X134891689Y-74049519D01*
X134891685Y-74049509D01*
X134764032Y-73790655D01*
X134758574Y-73779587D01*
X134591368Y-73529346D01*
X134481635Y-73404219D01*
X134392930Y-73303069D01*
X134166655Y-73104633D01*
X133916418Y-72937429D01*
X133916415Y-72937427D01*
X133916413Y-72937426D01*
X133882480Y-72920692D01*
X133646490Y-72804314D01*
X133646480Y-72804310D01*
X133361510Y-72707576D01*
X133361490Y-72707571D01*
X133066328Y-72648860D01*
X133066318Y-72648858D01*
X132766000Y-72629174D01*
X132465682Y-72648858D01*
X132465676Y-72648859D01*
X132465671Y-72648860D01*
X132170509Y-72707571D01*
X132170489Y-72707576D01*
X131885519Y-72804310D01*
X131885509Y-72804314D01*
X131615594Y-72937422D01*
X131615581Y-72937429D01*
X131365344Y-73104633D01*
X131139069Y-73303069D01*
X130940633Y-73529344D01*
X130773429Y-73779581D01*
X130773422Y-73779594D01*
X130640314Y-74049509D01*
X130640310Y-74049519D01*
X130543576Y-74334489D01*
X130543571Y-74334509D01*
X130488291Y-74612423D01*
X130484858Y-74629682D01*
X130465174Y-74930000D01*
X105800500Y-74930000D01*
X105800500Y-71885055D01*
X109299500Y-71885055D01*
X109340210Y-72050226D01*
X109419263Y-72200849D01*
X109419266Y-72200852D01*
X109532071Y-72328183D01*
X109621621Y-72389995D01*
X109672068Y-72424817D01*
X109672069Y-72424817D01*
X109672070Y-72424818D01*
X109831128Y-72485140D01*
X109907028Y-72494356D01*
X109957626Y-72500500D01*
X109957628Y-72500500D01*
X110042374Y-72500500D01*
X110084538Y-72495380D01*
X110168872Y-72485140D01*
X110327930Y-72424818D01*
X110378372Y-72390000D01*
X122845174Y-72390000D01*
X122863796Y-72674122D01*
X122864858Y-72690316D01*
X122864860Y-72690328D01*
X122923571Y-72985490D01*
X122923576Y-72985510D01*
X123020310Y-73270480D01*
X123020314Y-73270490D01*
X123147967Y-73529344D01*
X123153426Y-73540413D01*
X123313237Y-73779587D01*
X123320633Y-73790655D01*
X123519069Y-74016930D01*
X123602451Y-74090053D01*
X123745346Y-74215368D01*
X123995587Y-74382574D01*
X124126578Y-74447171D01*
X124265509Y-74515685D01*
X124265519Y-74515689D01*
X124550489Y-74612423D01*
X124550493Y-74612424D01*
X124550502Y-74612427D01*
X124845682Y-74671142D01*
X125146000Y-74690826D01*
X125446318Y-74671142D01*
X125741498Y-74612427D01*
X125741510Y-74612423D01*
X126026480Y-74515689D01*
X126026490Y-74515685D01*
X126118560Y-74470281D01*
X126296413Y-74382574D01*
X126546654Y-74215368D01*
X126772930Y-74016930D01*
X126971368Y-73790654D01*
X127138574Y-73540413D01*
X127271686Y-73270488D01*
X127277275Y-73254025D01*
X127368423Y-72985510D01*
X127368423Y-72985509D01*
X127368427Y-72985498D01*
X127427142Y-72690318D01*
X127446826Y-72390004D01*
X186585566Y-72390004D01*
X186605673Y-72658331D01*
X186605674Y-72658336D01*
X186665550Y-72920673D01*
X186665556Y-72920692D01*
X186763865Y-73171179D01*
X186763864Y-73171179D01*
X186898411Y-73404219D01*
X186898418Y-73404230D01*
X186951568Y-73470876D01*
X186951569Y-73470877D01*
X187479922Y-72942524D01*
X187541245Y-72909039D01*
X187610936Y-72914023D01*
X187666870Y-72955894D01*
X187667901Y-72957292D01*
X187702725Y-73005223D01*
X187827469Y-73117544D01*
X187864117Y-73177030D01*
X187862786Y-73246887D01*
X187832177Y-73297374D01*
X187304158Y-73825392D01*
X187485782Y-73949221D01*
X187485790Y-73949226D01*
X187728222Y-74065974D01*
X187728241Y-74065981D01*
X187985353Y-74145289D01*
X187985363Y-74145291D01*
X188251447Y-74185399D01*
X188251453Y-74185400D01*
X188520547Y-74185400D01*
X188520552Y-74185399D01*
X188786636Y-74145291D01*
X188786646Y-74145289D01*
X189043758Y-74065981D01*
X189043777Y-74065974D01*
X189286209Y-73949226D01*
X189286210Y-73949225D01*
X189467840Y-73825392D01*
X188939821Y-73297374D01*
X188906336Y-73236051D01*
X188911320Y-73166360D01*
X188944527Y-73117546D01*
X189069275Y-73005223D01*
X189104079Y-72957319D01*
X189159407Y-72914654D01*
X189229020Y-72908675D01*
X189290815Y-72941280D01*
X189292077Y-72942524D01*
X189820429Y-73470877D01*
X189820429Y-73470876D01*
X189873590Y-73404217D01*
X190008134Y-73171179D01*
X190106443Y-72920692D01*
X190106449Y-72920673D01*
X190166325Y-72658336D01*
X190166326Y-72658331D01*
X190186434Y-72390004D01*
X190186434Y-72389995D01*
X190166326Y-72121668D01*
X190166325Y-72121663D01*
X190106449Y-71859326D01*
X190106443Y-71859307D01*
X190008134Y-71608820D01*
X190008135Y-71608820D01*
X189873588Y-71375780D01*
X189873581Y-71375769D01*
X189820430Y-71309122D01*
X189820429Y-71309121D01*
X189292077Y-71837474D01*
X189230754Y-71870959D01*
X189161062Y-71865975D01*
X189105129Y-71824103D01*
X189104079Y-71822679D01*
X189069278Y-71774780D01*
X189002824Y-71714944D01*
X188944528Y-71662454D01*
X188907881Y-71602968D01*
X188909212Y-71533111D01*
X188939821Y-71482624D01*
X189467840Y-70954606D01*
X189286217Y-70830778D01*
X189286209Y-70830773D01*
X189043777Y-70714025D01*
X189043758Y-70714018D01*
X188786646Y-70634710D01*
X188786636Y-70634708D01*
X188520552Y-70594600D01*
X188251447Y-70594600D01*
X187985363Y-70634708D01*
X187985353Y-70634710D01*
X187728241Y-70714018D01*
X187728222Y-70714025D01*
X187485788Y-70830775D01*
X187485775Y-70830782D01*
X187304158Y-70954606D01*
X187832178Y-71482625D01*
X187865663Y-71543948D01*
X187860679Y-71613639D01*
X187827470Y-71662454D01*
X187769176Y-71714944D01*
X187702723Y-71774779D01*
X187667920Y-71822681D01*
X187612590Y-71865346D01*
X187542976Y-71871324D01*
X187481182Y-71838717D01*
X187479922Y-71837475D01*
X186951568Y-71309121D01*
X186898414Y-71375775D01*
X186763865Y-71608820D01*
X186665556Y-71859307D01*
X186665550Y-71859326D01*
X186605674Y-72121663D01*
X186605673Y-72121668D01*
X186585566Y-72389995D01*
X186585566Y-72390004D01*
X127446826Y-72390004D01*
X127446826Y-72390000D01*
X127427142Y-72089682D01*
X127368427Y-71794502D01*
X127368423Y-71794489D01*
X127271689Y-71509519D01*
X127271685Y-71509509D01*
X127154468Y-71271817D01*
X127138574Y-71239587D01*
X126971368Y-70989346D01*
X126861635Y-70864219D01*
X126772930Y-70763069D01*
X126546655Y-70564633D01*
X126296418Y-70397429D01*
X126296415Y-70397427D01*
X126296413Y-70397426D01*
X126262480Y-70380692D01*
X126026490Y-70264314D01*
X126026480Y-70264310D01*
X125741510Y-70167576D01*
X125741490Y-70167571D01*
X125446328Y-70108860D01*
X125446318Y-70108858D01*
X125146000Y-70089174D01*
X124845682Y-70108858D01*
X124845676Y-70108859D01*
X124845671Y-70108860D01*
X124550509Y-70167571D01*
X124550489Y-70167576D01*
X124265519Y-70264310D01*
X124265509Y-70264314D01*
X123995594Y-70397422D01*
X123995581Y-70397429D01*
X123745344Y-70564633D01*
X123519069Y-70763069D01*
X123320633Y-70989344D01*
X123153429Y-71239581D01*
X123153422Y-71239594D01*
X123020314Y-71509509D01*
X123020310Y-71509519D01*
X122923576Y-71794489D01*
X122923571Y-71794509D01*
X122872706Y-72050225D01*
X122864858Y-72089682D01*
X122845174Y-72390000D01*
X110378372Y-72390000D01*
X110467929Y-72328183D01*
X110580734Y-72200852D01*
X110606991Y-72150825D01*
X110630581Y-72105878D01*
X110659790Y-72050225D01*
X110700500Y-71885056D01*
X110700500Y-71714944D01*
X110659790Y-71549775D01*
X110624547Y-71482625D01*
X110580736Y-71399150D01*
X110500977Y-71309121D01*
X110467929Y-71271817D01*
X110418177Y-71237475D01*
X110327931Y-71175182D01*
X110168874Y-71114860D01*
X110168868Y-71114859D01*
X110042374Y-71099500D01*
X110042372Y-71099500D01*
X109957628Y-71099500D01*
X109957626Y-71099500D01*
X109831131Y-71114859D01*
X109831125Y-71114860D01*
X109672068Y-71175182D01*
X109532072Y-71271816D01*
X109419263Y-71399150D01*
X109340210Y-71549773D01*
X109299500Y-71714944D01*
X109299500Y-71885055D01*
X105800500Y-71885055D01*
X105800500Y-69850000D01*
X130465174Y-69850000D01*
X130483796Y-70134122D01*
X130484858Y-70150316D01*
X130484860Y-70150328D01*
X130543571Y-70445490D01*
X130543576Y-70445510D01*
X130640310Y-70730480D01*
X130640314Y-70730490D01*
X130773422Y-71000405D01*
X130773429Y-71000418D01*
X130849897Y-71114860D01*
X130933237Y-71239587D01*
X130940633Y-71250655D01*
X131139069Y-71476930D01*
X131222134Y-71549775D01*
X131365346Y-71675368D01*
X131615587Y-71842574D01*
X131701730Y-71885055D01*
X131885509Y-71975685D01*
X131885519Y-71975689D01*
X132170489Y-72072423D01*
X132170493Y-72072424D01*
X132170502Y-72072427D01*
X132465682Y-72131142D01*
X132766000Y-72150826D01*
X133066318Y-72131142D01*
X133361498Y-72072427D01*
X133426903Y-72050225D01*
X133646480Y-71975689D01*
X133646490Y-71975685D01*
X133738560Y-71930281D01*
X133916413Y-71842574D01*
X134166654Y-71675368D01*
X134392930Y-71476930D01*
X134591368Y-71250654D01*
X134758574Y-71000413D01*
X134891686Y-70730488D01*
X134897275Y-70714025D01*
X134988423Y-70445510D01*
X134988423Y-70445509D01*
X134988427Y-70445498D01*
X135047142Y-70150318D01*
X135066826Y-69850004D01*
X178965566Y-69850004D01*
X178985673Y-70118331D01*
X178985674Y-70118336D01*
X179045550Y-70380673D01*
X179045556Y-70380692D01*
X179143865Y-70631179D01*
X179143864Y-70631179D01*
X179278411Y-70864219D01*
X179278418Y-70864230D01*
X179331568Y-70930876D01*
X179331569Y-70930877D01*
X179859922Y-70402524D01*
X179921245Y-70369039D01*
X179990936Y-70374023D01*
X180046870Y-70415894D01*
X180047901Y-70417292D01*
X180082725Y-70465223D01*
X180207469Y-70577544D01*
X180244117Y-70637030D01*
X180242786Y-70706887D01*
X180212177Y-70757374D01*
X179684158Y-71285392D01*
X179865782Y-71409221D01*
X179865790Y-71409226D01*
X180108222Y-71525974D01*
X180108241Y-71525981D01*
X180365353Y-71605289D01*
X180365363Y-71605291D01*
X180631447Y-71645399D01*
X180631453Y-71645400D01*
X180900547Y-71645400D01*
X180900552Y-71645399D01*
X181166636Y-71605291D01*
X181166646Y-71605289D01*
X181423758Y-71525981D01*
X181423777Y-71525974D01*
X181666209Y-71409226D01*
X181666210Y-71409225D01*
X181847840Y-71285392D01*
X181319821Y-70757374D01*
X181286336Y-70696051D01*
X181291320Y-70626360D01*
X181324527Y-70577546D01*
X181449275Y-70465223D01*
X181484079Y-70417319D01*
X181539407Y-70374654D01*
X181609020Y-70368675D01*
X181670815Y-70401280D01*
X181672077Y-70402524D01*
X182200429Y-70930877D01*
X182200429Y-70930876D01*
X182253590Y-70864217D01*
X182388134Y-70631179D01*
X182486443Y-70380692D01*
X182486449Y-70380673D01*
X182546325Y-70118336D01*
X182546326Y-70118331D01*
X182566434Y-69850004D01*
X182566434Y-69849995D01*
X182546326Y-69581668D01*
X182546325Y-69581663D01*
X182486449Y-69319326D01*
X182486443Y-69319307D01*
X182388134Y-69068820D01*
X182388135Y-69068820D01*
X182253588Y-68835780D01*
X182253581Y-68835769D01*
X182200430Y-68769122D01*
X182200429Y-68769121D01*
X181672077Y-69297474D01*
X181610754Y-69330959D01*
X181541062Y-69325975D01*
X181485129Y-69284103D01*
X181484079Y-69282679D01*
X181449278Y-69234780D01*
X181324529Y-69122455D01*
X181287881Y-69062968D01*
X181289212Y-68993111D01*
X181319821Y-68942624D01*
X181847840Y-68414606D01*
X181666217Y-68290778D01*
X181666209Y-68290773D01*
X181423777Y-68174025D01*
X181423758Y-68174018D01*
X181166646Y-68094710D01*
X181166636Y-68094708D01*
X180900552Y-68054600D01*
X180631447Y-68054600D01*
X180365363Y-68094708D01*
X180365353Y-68094710D01*
X180108241Y-68174018D01*
X180108222Y-68174025D01*
X179865788Y-68290775D01*
X179865775Y-68290782D01*
X179684158Y-68414606D01*
X180212178Y-68942625D01*
X180245663Y-69003948D01*
X180240679Y-69073639D01*
X180207470Y-69122456D01*
X180082723Y-69234779D01*
X180047920Y-69282681D01*
X179992590Y-69325346D01*
X179922976Y-69331324D01*
X179861182Y-69298717D01*
X179859922Y-69297475D01*
X179331568Y-68769121D01*
X179278414Y-68835775D01*
X179143865Y-69068820D01*
X179045556Y-69319307D01*
X179045550Y-69319326D01*
X178985674Y-69581663D01*
X178985673Y-69581668D01*
X178965566Y-69849995D01*
X178965566Y-69850004D01*
X135066826Y-69850004D01*
X135066826Y-69850000D01*
X135047142Y-69549682D01*
X134988427Y-69254502D01*
X134988423Y-69254489D01*
X134891689Y-68969519D01*
X134891685Y-68969509D01*
X134758577Y-68699594D01*
X134758574Y-68699587D01*
X134591368Y-68449346D01*
X134452312Y-68290782D01*
X134392930Y-68223069D01*
X134166655Y-68024633D01*
X133916418Y-67857429D01*
X133916415Y-67857427D01*
X133916413Y-67857426D01*
X133916405Y-67857422D01*
X133646490Y-67724314D01*
X133646480Y-67724310D01*
X133361510Y-67627576D01*
X133361490Y-67627571D01*
X133066328Y-67568860D01*
X133066318Y-67568858D01*
X132766000Y-67549174D01*
X132465682Y-67568858D01*
X132465676Y-67568859D01*
X132465671Y-67568860D01*
X132170509Y-67627571D01*
X132170489Y-67627576D01*
X131885519Y-67724310D01*
X131885509Y-67724314D01*
X131615594Y-67857422D01*
X131615581Y-67857429D01*
X131365344Y-68024633D01*
X131139069Y-68223069D01*
X130940633Y-68449344D01*
X130773429Y-68699581D01*
X130773422Y-68699594D01*
X130640314Y-68969509D01*
X130640310Y-68969519D01*
X130543576Y-69254489D01*
X130543571Y-69254509D01*
X130484860Y-69549671D01*
X130484858Y-69549682D01*
X130465174Y-69850000D01*
X105800500Y-69850000D01*
X105800500Y-65628772D01*
X134699500Y-65628772D01*
X134736151Y-65883696D01*
X134736154Y-65883706D01*
X134808714Y-66130822D01*
X134915696Y-66365080D01*
X134915709Y-66365103D01*
X135054939Y-66581749D01*
X135054943Y-66581755D01*
X135223601Y-66776398D01*
X135418244Y-66945056D01*
X135418250Y-66945060D01*
X135634896Y-67084290D01*
X135634919Y-67084303D01*
X135869177Y-67191285D01*
X135869181Y-67191286D01*
X135869183Y-67191287D01*
X136116299Y-67263847D01*
X136116300Y-67263847D01*
X136116303Y-67263848D01*
X136185351Y-67273775D01*
X136371226Y-67300500D01*
X136371229Y-67300500D01*
X139628771Y-67300500D01*
X139628774Y-67300500D01*
X139838013Y-67270415D01*
X139883696Y-67263848D01*
X139883697Y-67263847D01*
X139883701Y-67263847D01*
X140130817Y-67191287D01*
X140130820Y-67191285D01*
X140130822Y-67191285D01*
X140365080Y-67084303D01*
X140365084Y-67084300D01*
X140365092Y-67084297D01*
X140581756Y-66945056D01*
X140776398Y-66776398D01*
X140945056Y-66581756D01*
X141084297Y-66365092D01*
X141084300Y-66365084D01*
X141084303Y-66365080D01*
X141191285Y-66130822D01*
X141191285Y-66130820D01*
X141191287Y-66130817D01*
X141263847Y-65883701D01*
X141300500Y-65628774D01*
X141300500Y-65628772D01*
X172199500Y-65628772D01*
X172236151Y-65883696D01*
X172236154Y-65883706D01*
X172308714Y-66130822D01*
X172415696Y-66365080D01*
X172415709Y-66365103D01*
X172554939Y-66581749D01*
X172554943Y-66581755D01*
X172723601Y-66776398D01*
X172918244Y-66945056D01*
X172918250Y-66945060D01*
X173134896Y-67084290D01*
X173134919Y-67084303D01*
X173369177Y-67191285D01*
X173369181Y-67191286D01*
X173369183Y-67191287D01*
X173616299Y-67263847D01*
X173616300Y-67263847D01*
X173616303Y-67263848D01*
X173685351Y-67273775D01*
X173871226Y-67300500D01*
X173871229Y-67300500D01*
X177128771Y-67300500D01*
X177128774Y-67300500D01*
X177338013Y-67270415D01*
X177383696Y-67263848D01*
X177383697Y-67263847D01*
X177383701Y-67263847D01*
X177630817Y-67191287D01*
X177630820Y-67191285D01*
X177630822Y-67191285D01*
X177865080Y-67084303D01*
X177865084Y-67084300D01*
X177865092Y-67084297D01*
X178081756Y-66945056D01*
X178276398Y-66776398D01*
X178445056Y-66581756D01*
X178584297Y-66365092D01*
X178584300Y-66365084D01*
X178584303Y-66365080D01*
X178691285Y-66130822D01*
X178691285Y-66130820D01*
X178691287Y-66130817D01*
X178763847Y-65883701D01*
X178800500Y-65628774D01*
X178800500Y-65371226D01*
X178763847Y-65116299D01*
X178691287Y-64869183D01*
X178691286Y-64869181D01*
X178691285Y-64869177D01*
X178584303Y-64634919D01*
X178584290Y-64634896D01*
X178445060Y-64418250D01*
X178445056Y-64418244D01*
X178276398Y-64223601D01*
X178081755Y-64054943D01*
X178081749Y-64054939D01*
X177865103Y-63915709D01*
X177865080Y-63915696D01*
X177630822Y-63808714D01*
X177383706Y-63736154D01*
X177383696Y-63736151D01*
X177175502Y-63706218D01*
X177128774Y-63699500D01*
X177044954Y-63699500D01*
X174084136Y-63699500D01*
X174000000Y-63699500D01*
X173871226Y-63699500D01*
X173847861Y-63702859D01*
X173616303Y-63736151D01*
X173616293Y-63736154D01*
X173369177Y-63808714D01*
X173134919Y-63915696D01*
X173134896Y-63915709D01*
X172918250Y-64054939D01*
X172918244Y-64054943D01*
X172723601Y-64223601D01*
X172554943Y-64418244D01*
X172554939Y-64418250D01*
X172415709Y-64634896D01*
X172415696Y-64634919D01*
X172308714Y-64869177D01*
X172236154Y-65116293D01*
X172236151Y-65116303D01*
X172199500Y-65371227D01*
X172199500Y-65628772D01*
X141300500Y-65628772D01*
X141300500Y-65371226D01*
X141263847Y-65116299D01*
X141191287Y-64869183D01*
X141191286Y-64869181D01*
X141191285Y-64869177D01*
X141084303Y-64634919D01*
X141084290Y-64634896D01*
X140945060Y-64418250D01*
X140945056Y-64418244D01*
X140776398Y-64223601D01*
X140581755Y-64054943D01*
X140581749Y-64054939D01*
X140365103Y-63915709D01*
X140365080Y-63915696D01*
X140130822Y-63808714D01*
X139883706Y-63736154D01*
X139883696Y-63736151D01*
X139675502Y-63706218D01*
X139628774Y-63699500D01*
X139544954Y-63699500D01*
X136584136Y-63699500D01*
X136500000Y-63699500D01*
X136371226Y-63699500D01*
X136347861Y-63702859D01*
X136116303Y-63736151D01*
X136116293Y-63736154D01*
X135869177Y-63808714D01*
X135634919Y-63915696D01*
X135634896Y-63915709D01*
X135418250Y-64054939D01*
X135418244Y-64054943D01*
X135223601Y-64223601D01*
X135054943Y-64418244D01*
X135054939Y-64418250D01*
X134915709Y-64634896D01*
X134915696Y-64634919D01*
X134808714Y-64869177D01*
X134736154Y-65116293D01*
X134736151Y-65116303D01*
X134699500Y-65371227D01*
X134699500Y-65628772D01*
X105800500Y-65628772D01*
X105800500Y-65001439D01*
X105800566Y-64998575D01*
X105818282Y-64615381D01*
X105818808Y-64609690D01*
X105871609Y-64231171D01*
X105872658Y-64225560D01*
X105960159Y-63853528D01*
X105961719Y-63848047D01*
X106083178Y-63485665D01*
X106085229Y-63480370D01*
X106239614Y-63130721D01*
X106242145Y-63125638D01*
X106428119Y-62791748D01*
X106431131Y-62786886D01*
X106647111Y-62471594D01*
X106650549Y-62467041D01*
X106894706Y-62173013D01*
X106898554Y-62168792D01*
X107168792Y-61898554D01*
X107173015Y-61894705D01*
X107317256Y-61774929D01*
X107467041Y-61650549D01*
X107471594Y-61647111D01*
X107786886Y-61431130D01*
X107791748Y-61428119D01*
X108125638Y-61242145D01*
X108130721Y-61239614D01*
X108480370Y-61085229D01*
X108485665Y-61083178D01*
X108848047Y-60961719D01*
X108853528Y-60960159D01*
X109225560Y-60872658D01*
X109231171Y-60871609D01*
X109609690Y-60818808D01*
X109615381Y-60818282D01*
X109998576Y-60800566D01*
X110001440Y-60800500D01*
X110084136Y-60800500D01*
X189915864Y-60800500D01*
X189998560Y-60800500D01*
X190001424Y-60800566D01*
G37*
%TD.AperFunction*%
%TD*%
M02*
