%TF.GenerationSoftware,KiCad,Pcbnew,7.0.7*%
%TF.CreationDate,2023-09-10T20:13:10+02:00*%
%TF.ProjectId,Riddle_PCB,52696464-6c65-45f5-9043-422e6b696361,rev?*%
%TF.SameCoordinates,Original*%
%TF.FileFunction,Copper,L2,Inr*%
%TF.FilePolarity,Positive*%
%FSLAX46Y46*%
G04 Gerber Fmt 4.6, Leading zero omitted, Abs format (unit mm)*
G04 Created by KiCad (PCBNEW 7.0.7) date 2023-09-10 20:13:10*
%MOMM*%
%LPD*%
G01*
G04 APERTURE LIST*
%TA.AperFunction,ComponentPad*%
%ADD10C,2.590800*%
%TD*%
%TA.AperFunction,ComponentPad*%
%ADD11C,2.100000*%
%TD*%
%TA.AperFunction,ComponentPad*%
%ADD12R,1.700000X1.700000*%
%TD*%
%TA.AperFunction,ComponentPad*%
%ADD13O,1.700000X1.700000*%
%TD*%
%TA.AperFunction,ViaPad*%
%ADD14C,0.800000*%
%TD*%
G04 APERTURE END LIST*
D10*
%TO.N,/Powersupply/Bat_pos*%
%TO.C,POS*%
X132766000Y-74930000D03*
X132766000Y-69850000D03*
X125146000Y-72390000D03*
%TD*%
%TO.N,GND*%
%TO.C,NEG*%
X180766000Y-69850000D03*
X180766000Y-74930000D03*
X188386000Y-72390000D03*
%TD*%
D11*
%TO.N,/SDA*%
%TO.C,DISPLAY*%
X133280000Y-87884000D03*
%TO.N,/SCL*%
X133280000Y-90424000D03*
%TO.N,/3V3*%
X133280000Y-92964000D03*
%TO.N,GND*%
X133280000Y-95504000D03*
%TD*%
D12*
%TO.N,/Microcontroller/MISO*%
%TO.C,PRG*%
X125730000Y-102616000D03*
D13*
%TO.N,/3V3*%
X128270000Y-102616000D03*
%TO.N,/Microcontroller/SCK*%
X125730000Y-105156000D03*
%TO.N,/Microcontroller/MOSI*%
X128270000Y-105156000D03*
%TO.N,/Microcontroller/RESET*%
X125730000Y-107696000D03*
%TO.N,GND*%
X128270000Y-107696000D03*
%TD*%
D14*
%TO.N,GND*%
X117637662Y-62849500D03*
X113000000Y-62000000D03*
X130500000Y-76500000D03*
X132000000Y-79500000D03*
X132000000Y-81000000D03*
X146500000Y-108000000D03*
X137000000Y-107000000D03*
X130500000Y-107500000D03*
X108000000Y-102500000D03*
X107000000Y-81000000D03*
X112500000Y-81000000D03*
X120000000Y-83500000D03*
X188500000Y-64500000D03*
X180500000Y-64500000D03*
X188500000Y-80000000D03*
X180500000Y-80000000D03*
X183500000Y-96500000D03*
X183500000Y-107500000D03*
X172500000Y-95500000D03*
%TO.N,/Microcontroller/MISO*%
X117602000Y-107250500D03*
%TO.N,/Microcontroller/SCK*%
X117602000Y-105228500D03*
%TO.N,/Microcontroller/MOSI*%
X117602000Y-106228003D03*
%TO.N,GND*%
X172974000Y-106680000D03*
%TO.N,/SW4*%
X117860055Y-114881755D03*
%TO.N,/SW3*%
X118807457Y-114182255D03*
%TO.N,/SW2*%
X117856000Y-113482755D03*
%TO.N,/SW1*%
X119126000Y-112776000D03*
%TO.N,/SW4*%
X113030000Y-103632000D03*
%TO.N,/SW3*%
X113030000Y-102362000D03*
%TO.N,/SW2*%
X118142810Y-102142810D03*
%TO.N,/SW1*%
X119126000Y-99060000D03*
%TO.N,/3V3*%
X191770000Y-96266000D03*
X181102000Y-96266000D03*
X181102000Y-85000000D03*
X191770000Y-85090000D03*
%TO.N,/SDA*%
X135091973Y-91476027D03*
X124206000Y-112014000D03*
X127762000Y-112268000D03*
X146304000Y-103632000D03*
%TO.N,/SCL*%
X154940000Y-104902000D03*
%TO.N,/3V3*%
X127508000Y-110490000D03*
X122174000Y-112776000D03*
%TO.N,GND*%
X117094000Y-102362000D03*
X119634000Y-97790000D03*
X118618000Y-94488000D03*
X119888000Y-100330000D03*
%TO.N,/3V3*%
X116586000Y-83566000D03*
X152400000Y-107188000D03*
%TO.N,GND*%
X113792000Y-94234000D03*
X112014000Y-94234000D03*
%TO.N,/3V3*%
X112522000Y-112776000D03*
X122682000Y-106934000D03*
%TO.N,/Microcontroller/RESET*%
X116000000Y-103500000D03*
X110000000Y-94000000D03*
%TO.N,/3V3*%
X116078000Y-92964000D03*
%TO.N,Net-(U7-VCC)*%
X152400000Y-103886000D03*
%TO.N,GND*%
X152400000Y-105664000D03*
%TO.N,/3V3*%
X149860000Y-100584000D03*
%TO.N,GND*%
X165246000Y-111834756D03*
%TO.N,/3V3*%
X169056000Y-104442000D03*
%TO.N,Net-(U8-SDO{slash}AD0)*%
X166768584Y-106499340D03*
%TO.N,Net-(U8-REGOUT)*%
X165754000Y-106474000D03*
%TO.N,GND*%
X134112000Y-108712000D03*
X141732000Y-106680000D03*
%TO.N,/analog_temp*%
X117348000Y-110744000D03*
X132334000Y-103632000D03*
%TO.N,GND*%
X163468000Y-111046000D03*
X161944000Y-111046000D03*
%TO.N,/3V3*%
X160166000Y-107897500D03*
X143256000Y-103632000D03*
X125730000Y-83566000D03*
X126746000Y-83566000D03*
%TO.N,Net-(J4-D-)*%
X113919000Y-83820000D03*
X115915500Y-82042000D03*
%TO.N,GND*%
X109728000Y-78740000D03*
X109728000Y-69342000D03*
%TD*%
%TA.AperFunction,Conductor*%
%TO.N,/3V3*%
G36*
X190001424Y-60800566D02*
G01*
X190384618Y-60818282D01*
X190390311Y-60818808D01*
X190768824Y-60871609D01*
X190774443Y-60872659D01*
X191146465Y-60960158D01*
X191151957Y-60961721D01*
X191514326Y-61083175D01*
X191519636Y-61085232D01*
X191869269Y-61239610D01*
X191874369Y-61242149D01*
X192168852Y-61406175D01*
X192208242Y-61428115D01*
X192213113Y-61431131D01*
X192528396Y-61647105D01*
X192532969Y-61650558D01*
X192826984Y-61894705D01*
X192831218Y-61898565D01*
X193101434Y-62168781D01*
X193105294Y-62173015D01*
X193349441Y-62467030D01*
X193352894Y-62471603D01*
X193568868Y-62786886D01*
X193571884Y-62791757D01*
X193757844Y-63125619D01*
X193760393Y-63130739D01*
X193914762Y-63480352D01*
X193916826Y-63485679D01*
X194038276Y-63848035D01*
X194039844Y-63853546D01*
X194127338Y-64225548D01*
X194128391Y-64231180D01*
X194181189Y-64609675D01*
X194181717Y-64615380D01*
X194199434Y-64998575D01*
X194199500Y-65001439D01*
X194199500Y-111998560D01*
X194199434Y-112001424D01*
X194181717Y-112384619D01*
X194181189Y-112390324D01*
X194128391Y-112768819D01*
X194127338Y-112774451D01*
X194039844Y-113146453D01*
X194038276Y-113151964D01*
X193916826Y-113514320D01*
X193914759Y-113519655D01*
X193784804Y-113813977D01*
X193760398Y-113869251D01*
X193757844Y-113874380D01*
X193571884Y-114208242D01*
X193568868Y-114213113D01*
X193352894Y-114528396D01*
X193349441Y-114532969D01*
X193105294Y-114826984D01*
X193101434Y-114831218D01*
X192831218Y-115101434D01*
X192826984Y-115105294D01*
X192532969Y-115349441D01*
X192528396Y-115352894D01*
X192213113Y-115568868D01*
X192208242Y-115571884D01*
X191874380Y-115757844D01*
X191869252Y-115760397D01*
X191519655Y-115914759D01*
X191514320Y-115916826D01*
X191151964Y-116038276D01*
X191146453Y-116039844D01*
X190774451Y-116127338D01*
X190768819Y-116128391D01*
X190390324Y-116181189D01*
X190384619Y-116181717D01*
X190001424Y-116199434D01*
X189998560Y-116199500D01*
X110001440Y-116199500D01*
X109998576Y-116199434D01*
X109615380Y-116181717D01*
X109609675Y-116181189D01*
X109231180Y-116128391D01*
X109225548Y-116127338D01*
X108853546Y-116039844D01*
X108848035Y-116038276D01*
X108485679Y-115916826D01*
X108480352Y-115914762D01*
X108130739Y-115760393D01*
X108125619Y-115757844D01*
X107791757Y-115571884D01*
X107786886Y-115568868D01*
X107471603Y-115352894D01*
X107467030Y-115349441D01*
X107173015Y-115105294D01*
X107168781Y-115101434D01*
X106898565Y-114831218D01*
X106894705Y-114826984D01*
X106650558Y-114532969D01*
X106647105Y-114528396D01*
X106431131Y-114213113D01*
X106428115Y-114208242D01*
X106317250Y-114009201D01*
X106242149Y-113874369D01*
X106239610Y-113869269D01*
X106085232Y-113519636D01*
X106083173Y-113514320D01*
X106072593Y-113482755D01*
X116950540Y-113482755D01*
X116970326Y-113671011D01*
X116970327Y-113671014D01*
X117028818Y-113851032D01*
X117028821Y-113851039D01*
X117123467Y-114014971D01*
X117201409Y-114101534D01*
X117231639Y-114164525D01*
X117223014Y-114233860D01*
X117201410Y-114267478D01*
X117127519Y-114349542D01*
X117032876Y-114513470D01*
X117032873Y-114513477D01*
X116974382Y-114693495D01*
X116974381Y-114693499D01*
X116954595Y-114881755D01*
X116974381Y-115070011D01*
X116974382Y-115070014D01*
X117032873Y-115250032D01*
X117032876Y-115250039D01*
X117127522Y-115413971D01*
X117254184Y-115554642D01*
X117254184Y-115554643D01*
X117407320Y-115665903D01*
X117407325Y-115665906D01*
X117580247Y-115742897D01*
X117580252Y-115742899D01*
X117765409Y-115782255D01*
X117765410Y-115782255D01*
X117954699Y-115782255D01*
X117954701Y-115782255D01*
X118139858Y-115742899D01*
X118312785Y-115665906D01*
X118465926Y-115554643D01*
X118592588Y-115413971D01*
X118687234Y-115250039D01*
X118713748Y-115168436D01*
X118753185Y-115110762D01*
X118817544Y-115083563D01*
X118831679Y-115082755D01*
X118902101Y-115082755D01*
X118902103Y-115082755D01*
X119087260Y-115043399D01*
X119260187Y-114966406D01*
X119413328Y-114855143D01*
X119539990Y-114714471D01*
X119634636Y-114550539D01*
X119693131Y-114370511D01*
X119712917Y-114182255D01*
X119693131Y-113993999D01*
X119634636Y-113813971D01*
X119570701Y-113703233D01*
X119554229Y-113635334D01*
X119577082Y-113569307D01*
X119605198Y-113540920D01*
X119731871Y-113448888D01*
X119858533Y-113308216D01*
X119953179Y-113144284D01*
X120011674Y-112964256D01*
X120031460Y-112776000D01*
X120011674Y-112587744D01*
X119953179Y-112407716D01*
X119858533Y-112243784D01*
X119731871Y-112103112D01*
X119699708Y-112079744D01*
X119609219Y-112014000D01*
X123300540Y-112014000D01*
X123320326Y-112202256D01*
X123320327Y-112202259D01*
X123378818Y-112382277D01*
X123378821Y-112382284D01*
X123473467Y-112546216D01*
X123596000Y-112682302D01*
X123600129Y-112686888D01*
X123753265Y-112798148D01*
X123753270Y-112798151D01*
X123926192Y-112875142D01*
X123926197Y-112875144D01*
X124111354Y-112914500D01*
X124111355Y-112914500D01*
X124300644Y-112914500D01*
X124300646Y-112914500D01*
X124485803Y-112875144D01*
X124658730Y-112798151D01*
X124811871Y-112686888D01*
X124938533Y-112546216D01*
X125033179Y-112382284D01*
X125070312Y-112268000D01*
X126856540Y-112268000D01*
X126876326Y-112456256D01*
X126876327Y-112456259D01*
X126934818Y-112636277D01*
X126934821Y-112636284D01*
X127029467Y-112800216D01*
X127096931Y-112875142D01*
X127156129Y-112940888D01*
X127309265Y-113052148D01*
X127309270Y-113052151D01*
X127482192Y-113129142D01*
X127482197Y-113129144D01*
X127667354Y-113168500D01*
X127667355Y-113168500D01*
X127856644Y-113168500D01*
X127856646Y-113168500D01*
X128041803Y-113129144D01*
X128214730Y-113052151D01*
X128367871Y-112940888D01*
X128494533Y-112800216D01*
X128589179Y-112636284D01*
X128647674Y-112456256D01*
X128667460Y-112268000D01*
X128647674Y-112079744D01*
X128589179Y-111899716D01*
X128494533Y-111735784D01*
X128367871Y-111595112D01*
X128344613Y-111578214D01*
X128214734Y-111483851D01*
X128214729Y-111483848D01*
X128041807Y-111406857D01*
X128041802Y-111406855D01*
X127896000Y-111375865D01*
X127856646Y-111367500D01*
X127667354Y-111367500D01*
X127634897Y-111374398D01*
X127482197Y-111406855D01*
X127482192Y-111406857D01*
X127309270Y-111483848D01*
X127309265Y-111483851D01*
X127156129Y-111595111D01*
X127029466Y-111735785D01*
X126934821Y-111899715D01*
X126934818Y-111899722D01*
X126894759Y-112023012D01*
X126876326Y-112079744D01*
X126856540Y-112268000D01*
X125070312Y-112268000D01*
X125091674Y-112202256D01*
X125111460Y-112014000D01*
X125091674Y-111825744D01*
X125033179Y-111645716D01*
X124938533Y-111481784D01*
X124811871Y-111341112D01*
X124800216Y-111332644D01*
X124658734Y-111229851D01*
X124658729Y-111229848D01*
X124485807Y-111152857D01*
X124485802Y-111152855D01*
X124340000Y-111121865D01*
X124300646Y-111113500D01*
X124111354Y-111113500D01*
X124078897Y-111120398D01*
X123926197Y-111152855D01*
X123926192Y-111152857D01*
X123753270Y-111229848D01*
X123753265Y-111229851D01*
X123600129Y-111341111D01*
X123473466Y-111481785D01*
X123378821Y-111645715D01*
X123378818Y-111645722D01*
X123345648Y-111747810D01*
X123320326Y-111825744D01*
X123300540Y-112014000D01*
X119609219Y-112014000D01*
X119578734Y-111991851D01*
X119578729Y-111991848D01*
X119405807Y-111914857D01*
X119405802Y-111914855D01*
X119260000Y-111883865D01*
X119220646Y-111875500D01*
X119031354Y-111875500D01*
X118998897Y-111882398D01*
X118846197Y-111914855D01*
X118846192Y-111914857D01*
X118673270Y-111991848D01*
X118673265Y-111991851D01*
X118520129Y-112103111D01*
X118393466Y-112243785D01*
X118298821Y-112407715D01*
X118298818Y-112407722D01*
X118257782Y-112534019D01*
X118218344Y-112591695D01*
X118153986Y-112618893D01*
X118114071Y-112616991D01*
X117950647Y-112582255D01*
X117950646Y-112582255D01*
X117761354Y-112582255D01*
X117735549Y-112587740D01*
X117576197Y-112621610D01*
X117576192Y-112621612D01*
X117403270Y-112698603D01*
X117403265Y-112698606D01*
X117250129Y-112809866D01*
X117123466Y-112950540D01*
X117028821Y-113114470D01*
X117028818Y-113114477D01*
X116970327Y-113294495D01*
X116970326Y-113294499D01*
X116950540Y-113482755D01*
X106072593Y-113482755D01*
X105961721Y-113151957D01*
X105960158Y-113146465D01*
X105872659Y-112774443D01*
X105871608Y-112768819D01*
X105861814Y-112698606D01*
X105818808Y-112390311D01*
X105818282Y-112384618D01*
X105800566Y-112001424D01*
X105800500Y-111998560D01*
X105800500Y-110744000D01*
X116442540Y-110744000D01*
X116462326Y-110932256D01*
X116462327Y-110932259D01*
X116520818Y-111112277D01*
X116520821Y-111112284D01*
X116615467Y-111276216D01*
X116673899Y-111341111D01*
X116742129Y-111416888D01*
X116895265Y-111528148D01*
X116895270Y-111528151D01*
X117068192Y-111605142D01*
X117068197Y-111605144D01*
X117253354Y-111644500D01*
X117253355Y-111644500D01*
X117442644Y-111644500D01*
X117442646Y-111644500D01*
X117627803Y-111605144D01*
X117800730Y-111528151D01*
X117953871Y-111416888D01*
X118080533Y-111276216D01*
X118175179Y-111112284D01*
X118196716Y-111046000D01*
X161038540Y-111046000D01*
X161058326Y-111234256D01*
X161058327Y-111234259D01*
X161116818Y-111414277D01*
X161116821Y-111414284D01*
X161211467Y-111578216D01*
X161274150Y-111647832D01*
X161338129Y-111718888D01*
X161491265Y-111830148D01*
X161491270Y-111830151D01*
X161664192Y-111907142D01*
X161664197Y-111907144D01*
X161849354Y-111946500D01*
X161849355Y-111946500D01*
X162038644Y-111946500D01*
X162038646Y-111946500D01*
X162223803Y-111907144D01*
X162396730Y-111830151D01*
X162549871Y-111718888D01*
X162613850Y-111647831D01*
X162673337Y-111611183D01*
X162743194Y-111612514D01*
X162798150Y-111647832D01*
X162862129Y-111718888D01*
X163015265Y-111830148D01*
X163015270Y-111830151D01*
X163188192Y-111907142D01*
X163188197Y-111907144D01*
X163373354Y-111946500D01*
X163373355Y-111946500D01*
X163562644Y-111946500D01*
X163562646Y-111946500D01*
X163747803Y-111907144D01*
X163920730Y-111830151D01*
X164073871Y-111718888D01*
X164134210Y-111651874D01*
X164193693Y-111615229D01*
X164263550Y-111616558D01*
X164321598Y-111655444D01*
X164349408Y-111719541D01*
X164349678Y-111747810D01*
X164341487Y-111825744D01*
X164340540Y-111834756D01*
X164360326Y-112023012D01*
X164360327Y-112023015D01*
X164418818Y-112203033D01*
X164418821Y-112203040D01*
X164513467Y-112366972D01*
X164550159Y-112407722D01*
X164640129Y-112507644D01*
X164793265Y-112618904D01*
X164793270Y-112618907D01*
X164966192Y-112695898D01*
X164966197Y-112695900D01*
X165151354Y-112735256D01*
X165151355Y-112735256D01*
X165340644Y-112735256D01*
X165340646Y-112735256D01*
X165525803Y-112695900D01*
X165698730Y-112618907D01*
X165851871Y-112507644D01*
X165978533Y-112366972D01*
X166073179Y-112203040D01*
X166131674Y-112023012D01*
X166151460Y-111834756D01*
X166131674Y-111646500D01*
X166093219Y-111528148D01*
X166071830Y-111462318D01*
X166069835Y-111392477D01*
X166105915Y-111332644D01*
X166168616Y-111301816D01*
X166189761Y-111300000D01*
X168548000Y-111300000D01*
X168548000Y-107236000D01*
X167595543Y-107236000D01*
X167528504Y-107216315D01*
X167482749Y-107163511D01*
X167472805Y-107094353D01*
X167498638Y-107037784D01*
X167497299Y-107036811D01*
X167501113Y-107031560D01*
X167501117Y-107031556D01*
X167595763Y-106867624D01*
X167654258Y-106687596D01*
X167655056Y-106680000D01*
X172068540Y-106680000D01*
X172088326Y-106868256D01*
X172088327Y-106868259D01*
X172146818Y-107048277D01*
X172146821Y-107048284D01*
X172241467Y-107212216D01*
X172331079Y-107311740D01*
X172368129Y-107352888D01*
X172521265Y-107464148D01*
X172521270Y-107464151D01*
X172694192Y-107541142D01*
X172694197Y-107541144D01*
X172879354Y-107580500D01*
X172879355Y-107580500D01*
X173068644Y-107580500D01*
X173068646Y-107580500D01*
X173253803Y-107541144D01*
X173346213Y-107500000D01*
X182594540Y-107500000D01*
X182614326Y-107688256D01*
X182614327Y-107688259D01*
X182672818Y-107868277D01*
X182672821Y-107868284D01*
X182767467Y-108032216D01*
X182874421Y-108151000D01*
X182894129Y-108172888D01*
X183047265Y-108284148D01*
X183047270Y-108284151D01*
X183220192Y-108361142D01*
X183220197Y-108361144D01*
X183405354Y-108400500D01*
X183405355Y-108400500D01*
X183594644Y-108400500D01*
X183594646Y-108400500D01*
X183779803Y-108361144D01*
X183952730Y-108284151D01*
X184105871Y-108172888D01*
X184232533Y-108032216D01*
X184327179Y-107868284D01*
X184385674Y-107688256D01*
X184405460Y-107500000D01*
X184385674Y-107311744D01*
X184327179Y-107131716D01*
X184232533Y-106967784D01*
X184105871Y-106827112D01*
X184105870Y-106827111D01*
X183952734Y-106715851D01*
X183952729Y-106715848D01*
X183779807Y-106638857D01*
X183779802Y-106638855D01*
X183634001Y-106607865D01*
X183594646Y-106599500D01*
X183405354Y-106599500D01*
X183372897Y-106606398D01*
X183220197Y-106638855D01*
X183220192Y-106638857D01*
X183047270Y-106715848D01*
X183047265Y-106715851D01*
X182894129Y-106827111D01*
X182767466Y-106967785D01*
X182672821Y-107131715D01*
X182672818Y-107131722D01*
X182614327Y-107311740D01*
X182614326Y-107311744D01*
X182594540Y-107500000D01*
X173346213Y-107500000D01*
X173426730Y-107464151D01*
X173579871Y-107352888D01*
X173706533Y-107212216D01*
X173801179Y-107048284D01*
X173859674Y-106868256D01*
X173879460Y-106680000D01*
X173859674Y-106491744D01*
X173801179Y-106311716D01*
X173706533Y-106147784D01*
X173579871Y-106007112D01*
X173579870Y-106007111D01*
X173426734Y-105895851D01*
X173426729Y-105895848D01*
X173253807Y-105818857D01*
X173253802Y-105818855D01*
X173108001Y-105787865D01*
X173068646Y-105779500D01*
X172879354Y-105779500D01*
X172846897Y-105786398D01*
X172694197Y-105818855D01*
X172694192Y-105818857D01*
X172521270Y-105895848D01*
X172521265Y-105895851D01*
X172368129Y-106007111D01*
X172241466Y-106147785D01*
X172146821Y-106311715D01*
X172146818Y-106311722D01*
X172094091Y-106474000D01*
X172088326Y-106491744D01*
X172068540Y-106680000D01*
X167655056Y-106680000D01*
X167674044Y-106499340D01*
X167654258Y-106311084D01*
X167595763Y-106131056D01*
X167501117Y-105967124D01*
X167374455Y-105826452D01*
X167369079Y-105822546D01*
X167221318Y-105715191D01*
X167221313Y-105715188D01*
X167048391Y-105638197D01*
X167048386Y-105638195D01*
X166902585Y-105607205D01*
X166863230Y-105598840D01*
X166673938Y-105598840D01*
X166623959Y-105609463D01*
X166488783Y-105638195D01*
X166335221Y-105706566D01*
X166265971Y-105715850D01*
X166211904Y-105693607D01*
X166206736Y-105689852D01*
X166206729Y-105689848D01*
X166033807Y-105612857D01*
X166033802Y-105612855D01*
X165888000Y-105581865D01*
X165848646Y-105573500D01*
X165659354Y-105573500D01*
X165626897Y-105580398D01*
X165474197Y-105612855D01*
X165474192Y-105612857D01*
X165301270Y-105689848D01*
X165301265Y-105689851D01*
X165148129Y-105801111D01*
X165021466Y-105941785D01*
X164926821Y-106105715D01*
X164926818Y-106105722D01*
X164887087Y-106228003D01*
X164868326Y-106285744D01*
X164848540Y-106474000D01*
X164868326Y-106662256D01*
X164868327Y-106662259D01*
X164926818Y-106842277D01*
X164926821Y-106842284D01*
X165021467Y-107006216D01*
X165040230Y-107027055D01*
X165042007Y-107029028D01*
X165072237Y-107092020D01*
X165063612Y-107161355D01*
X165018870Y-107215020D01*
X164952218Y-107235978D01*
X164949857Y-107236000D01*
X164484000Y-107236000D01*
X164484000Y-110541989D01*
X164464315Y-110609028D01*
X164411511Y-110654783D01*
X164342353Y-110664727D01*
X164278797Y-110635702D01*
X164252613Y-110603989D01*
X164230000Y-110564822D01*
X164200533Y-110513784D01*
X164073871Y-110373112D01*
X164073870Y-110373111D01*
X163920734Y-110261851D01*
X163920729Y-110261848D01*
X163747807Y-110184857D01*
X163747802Y-110184855D01*
X163602000Y-110153865D01*
X163562646Y-110145500D01*
X163373354Y-110145500D01*
X163340897Y-110152398D01*
X163188197Y-110184855D01*
X163188192Y-110184857D01*
X163015270Y-110261848D01*
X163015265Y-110261851D01*
X162862129Y-110373111D01*
X162862128Y-110373112D01*
X162798149Y-110444168D01*
X162738663Y-110480816D01*
X162668806Y-110479485D01*
X162613851Y-110444168D01*
X162549871Y-110373112D01*
X162549870Y-110373111D01*
X162396734Y-110261851D01*
X162396729Y-110261848D01*
X162223807Y-110184857D01*
X162223802Y-110184855D01*
X162078000Y-110153865D01*
X162038646Y-110145500D01*
X161849354Y-110145500D01*
X161816897Y-110152398D01*
X161664197Y-110184855D01*
X161664192Y-110184857D01*
X161491270Y-110261848D01*
X161491265Y-110261851D01*
X161338129Y-110373111D01*
X161211466Y-110513785D01*
X161116821Y-110677715D01*
X161116818Y-110677722D01*
X161058327Y-110857740D01*
X161058326Y-110857744D01*
X161038540Y-111046000D01*
X118196716Y-111046000D01*
X118233674Y-110932256D01*
X118253460Y-110744000D01*
X118233674Y-110555744D01*
X118175179Y-110375716D01*
X118080533Y-110211784D01*
X117953871Y-110071112D01*
X117953870Y-110071111D01*
X117800734Y-109959851D01*
X117800729Y-109959848D01*
X117627807Y-109882857D01*
X117627802Y-109882855D01*
X117482001Y-109851865D01*
X117442646Y-109843500D01*
X117253354Y-109843500D01*
X117220897Y-109850398D01*
X117068197Y-109882855D01*
X117068192Y-109882857D01*
X116895270Y-109959848D01*
X116895265Y-109959851D01*
X116742129Y-110071111D01*
X116615466Y-110211785D01*
X116520821Y-110375715D01*
X116520818Y-110375722D01*
X116475959Y-110513785D01*
X116462326Y-110555744D01*
X116442540Y-110744000D01*
X105800500Y-110744000D01*
X105800500Y-107250500D01*
X116696540Y-107250500D01*
X116716326Y-107438756D01*
X116716327Y-107438759D01*
X116774818Y-107618777D01*
X116774821Y-107618784D01*
X116869467Y-107782716D01*
X116996128Y-107923387D01*
X116996129Y-107923388D01*
X117149265Y-108034648D01*
X117149270Y-108034651D01*
X117322192Y-108111642D01*
X117322197Y-108111644D01*
X117507354Y-108151000D01*
X117507355Y-108151000D01*
X117696644Y-108151000D01*
X117696646Y-108151000D01*
X117881803Y-108111644D01*
X118054730Y-108034651D01*
X118207871Y-107923388D01*
X118334533Y-107782716D01*
X118384598Y-107696000D01*
X124374341Y-107696000D01*
X124394936Y-107931403D01*
X124394938Y-107931413D01*
X124456094Y-108159655D01*
X124456096Y-108159659D01*
X124456097Y-108159663D01*
X124550049Y-108361144D01*
X124555965Y-108373830D01*
X124555967Y-108373834D01*
X124660933Y-108523740D01*
X124691505Y-108567401D01*
X124858599Y-108734495D01*
X124929511Y-108784148D01*
X125052165Y-108870032D01*
X125052167Y-108870033D01*
X125052170Y-108870035D01*
X125266337Y-108969903D01*
X125494592Y-109031063D01*
X125682918Y-109047539D01*
X125729999Y-109051659D01*
X125730000Y-109051659D01*
X125730001Y-109051659D01*
X125769234Y-109048226D01*
X125965408Y-109031063D01*
X126193663Y-108969903D01*
X126407830Y-108870035D01*
X126601401Y-108734495D01*
X126768495Y-108567401D01*
X126898424Y-108381842D01*
X126953002Y-108338217D01*
X127022500Y-108331023D01*
X127084855Y-108362546D01*
X127101575Y-108381842D01*
X127231500Y-108567395D01*
X127231505Y-108567401D01*
X127398599Y-108734495D01*
X127469511Y-108784148D01*
X127592165Y-108870032D01*
X127592167Y-108870033D01*
X127592170Y-108870035D01*
X127806337Y-108969903D01*
X128034592Y-109031063D01*
X128222918Y-109047539D01*
X128269999Y-109051659D01*
X128270000Y-109051659D01*
X128270001Y-109051659D01*
X128309234Y-109048226D01*
X128505408Y-109031063D01*
X128733663Y-108969903D01*
X128947830Y-108870035D01*
X129141401Y-108734495D01*
X129163896Y-108712000D01*
X133206540Y-108712000D01*
X133226326Y-108900256D01*
X133226327Y-108900259D01*
X133284818Y-109080277D01*
X133284821Y-109080284D01*
X133379467Y-109244216D01*
X133506128Y-109384887D01*
X133506129Y-109384888D01*
X133659265Y-109496148D01*
X133659270Y-109496151D01*
X133832192Y-109573142D01*
X133832197Y-109573144D01*
X134017354Y-109612500D01*
X134017355Y-109612500D01*
X134206644Y-109612500D01*
X134206646Y-109612500D01*
X134391803Y-109573144D01*
X134564730Y-109496151D01*
X134717871Y-109384888D01*
X134844533Y-109244216D01*
X134939179Y-109080284D01*
X134997674Y-108900256D01*
X135017460Y-108712000D01*
X134997674Y-108523744D01*
X134939179Y-108343716D01*
X134844533Y-108179784D01*
X134717871Y-108039112D01*
X134711727Y-108034648D01*
X134664038Y-108000000D01*
X145594540Y-108000000D01*
X145614326Y-108188256D01*
X145614327Y-108188259D01*
X145672818Y-108368277D01*
X145672821Y-108368284D01*
X145767467Y-108532216D01*
X145799148Y-108567401D01*
X145894129Y-108672888D01*
X146047265Y-108784148D01*
X146047270Y-108784151D01*
X146220192Y-108861142D01*
X146220197Y-108861144D01*
X146405354Y-108900500D01*
X146405355Y-108900500D01*
X146594644Y-108900500D01*
X146594646Y-108900500D01*
X146779803Y-108861144D01*
X146952730Y-108784151D01*
X147105871Y-108672888D01*
X147232533Y-108532216D01*
X147327179Y-108368284D01*
X147385674Y-108188256D01*
X147405460Y-108000000D01*
X147385674Y-107811744D01*
X147327179Y-107631716D01*
X147232533Y-107467784D01*
X147105871Y-107327112D01*
X147084719Y-107311744D01*
X146952734Y-107215851D01*
X146952729Y-107215848D01*
X146779807Y-107138857D01*
X146779802Y-107138855D01*
X146634000Y-107107865D01*
X146594646Y-107099500D01*
X146405354Y-107099500D01*
X146372897Y-107106398D01*
X146220197Y-107138855D01*
X146220192Y-107138857D01*
X146047270Y-107215848D01*
X146047265Y-107215851D01*
X145894129Y-107327111D01*
X145767466Y-107467785D01*
X145672821Y-107631715D01*
X145672818Y-107631722D01*
X145614405Y-107811500D01*
X145614326Y-107811744D01*
X145594540Y-108000000D01*
X134664038Y-108000000D01*
X134564734Y-107927851D01*
X134564729Y-107927848D01*
X134391807Y-107850857D01*
X134391802Y-107850855D01*
X134246001Y-107819865D01*
X134206646Y-107811500D01*
X134017354Y-107811500D01*
X133984897Y-107818398D01*
X133832197Y-107850855D01*
X133832192Y-107850857D01*
X133659270Y-107927848D01*
X133659265Y-107927851D01*
X133506129Y-108039111D01*
X133379466Y-108179785D01*
X133284821Y-108343715D01*
X133284818Y-108343722D01*
X133226327Y-108523740D01*
X133226326Y-108523744D01*
X133206540Y-108712000D01*
X129163896Y-108712000D01*
X129308495Y-108567401D01*
X129444035Y-108373830D01*
X129543903Y-108159663D01*
X129546225Y-108151000D01*
X129562383Y-108090694D01*
X129598747Y-108031033D01*
X129661594Y-108000503D01*
X129730969Y-108008797D01*
X129774308Y-108039814D01*
X129894129Y-108172888D01*
X130047265Y-108284148D01*
X130047270Y-108284151D01*
X130220192Y-108361142D01*
X130220197Y-108361144D01*
X130405354Y-108400500D01*
X130405355Y-108400500D01*
X130594644Y-108400500D01*
X130594646Y-108400500D01*
X130779803Y-108361144D01*
X130952730Y-108284151D01*
X131105871Y-108172888D01*
X131232533Y-108032216D01*
X131327179Y-107868284D01*
X131385674Y-107688256D01*
X131405460Y-107500000D01*
X131385674Y-107311744D01*
X131327179Y-107131716D01*
X131251133Y-107000000D01*
X136094540Y-107000000D01*
X136114326Y-107188256D01*
X136114327Y-107188259D01*
X136172818Y-107368277D01*
X136172821Y-107368284D01*
X136267467Y-107532216D01*
X136357063Y-107631722D01*
X136394129Y-107672888D01*
X136547265Y-107784148D01*
X136547270Y-107784151D01*
X136720192Y-107861142D01*
X136720197Y-107861144D01*
X136905354Y-107900500D01*
X136905355Y-107900500D01*
X137094644Y-107900500D01*
X137094646Y-107900500D01*
X137279803Y-107861144D01*
X137452730Y-107784151D01*
X137605871Y-107672888D01*
X137732533Y-107532216D01*
X137827179Y-107368284D01*
X137885674Y-107188256D01*
X137905460Y-107000000D01*
X137885674Y-106811744D01*
X137842868Y-106680000D01*
X140826540Y-106680000D01*
X140846326Y-106868256D01*
X140846327Y-106868259D01*
X140904818Y-107048277D01*
X140904821Y-107048284D01*
X140999467Y-107212216D01*
X141089079Y-107311740D01*
X141126129Y-107352888D01*
X141279265Y-107464148D01*
X141279270Y-107464151D01*
X141452192Y-107541142D01*
X141452197Y-107541144D01*
X141637354Y-107580500D01*
X141637355Y-107580500D01*
X141826644Y-107580500D01*
X141826646Y-107580500D01*
X142011803Y-107541144D01*
X142184730Y-107464151D01*
X142337871Y-107352888D01*
X142464533Y-107212216D01*
X142559179Y-107048284D01*
X142617674Y-106868256D01*
X142637460Y-106680000D01*
X142617674Y-106491744D01*
X142559179Y-106311716D01*
X142464533Y-106147784D01*
X142337871Y-106007112D01*
X142337870Y-106007111D01*
X142184734Y-105895851D01*
X142184729Y-105895848D01*
X142011807Y-105818857D01*
X142011802Y-105818855D01*
X141866001Y-105787865D01*
X141826646Y-105779500D01*
X141637354Y-105779500D01*
X141604897Y-105786398D01*
X141452197Y-105818855D01*
X141452192Y-105818857D01*
X141279270Y-105895848D01*
X141279265Y-105895851D01*
X141126129Y-106007111D01*
X140999466Y-106147785D01*
X140904821Y-106311715D01*
X140904818Y-106311722D01*
X140852091Y-106474000D01*
X140846326Y-106491744D01*
X140826540Y-106680000D01*
X137842868Y-106680000D01*
X137827179Y-106631716D01*
X137732533Y-106467784D01*
X137605871Y-106327112D01*
X137602173Y-106324425D01*
X137452734Y-106215851D01*
X137452729Y-106215848D01*
X137279807Y-106138857D01*
X137279802Y-106138855D01*
X137123890Y-106105716D01*
X137094646Y-106099500D01*
X136905354Y-106099500D01*
X136876110Y-106105716D01*
X136720197Y-106138855D01*
X136720192Y-106138857D01*
X136547270Y-106215848D01*
X136547265Y-106215851D01*
X136394129Y-106327111D01*
X136267466Y-106467785D01*
X136172821Y-106631715D01*
X136172818Y-106631722D01*
X136117736Y-106801249D01*
X136114326Y-106811744D01*
X136094540Y-107000000D01*
X131251133Y-107000000D01*
X131232533Y-106967784D01*
X131105871Y-106827112D01*
X131105870Y-106827111D01*
X130952734Y-106715851D01*
X130952729Y-106715848D01*
X130779807Y-106638857D01*
X130779802Y-106638855D01*
X130634000Y-106607865D01*
X130594646Y-106599500D01*
X130405354Y-106599500D01*
X130372897Y-106606398D01*
X130220197Y-106638855D01*
X130220192Y-106638857D01*
X130047270Y-106715848D01*
X130047265Y-106715851D01*
X129894129Y-106827111D01*
X129767466Y-106967785D01*
X129694648Y-107093910D01*
X129644081Y-107142126D01*
X129575474Y-107155349D01*
X129510609Y-107129381D01*
X129474879Y-107084315D01*
X129444035Y-107018171D01*
X129444034Y-107018169D01*
X129308494Y-106824597D01*
X129141402Y-106657506D01*
X129141396Y-106657501D01*
X128955842Y-106527575D01*
X128912217Y-106472998D01*
X128905023Y-106403500D01*
X128936546Y-106341145D01*
X128955842Y-106324425D01*
X129011090Y-106285740D01*
X129141401Y-106194495D01*
X129308495Y-106027401D01*
X129444035Y-105833830D01*
X129523228Y-105664000D01*
X151494540Y-105664000D01*
X151514326Y-105852256D01*
X151514327Y-105852259D01*
X151572818Y-106032277D01*
X151572821Y-106032284D01*
X151667467Y-106196216D01*
X151782907Y-106324425D01*
X151794129Y-106336888D01*
X151947265Y-106448148D01*
X151947270Y-106448151D01*
X152120192Y-106525142D01*
X152120197Y-106525144D01*
X152305354Y-106564500D01*
X152305355Y-106564500D01*
X152494644Y-106564500D01*
X152494646Y-106564500D01*
X152679803Y-106525144D01*
X152852730Y-106448151D01*
X153005871Y-106336888D01*
X153132533Y-106196216D01*
X153227179Y-106032284D01*
X153285674Y-105852256D01*
X153305460Y-105664000D01*
X153285674Y-105475744D01*
X153227179Y-105295716D01*
X153132533Y-105131784D01*
X153005871Y-104991112D01*
X152908814Y-104920596D01*
X152883219Y-104902000D01*
X154034540Y-104902000D01*
X154054326Y-105090256D01*
X154054327Y-105090259D01*
X154112818Y-105270277D01*
X154112821Y-105270284D01*
X154207467Y-105434216D01*
X154332879Y-105573500D01*
X154334129Y-105574888D01*
X154487265Y-105686148D01*
X154487270Y-105686151D01*
X154660192Y-105763142D01*
X154660197Y-105763144D01*
X154845354Y-105802500D01*
X154845355Y-105802500D01*
X155034644Y-105802500D01*
X155034646Y-105802500D01*
X155219803Y-105763144D01*
X155392730Y-105686151D01*
X155545871Y-105574888D01*
X155672533Y-105434216D01*
X155767179Y-105270284D01*
X155825674Y-105090256D01*
X155845460Y-104902000D01*
X155825674Y-104713744D01*
X155767179Y-104533716D01*
X155672533Y-104369784D01*
X155545871Y-104229112D01*
X155545870Y-104229111D01*
X155392734Y-104117851D01*
X155392729Y-104117848D01*
X155219807Y-104040857D01*
X155219802Y-104040855D01*
X155074000Y-104009865D01*
X155034646Y-104001500D01*
X154845354Y-104001500D01*
X154812897Y-104008398D01*
X154660197Y-104040855D01*
X154660192Y-104040857D01*
X154487270Y-104117848D01*
X154487265Y-104117851D01*
X154334129Y-104229111D01*
X154207466Y-104369785D01*
X154112821Y-104533715D01*
X154112818Y-104533722D01*
X154054327Y-104713740D01*
X154054326Y-104713744D01*
X154034540Y-104902000D01*
X152883219Y-104902000D01*
X152847473Y-104876029D01*
X152849028Y-104873888D01*
X152808921Y-104831840D01*
X152795685Y-104763235D01*
X152821642Y-104698366D01*
X152848370Y-104675205D01*
X152847473Y-104673971D01*
X152917879Y-104622817D01*
X153005871Y-104558888D01*
X153132533Y-104418216D01*
X153227179Y-104254284D01*
X153285674Y-104074256D01*
X153305460Y-103886000D01*
X153285674Y-103697744D01*
X153227179Y-103517716D01*
X153132533Y-103353784D01*
X153005871Y-103213112D01*
X153005870Y-103213111D01*
X152852734Y-103101851D01*
X152852729Y-103101848D01*
X152679807Y-103024857D01*
X152679802Y-103024855D01*
X152521754Y-102991262D01*
X152494646Y-102985500D01*
X152305354Y-102985500D01*
X152278246Y-102991262D01*
X152120197Y-103024855D01*
X152120192Y-103024857D01*
X151947270Y-103101848D01*
X151947265Y-103101851D01*
X151794129Y-103213111D01*
X151667466Y-103353785D01*
X151572821Y-103517715D01*
X151572818Y-103517722D01*
X151528505Y-103654105D01*
X151514326Y-103697744D01*
X151494540Y-103886000D01*
X151514326Y-104074256D01*
X151514327Y-104074259D01*
X151572818Y-104254277D01*
X151572821Y-104254284D01*
X151667467Y-104418216D01*
X151791178Y-104555611D01*
X151794129Y-104558888D01*
X151952527Y-104673971D01*
X151950976Y-104676105D01*
X151991098Y-104718199D01*
X152004309Y-104786808D01*
X151978330Y-104851668D01*
X151951634Y-104874800D01*
X151952527Y-104876029D01*
X151794129Y-104991111D01*
X151667466Y-105131785D01*
X151572821Y-105295715D01*
X151572818Y-105295722D01*
X151527820Y-105434214D01*
X151514326Y-105475744D01*
X151494540Y-105664000D01*
X129523228Y-105664000D01*
X129543903Y-105619663D01*
X129605063Y-105391408D01*
X129625659Y-105156000D01*
X129605063Y-104920592D01*
X129549638Y-104713740D01*
X129543905Y-104692344D01*
X129543904Y-104692343D01*
X129543903Y-104692337D01*
X129444035Y-104478171D01*
X129438425Y-104470158D01*
X129308494Y-104284597D01*
X129141402Y-104117506D01*
X129141401Y-104117505D01*
X128955405Y-103987269D01*
X128911781Y-103932692D01*
X128904588Y-103863193D01*
X128936110Y-103800839D01*
X128955405Y-103784119D01*
X129141082Y-103654105D01*
X129163187Y-103632000D01*
X131428540Y-103632000D01*
X131448326Y-103820256D01*
X131448327Y-103820259D01*
X131506818Y-104000277D01*
X131506821Y-104000284D01*
X131601467Y-104164216D01*
X131659899Y-104229111D01*
X131728129Y-104304888D01*
X131881265Y-104416148D01*
X131881270Y-104416151D01*
X132054192Y-104493142D01*
X132054197Y-104493144D01*
X132239354Y-104532500D01*
X132239355Y-104532500D01*
X132428644Y-104532500D01*
X132428646Y-104532500D01*
X132613803Y-104493144D01*
X132786730Y-104416151D01*
X132939871Y-104304888D01*
X133066533Y-104164216D01*
X133161179Y-104000284D01*
X133219674Y-103820256D01*
X133239460Y-103632000D01*
X145398540Y-103632000D01*
X145418326Y-103820256D01*
X145418327Y-103820259D01*
X145476818Y-104000277D01*
X145476821Y-104000284D01*
X145571467Y-104164216D01*
X145629899Y-104229111D01*
X145698129Y-104304888D01*
X145851265Y-104416148D01*
X145851270Y-104416151D01*
X146024192Y-104493142D01*
X146024197Y-104493144D01*
X146209354Y-104532500D01*
X146209355Y-104532500D01*
X146398644Y-104532500D01*
X146398646Y-104532500D01*
X146583803Y-104493144D01*
X146756730Y-104416151D01*
X146909871Y-104304888D01*
X147036533Y-104164216D01*
X147131179Y-104000284D01*
X147189674Y-103820256D01*
X147209460Y-103632000D01*
X147189674Y-103443744D01*
X147131179Y-103263716D01*
X147036533Y-103099784D01*
X146909871Y-102959112D01*
X146909870Y-102959111D01*
X146756734Y-102847851D01*
X146756729Y-102847848D01*
X146583807Y-102770857D01*
X146583802Y-102770855D01*
X146438001Y-102739865D01*
X146398646Y-102731500D01*
X146209354Y-102731500D01*
X146176897Y-102738398D01*
X146024197Y-102770855D01*
X146024192Y-102770857D01*
X145851270Y-102847848D01*
X145851265Y-102847851D01*
X145698129Y-102959111D01*
X145571466Y-103099785D01*
X145476821Y-103263715D01*
X145476818Y-103263722D01*
X145418327Y-103443740D01*
X145418326Y-103443744D01*
X145398540Y-103632000D01*
X133239460Y-103632000D01*
X133219674Y-103443744D01*
X133161179Y-103263716D01*
X133066533Y-103099784D01*
X132939871Y-102959112D01*
X132939870Y-102959111D01*
X132786734Y-102847851D01*
X132786729Y-102847848D01*
X132613807Y-102770857D01*
X132613802Y-102770855D01*
X132468001Y-102739865D01*
X132428646Y-102731500D01*
X132239354Y-102731500D01*
X132206897Y-102738398D01*
X132054197Y-102770855D01*
X132054192Y-102770857D01*
X131881270Y-102847848D01*
X131881265Y-102847851D01*
X131728129Y-102959111D01*
X131601466Y-103099785D01*
X131506821Y-103263715D01*
X131506818Y-103263722D01*
X131448327Y-103443740D01*
X131448326Y-103443744D01*
X131428540Y-103632000D01*
X129163187Y-103632000D01*
X129308105Y-103487082D01*
X129443600Y-103293578D01*
X129543429Y-103079492D01*
X129543432Y-103079486D01*
X129600636Y-102866000D01*
X128883347Y-102866000D01*
X128816308Y-102846315D01*
X128770553Y-102793511D01*
X128760609Y-102724353D01*
X128764369Y-102707067D01*
X128770000Y-102687888D01*
X128770000Y-102544111D01*
X128764369Y-102524933D01*
X128764370Y-102455064D01*
X128802145Y-102396286D01*
X128865701Y-102367262D01*
X128883347Y-102366000D01*
X129600636Y-102366000D01*
X129600635Y-102365999D01*
X129543432Y-102152513D01*
X129543429Y-102152507D01*
X129443600Y-101938422D01*
X129443599Y-101938420D01*
X129308113Y-101744926D01*
X129308108Y-101744920D01*
X129141082Y-101577894D01*
X128947578Y-101442399D01*
X128733492Y-101342570D01*
X128733486Y-101342567D01*
X128520000Y-101285364D01*
X128520000Y-102003698D01*
X128500315Y-102070737D01*
X128447511Y-102116492D01*
X128378355Y-102126436D01*
X128305766Y-102116000D01*
X128305763Y-102116000D01*
X128234237Y-102116000D01*
X128161646Y-102126437D01*
X128092487Y-102116493D01*
X128039683Y-102070738D01*
X128019999Y-102003699D01*
X128019999Y-101285364D01*
X128019998Y-101285364D01*
X127806505Y-101342570D01*
X127592422Y-101442399D01*
X127592420Y-101442400D01*
X127398926Y-101577886D01*
X127276865Y-101699947D01*
X127215542Y-101733431D01*
X127145850Y-101728447D01*
X127089917Y-101686575D01*
X127073002Y-101655598D01*
X127066757Y-101638855D01*
X127044003Y-101577848D01*
X127023797Y-101523671D01*
X127023793Y-101523664D01*
X126937547Y-101408455D01*
X126937544Y-101408452D01*
X126822335Y-101322206D01*
X126822328Y-101322202D01*
X126687482Y-101271908D01*
X126687483Y-101271908D01*
X126627883Y-101265501D01*
X126627881Y-101265500D01*
X126627873Y-101265500D01*
X126627864Y-101265500D01*
X124832129Y-101265500D01*
X124832123Y-101265501D01*
X124772516Y-101271908D01*
X124637671Y-101322202D01*
X124637664Y-101322206D01*
X124522455Y-101408452D01*
X124522452Y-101408455D01*
X124436206Y-101523664D01*
X124436202Y-101523671D01*
X124385908Y-101658517D01*
X124379501Y-101718116D01*
X124379500Y-101718135D01*
X124379500Y-103513870D01*
X124379501Y-103513876D01*
X124385908Y-103573483D01*
X124436202Y-103708328D01*
X124436206Y-103708335D01*
X124522452Y-103823544D01*
X124522455Y-103823547D01*
X124637664Y-103909793D01*
X124637671Y-103909797D01*
X124769081Y-103958810D01*
X124825015Y-104000681D01*
X124849432Y-104066145D01*
X124834580Y-104134418D01*
X124813430Y-104162673D01*
X124691503Y-104284600D01*
X124555965Y-104478169D01*
X124555964Y-104478171D01*
X124456098Y-104692335D01*
X124456094Y-104692344D01*
X124394938Y-104920586D01*
X124394936Y-104920596D01*
X124374341Y-105155999D01*
X124374341Y-105156000D01*
X124394936Y-105391403D01*
X124394938Y-105391413D01*
X124456094Y-105619655D01*
X124456096Y-105619659D01*
X124456097Y-105619663D01*
X124548983Y-105818857D01*
X124555965Y-105833830D01*
X124555967Y-105833834D01*
X124649299Y-105967125D01*
X124691501Y-106027396D01*
X124691506Y-106027402D01*
X124858597Y-106194493D01*
X124858603Y-106194498D01*
X125044158Y-106324425D01*
X125087783Y-106379002D01*
X125094977Y-106448500D01*
X125063454Y-106510855D01*
X125044158Y-106527575D01*
X124858597Y-106657505D01*
X124691505Y-106824597D01*
X124555965Y-107018169D01*
X124555964Y-107018171D01*
X124456098Y-107232335D01*
X124456094Y-107232344D01*
X124394938Y-107460586D01*
X124394936Y-107460596D01*
X124374341Y-107695999D01*
X124374341Y-107696000D01*
X118384598Y-107696000D01*
X118429179Y-107618784D01*
X118487674Y-107438756D01*
X118507460Y-107250500D01*
X118487674Y-107062244D01*
X118429179Y-106882216D01*
X118382432Y-106801248D01*
X118365960Y-106733351D01*
X118382431Y-106677255D01*
X118429179Y-106596287D01*
X118487674Y-106416259D01*
X118507460Y-106228003D01*
X118487674Y-106039747D01*
X118429179Y-105859719D01*
X118389070Y-105790248D01*
X118372598Y-105722351D01*
X118389069Y-105666255D01*
X118429179Y-105596784D01*
X118487674Y-105416756D01*
X118507460Y-105228500D01*
X118487674Y-105040244D01*
X118429179Y-104860216D01*
X118334533Y-104696284D01*
X118207871Y-104555612D01*
X118177734Y-104533716D01*
X118054734Y-104444351D01*
X118054729Y-104444348D01*
X117881807Y-104367357D01*
X117881802Y-104367355D01*
X117736000Y-104336365D01*
X117696646Y-104328000D01*
X117507354Y-104328000D01*
X117474897Y-104334898D01*
X117322197Y-104367355D01*
X117322192Y-104367357D01*
X117149270Y-104444348D01*
X117149265Y-104444351D01*
X116996129Y-104555611D01*
X116869466Y-104696285D01*
X116774821Y-104860215D01*
X116774818Y-104860222D01*
X116732290Y-104991111D01*
X116716326Y-105040244D01*
X116696540Y-105228500D01*
X116716326Y-105416756D01*
X116716327Y-105416759D01*
X116774821Y-105596785D01*
X116814927Y-105666251D01*
X116831400Y-105734151D01*
X116814928Y-105790250D01*
X116774820Y-105859719D01*
X116720339Y-106027395D01*
X116716326Y-106039747D01*
X116696540Y-106228003D01*
X116716326Y-106416259D01*
X116716327Y-106416262D01*
X116774818Y-106596280D01*
X116774821Y-106596287D01*
X116821565Y-106677250D01*
X116838038Y-106745151D01*
X116821566Y-106801249D01*
X116774820Y-106882216D01*
X116716327Y-107062240D01*
X116716326Y-107062244D01*
X116696540Y-107250500D01*
X105800500Y-107250500D01*
X105800500Y-103632000D01*
X112124540Y-103632000D01*
X112144326Y-103820256D01*
X112144327Y-103820259D01*
X112202818Y-104000277D01*
X112202821Y-104000284D01*
X112297467Y-104164216D01*
X112355899Y-104229111D01*
X112424129Y-104304888D01*
X112577265Y-104416148D01*
X112577270Y-104416151D01*
X112750192Y-104493142D01*
X112750197Y-104493144D01*
X112935354Y-104532500D01*
X112935355Y-104532500D01*
X113124644Y-104532500D01*
X113124646Y-104532500D01*
X113309803Y-104493144D01*
X113482730Y-104416151D01*
X113635871Y-104304888D01*
X113762533Y-104164216D01*
X113857179Y-104000284D01*
X113915674Y-103820256D01*
X113935460Y-103632000D01*
X113921587Y-103500000D01*
X115094540Y-103500000D01*
X115114326Y-103688256D01*
X115114327Y-103688259D01*
X115172818Y-103868277D01*
X115172821Y-103868284D01*
X115267467Y-104032216D01*
X115384931Y-104162673D01*
X115394129Y-104172888D01*
X115547265Y-104284148D01*
X115547270Y-104284151D01*
X115720192Y-104361142D01*
X115720197Y-104361144D01*
X115905354Y-104400500D01*
X115905355Y-104400500D01*
X116094644Y-104400500D01*
X116094646Y-104400500D01*
X116279803Y-104361144D01*
X116452730Y-104284151D01*
X116605871Y-104172888D01*
X116732533Y-104032216D01*
X116827179Y-103868284D01*
X116885674Y-103688256D01*
X116905460Y-103500000D01*
X116894893Y-103399460D01*
X116907463Y-103330731D01*
X116955195Y-103279708D01*
X117018214Y-103262500D01*
X117188644Y-103262500D01*
X117188646Y-103262500D01*
X117373803Y-103223144D01*
X117546730Y-103146151D01*
X117699871Y-103034888D01*
X117706152Y-103027911D01*
X117765635Y-102991262D01*
X117835492Y-102992589D01*
X117848742Y-102997603D01*
X117855990Y-103000830D01*
X117863007Y-103003954D01*
X118048164Y-103043310D01*
X118048165Y-103043310D01*
X118237454Y-103043310D01*
X118237456Y-103043310D01*
X118422613Y-103003954D01*
X118595540Y-102926961D01*
X118748681Y-102815698D01*
X118875343Y-102675026D01*
X118969989Y-102511094D01*
X119028484Y-102331066D01*
X119048270Y-102142810D01*
X119028484Y-101954554D01*
X118969989Y-101774526D01*
X118875343Y-101610594D01*
X118748681Y-101469922D01*
X118748680Y-101469921D01*
X118595544Y-101358661D01*
X118595539Y-101358658D01*
X118422617Y-101281667D01*
X118422612Y-101281665D01*
X118276811Y-101250675D01*
X118237456Y-101242310D01*
X118048164Y-101242310D01*
X118015707Y-101249208D01*
X117863007Y-101281665D01*
X117863002Y-101281667D01*
X117690080Y-101358658D01*
X117690075Y-101358661D01*
X117536941Y-101469920D01*
X117536939Y-101469921D01*
X117530651Y-101476905D01*
X117471163Y-101513550D01*
X117401306Y-101512217D01*
X117388072Y-101507208D01*
X117373810Y-101500858D01*
X117373801Y-101500855D01*
X117228259Y-101469920D01*
X117188646Y-101461500D01*
X116999354Y-101461500D01*
X116966897Y-101468398D01*
X116814197Y-101500855D01*
X116814192Y-101500857D01*
X116641270Y-101577848D01*
X116641265Y-101577851D01*
X116488129Y-101689111D01*
X116361466Y-101829785D01*
X116266821Y-101993715D01*
X116266818Y-101993722D01*
X116218377Y-102142809D01*
X116208326Y-102173744D01*
X116193822Y-102311744D01*
X116188540Y-102362000D01*
X116199107Y-102462539D01*
X116186537Y-102531269D01*
X116138805Y-102582292D01*
X116075786Y-102599500D01*
X115905354Y-102599500D01*
X115872897Y-102606398D01*
X115720197Y-102638855D01*
X115720192Y-102638857D01*
X115547270Y-102715848D01*
X115547265Y-102715851D01*
X115394129Y-102827111D01*
X115267466Y-102967785D01*
X115172821Y-103131715D01*
X115172818Y-103131722D01*
X115114327Y-103311740D01*
X115114326Y-103311744D01*
X115094540Y-103500000D01*
X113921587Y-103500000D01*
X113915674Y-103443744D01*
X113857179Y-103263716D01*
X113762533Y-103099784D01*
X113744693Y-103079971D01*
X113714464Y-103016981D01*
X113723089Y-102947646D01*
X113744694Y-102914028D01*
X113762533Y-102894216D01*
X113857179Y-102730284D01*
X113915674Y-102550256D01*
X113935460Y-102362000D01*
X113915674Y-102173744D01*
X113857179Y-101993716D01*
X113762533Y-101829784D01*
X113635871Y-101689112D01*
X113635870Y-101689111D01*
X113482734Y-101577851D01*
X113482729Y-101577848D01*
X113309807Y-101500857D01*
X113309802Y-101500855D01*
X113164001Y-101469865D01*
X113124646Y-101461500D01*
X112935354Y-101461500D01*
X112902897Y-101468398D01*
X112750197Y-101500855D01*
X112750192Y-101500857D01*
X112577270Y-101577848D01*
X112577265Y-101577851D01*
X112424129Y-101689111D01*
X112297466Y-101829785D01*
X112202821Y-101993715D01*
X112202818Y-101993722D01*
X112154377Y-102142809D01*
X112144326Y-102173744D01*
X112124540Y-102362000D01*
X112144326Y-102550256D01*
X112144327Y-102550259D01*
X112202818Y-102730277D01*
X112202821Y-102730284D01*
X112297467Y-102894216D01*
X112307806Y-102905699D01*
X112315307Y-102914030D01*
X112345535Y-102977022D01*
X112336909Y-103046357D01*
X112315307Y-103079970D01*
X112297466Y-103099785D01*
X112202821Y-103263715D01*
X112202818Y-103263722D01*
X112144327Y-103443740D01*
X112144326Y-103443744D01*
X112124540Y-103632000D01*
X105800500Y-103632000D01*
X105800500Y-102500000D01*
X107094540Y-102500000D01*
X107114326Y-102688256D01*
X107114327Y-102688259D01*
X107172818Y-102868277D01*
X107172821Y-102868284D01*
X107267467Y-103032216D01*
X107357063Y-103131722D01*
X107394129Y-103172888D01*
X107547265Y-103284148D01*
X107547270Y-103284151D01*
X107720192Y-103361142D01*
X107720197Y-103361144D01*
X107905354Y-103400500D01*
X107905355Y-103400500D01*
X108094644Y-103400500D01*
X108094646Y-103400500D01*
X108279803Y-103361144D01*
X108452730Y-103284151D01*
X108605871Y-103172888D01*
X108732533Y-103032216D01*
X108827179Y-102868284D01*
X108885674Y-102688256D01*
X108905460Y-102500000D01*
X108885674Y-102311744D01*
X108827179Y-102131716D01*
X108732533Y-101967784D01*
X108605871Y-101827112D01*
X108533501Y-101774532D01*
X108452734Y-101715851D01*
X108452729Y-101715848D01*
X108279807Y-101638857D01*
X108279802Y-101638855D01*
X108134001Y-101607865D01*
X108094646Y-101599500D01*
X107905354Y-101599500D01*
X107872897Y-101606398D01*
X107720197Y-101638855D01*
X107720192Y-101638857D01*
X107547270Y-101715848D01*
X107547265Y-101715851D01*
X107394129Y-101827111D01*
X107267466Y-101967785D01*
X107172821Y-102131715D01*
X107172818Y-102131722D01*
X107122950Y-102285202D01*
X107114326Y-102311744D01*
X107094540Y-102500000D01*
X105800500Y-102500000D01*
X105800500Y-98958833D01*
X107345624Y-98958833D01*
X107355944Y-99122860D01*
X107406732Y-99279171D01*
X107406734Y-99279175D01*
X107494798Y-99417940D01*
X107614603Y-99530445D01*
X107614611Y-99530451D01*
X107758628Y-99609625D01*
X107758632Y-99609627D01*
X107917823Y-99650500D01*
X107917827Y-99650500D01*
X108040923Y-99650500D01*
X108040925Y-99650500D01*
X108040930Y-99650499D01*
X108040934Y-99650499D01*
X108054174Y-99648826D01*
X108163058Y-99635071D01*
X108315871Y-99574568D01*
X108355397Y-99545851D01*
X108448835Y-99477965D01*
X108448835Y-99477963D01*
X108448837Y-99477963D01*
X108553600Y-99351326D01*
X108623579Y-99202613D01*
X108650784Y-99060000D01*
X118220540Y-99060000D01*
X118240326Y-99248256D01*
X118240327Y-99248259D01*
X118298818Y-99428277D01*
X118298821Y-99428284D01*
X118393467Y-99592216D01*
X118451899Y-99657111D01*
X118520129Y-99732888D01*
X118673265Y-99844148D01*
X118673270Y-99844151D01*
X118846191Y-99921142D01*
X118846193Y-99921142D01*
X118846197Y-99921144D01*
X118924583Y-99937805D01*
X118986061Y-99970995D01*
X119019838Y-100032158D01*
X119016730Y-100097411D01*
X119002327Y-100141739D01*
X119002327Y-100141740D01*
X119002326Y-100141744D01*
X118982540Y-100330000D01*
X119002326Y-100518256D01*
X119002327Y-100518259D01*
X119060818Y-100698277D01*
X119060821Y-100698284D01*
X119155467Y-100862216D01*
X119282128Y-101002888D01*
X119282129Y-101002888D01*
X119435265Y-101114148D01*
X119435270Y-101114151D01*
X119608192Y-101191142D01*
X119608197Y-101191144D01*
X119793354Y-101230500D01*
X119793355Y-101230500D01*
X119982644Y-101230500D01*
X119982646Y-101230500D01*
X120167803Y-101191144D01*
X120340730Y-101114151D01*
X120493871Y-101002888D01*
X120620533Y-100862216D01*
X120715179Y-100698284D01*
X120773674Y-100518256D01*
X120793460Y-100330000D01*
X120773674Y-100141744D01*
X120715179Y-99961716D01*
X120620533Y-99797784D01*
X120493871Y-99657112D01*
X120493870Y-99657111D01*
X120340734Y-99545851D01*
X120340729Y-99545848D01*
X120167807Y-99468857D01*
X120167802Y-99468855D01*
X120089419Y-99452195D01*
X120027937Y-99419003D01*
X119994161Y-99357840D01*
X119997269Y-99292586D01*
X120011674Y-99248256D01*
X120031460Y-99060000D01*
X120011674Y-98871744D01*
X119971186Y-98747138D01*
X119969192Y-98677300D01*
X120005272Y-98617467D01*
X120038678Y-98595545D01*
X120086730Y-98574151D01*
X120239871Y-98462888D01*
X120366533Y-98322216D01*
X120461179Y-98158284D01*
X120519674Y-97978256D01*
X120539460Y-97790000D01*
X120519674Y-97601744D01*
X120461179Y-97421716D01*
X120366533Y-97257784D01*
X120239871Y-97117112D01*
X120239870Y-97117111D01*
X120086734Y-97005851D01*
X120086729Y-97005848D01*
X119913807Y-96928857D01*
X119913802Y-96928855D01*
X119768000Y-96897865D01*
X119728646Y-96889500D01*
X119539354Y-96889500D01*
X119506897Y-96896398D01*
X119354197Y-96928855D01*
X119354192Y-96928857D01*
X119181270Y-97005848D01*
X119181265Y-97005851D01*
X119028129Y-97117111D01*
X118901466Y-97257785D01*
X118806821Y-97421715D01*
X118806818Y-97421722D01*
X118748327Y-97601740D01*
X118748326Y-97601744D01*
X118728540Y-97790000D01*
X118748326Y-97978256D01*
X118748327Y-97978259D01*
X118788812Y-98102859D01*
X118790807Y-98172700D01*
X118754727Y-98232533D01*
X118721318Y-98254456D01*
X118673267Y-98275849D01*
X118520129Y-98387111D01*
X118393466Y-98527785D01*
X118298821Y-98691715D01*
X118298818Y-98691722D01*
X118264486Y-98797387D01*
X118240326Y-98871744D01*
X118220540Y-99060000D01*
X108650784Y-99060000D01*
X108654376Y-99041170D01*
X108644056Y-98877140D01*
X108593268Y-98720829D01*
X108505202Y-98582060D01*
X108441281Y-98522034D01*
X108385396Y-98469554D01*
X108385388Y-98469548D01*
X108241371Y-98390374D01*
X108241361Y-98390371D01*
X108082180Y-98349500D01*
X108082177Y-98349500D01*
X107959075Y-98349500D01*
X107959065Y-98349500D01*
X107836942Y-98364929D01*
X107836939Y-98364929D01*
X107684130Y-98425431D01*
X107684121Y-98425436D01*
X107551164Y-98522034D01*
X107551162Y-98522037D01*
X107446400Y-98648673D01*
X107376420Y-98797387D01*
X107361207Y-98877139D01*
X107345624Y-98958830D01*
X107345624Y-98958832D01*
X107345624Y-98958833D01*
X105800500Y-98958833D01*
X105800500Y-95504000D01*
X131724706Y-95504000D01*
X131743853Y-95747297D01*
X131800830Y-95984619D01*
X131894222Y-96210089D01*
X132021737Y-96418173D01*
X132021738Y-96418176D01*
X132021741Y-96418179D01*
X132180241Y-96603759D01*
X132279178Y-96688259D01*
X132365823Y-96762261D01*
X132365826Y-96762262D01*
X132573910Y-96889777D01*
X132799381Y-96983169D01*
X132799378Y-96983169D01*
X132799384Y-96983170D01*
X132799388Y-96983172D01*
X133036698Y-97040146D01*
X133280000Y-97059294D01*
X133523302Y-97040146D01*
X133760612Y-96983172D01*
X133986089Y-96889777D01*
X134194179Y-96762259D01*
X134379759Y-96603759D01*
X134468377Y-96500000D01*
X182594540Y-96500000D01*
X182614326Y-96688256D01*
X182614327Y-96688259D01*
X182672818Y-96868277D01*
X182672821Y-96868284D01*
X182767467Y-97032216D01*
X182843907Y-97117111D01*
X182894129Y-97172888D01*
X183047265Y-97284148D01*
X183047270Y-97284151D01*
X183220192Y-97361142D01*
X183220197Y-97361144D01*
X183405354Y-97400500D01*
X183405355Y-97400500D01*
X183594644Y-97400500D01*
X183594646Y-97400500D01*
X183779803Y-97361144D01*
X183952730Y-97284151D01*
X184105871Y-97172888D01*
X184232533Y-97032216D01*
X184327179Y-96868284D01*
X184385674Y-96688256D01*
X184405460Y-96500000D01*
X184385674Y-96311744D01*
X184327179Y-96131716D01*
X184232533Y-95967784D01*
X184105871Y-95827112D01*
X184105870Y-95827111D01*
X183952734Y-95715851D01*
X183952729Y-95715848D01*
X183779807Y-95638857D01*
X183779802Y-95638855D01*
X183634001Y-95607865D01*
X183594646Y-95599500D01*
X183405354Y-95599500D01*
X183372897Y-95606398D01*
X183220197Y-95638855D01*
X183220192Y-95638857D01*
X183047270Y-95715848D01*
X183047265Y-95715851D01*
X182894129Y-95827111D01*
X182767466Y-95967785D01*
X182672821Y-96131715D01*
X182672818Y-96131722D01*
X182614327Y-96311740D01*
X182614326Y-96311744D01*
X182594540Y-96500000D01*
X134468377Y-96500000D01*
X134538259Y-96418179D01*
X134665777Y-96210089D01*
X134759172Y-95984612D01*
X134816146Y-95747302D01*
X134835294Y-95504000D01*
X134834979Y-95500000D01*
X171594540Y-95500000D01*
X171614326Y-95688256D01*
X171614327Y-95688259D01*
X171672818Y-95868277D01*
X171672821Y-95868284D01*
X171767467Y-96032216D01*
X171857063Y-96131722D01*
X171894129Y-96172888D01*
X172047265Y-96284148D01*
X172047270Y-96284151D01*
X172220192Y-96361142D01*
X172220197Y-96361144D01*
X172405354Y-96400500D01*
X172405355Y-96400500D01*
X172594644Y-96400500D01*
X172594646Y-96400500D01*
X172779803Y-96361144D01*
X172952730Y-96284151D01*
X173105871Y-96172888D01*
X173232533Y-96032216D01*
X173327179Y-95868284D01*
X173385674Y-95688256D01*
X173405460Y-95500000D01*
X173385674Y-95311744D01*
X173327179Y-95131716D01*
X173232533Y-94967784D01*
X173105871Y-94827112D01*
X173105870Y-94827111D01*
X172952734Y-94715851D01*
X172952729Y-94715848D01*
X172779807Y-94638857D01*
X172779802Y-94638855D01*
X172634000Y-94607865D01*
X172594646Y-94599500D01*
X172405354Y-94599500D01*
X172372897Y-94606398D01*
X172220197Y-94638855D01*
X172220192Y-94638857D01*
X172047270Y-94715848D01*
X172047265Y-94715851D01*
X171894129Y-94827111D01*
X171767466Y-94967785D01*
X171672821Y-95131715D01*
X171672818Y-95131722D01*
X171614327Y-95311740D01*
X171614326Y-95311744D01*
X171594540Y-95500000D01*
X134834979Y-95500000D01*
X134816146Y-95260698D01*
X134759172Y-95023388D01*
X134757858Y-95020216D01*
X134665777Y-94797910D01*
X134538262Y-94589826D01*
X134538261Y-94589823D01*
X134489058Y-94532214D01*
X134379759Y-94404241D01*
X134257409Y-94299744D01*
X134236737Y-94282088D01*
X134222073Y-94259625D01*
X133573166Y-93610718D01*
X133539681Y-93549395D01*
X133544665Y-93479703D01*
X133582588Y-93426853D01*
X133685739Y-93342934D01*
X133736052Y-93271655D01*
X133790793Y-93228239D01*
X133860318Y-93221310D01*
X133922553Y-93253068D01*
X133925037Y-93255484D01*
X134541494Y-93871942D01*
X134665331Y-93669861D01*
X134758696Y-93444457D01*
X134815651Y-93207219D01*
X134834792Y-92964000D01*
X134815651Y-92720780D01*
X134764668Y-92508419D01*
X134768159Y-92438637D01*
X134808822Y-92381819D01*
X134873749Y-92356006D01*
X134911018Y-92358181D01*
X134997327Y-92376527D01*
X134997328Y-92376527D01*
X135186617Y-92376527D01*
X135186619Y-92376527D01*
X135371776Y-92337171D01*
X135544703Y-92260178D01*
X135697844Y-92148915D01*
X135824506Y-92008243D01*
X135919152Y-91844311D01*
X135977647Y-91664283D01*
X135997433Y-91476027D01*
X135977647Y-91287771D01*
X135919152Y-91107743D01*
X135824506Y-90943811D01*
X135697844Y-90803139D01*
X135697843Y-90803138D01*
X135544707Y-90691878D01*
X135544702Y-90691875D01*
X135371780Y-90614884D01*
X135371775Y-90614882D01*
X135201109Y-90578607D01*
X135186619Y-90575527D01*
X134997327Y-90575527D01*
X134997326Y-90575527D01*
X134982834Y-90578607D01*
X134913167Y-90573289D01*
X134857434Y-90531151D01*
X134833330Y-90465571D01*
X134833436Y-90447596D01*
X134835294Y-90424000D01*
X134816146Y-90180698D01*
X134759172Y-89943388D01*
X134665777Y-89717911D01*
X134665777Y-89717910D01*
X134538262Y-89509826D01*
X134538261Y-89509823D01*
X134379756Y-89324238D01*
X134290832Y-89248290D01*
X134252638Y-89189784D01*
X134252139Y-89119916D01*
X134289493Y-89060869D01*
X134290832Y-89059710D01*
X134322276Y-89032853D01*
X134379759Y-88983759D01*
X134538259Y-88798179D01*
X134665777Y-88590089D01*
X134759172Y-88364612D01*
X134816146Y-88127302D01*
X134835294Y-87884000D01*
X134816146Y-87640698D01*
X134759172Y-87403388D01*
X134665777Y-87177911D01*
X134665777Y-87177910D01*
X134538262Y-86969826D01*
X134538261Y-86969823D01*
X134502453Y-86927897D01*
X134379759Y-86784241D01*
X134257063Y-86679449D01*
X134194176Y-86625738D01*
X134194173Y-86625737D01*
X133986089Y-86498222D01*
X133760618Y-86404830D01*
X133760621Y-86404830D01*
X133654992Y-86379470D01*
X133523302Y-86347854D01*
X133523300Y-86347853D01*
X133523297Y-86347853D01*
X133280000Y-86328706D01*
X133036702Y-86347853D01*
X132799380Y-86404830D01*
X132573910Y-86498222D01*
X132365826Y-86625737D01*
X132365823Y-86625738D01*
X132180241Y-86784241D01*
X132021738Y-86969823D01*
X132021737Y-86969826D01*
X131894222Y-87177910D01*
X131800830Y-87403380D01*
X131743853Y-87640702D01*
X131724706Y-87884000D01*
X131743853Y-88127297D01*
X131800830Y-88364619D01*
X131894222Y-88590089D01*
X132021737Y-88798173D01*
X132021738Y-88798176D01*
X132021741Y-88798179D01*
X132180241Y-88983759D01*
X132248250Y-89041844D01*
X132269168Y-89059710D01*
X132307361Y-89118217D01*
X132307859Y-89188085D01*
X132270505Y-89247131D01*
X132269168Y-89248290D01*
X132180241Y-89324241D01*
X132021738Y-89509823D01*
X132021737Y-89509826D01*
X131894222Y-89717910D01*
X131800830Y-89943380D01*
X131743853Y-90180702D01*
X131724706Y-90424000D01*
X131743853Y-90667297D01*
X131800830Y-90904619D01*
X131894222Y-91130089D01*
X132021737Y-91338173D01*
X132021738Y-91338176D01*
X132021741Y-91338179D01*
X132180241Y-91523759D01*
X132323261Y-91645909D01*
X132337926Y-91668373D01*
X132986833Y-92317280D01*
X133020318Y-92378603D01*
X133015334Y-92448294D01*
X132977408Y-92501148D01*
X132874262Y-92585064D01*
X132874258Y-92585069D01*
X132823947Y-92656343D01*
X132769204Y-92699760D01*
X132699679Y-92706689D01*
X132637444Y-92674930D01*
X132634962Y-92672515D01*
X132018504Y-92056056D01*
X131894668Y-92258141D01*
X131894665Y-92258146D01*
X131801303Y-92483542D01*
X131744348Y-92720780D01*
X131725207Y-92964000D01*
X131744348Y-93207219D01*
X131801303Y-93444457D01*
X131894668Y-93669861D01*
X132018504Y-93871942D01*
X132631482Y-93258964D01*
X132692805Y-93225479D01*
X132762496Y-93230463D01*
X132818430Y-93272334D01*
X132821514Y-93277249D01*
X132821549Y-93277225D01*
X132826441Y-93284156D01*
X132909281Y-93372855D01*
X132929638Y-93394652D01*
X132964698Y-93415973D01*
X133011749Y-93467623D01*
X133023407Y-93536513D01*
X132995970Y-93600770D01*
X132987950Y-93609601D01*
X132349979Y-94247571D01*
X132323261Y-94282090D01*
X132180241Y-94404241D01*
X132021738Y-94589823D01*
X132021737Y-94589826D01*
X131894222Y-94797910D01*
X131800830Y-95023380D01*
X131743853Y-95260702D01*
X131724706Y-95504000D01*
X105800500Y-95504000D01*
X105800500Y-94000000D01*
X109094540Y-94000000D01*
X109114326Y-94188256D01*
X109114327Y-94188259D01*
X109172818Y-94368277D01*
X109172821Y-94368284D01*
X109267467Y-94532216D01*
X109363487Y-94638857D01*
X109394129Y-94672888D01*
X109547265Y-94784148D01*
X109547270Y-94784151D01*
X109720192Y-94861142D01*
X109720197Y-94861144D01*
X109905354Y-94900500D01*
X109905355Y-94900500D01*
X110094644Y-94900500D01*
X110094646Y-94900500D01*
X110279803Y-94861144D01*
X110452730Y-94784151D01*
X110605871Y-94672888D01*
X110732533Y-94532216D01*
X110827179Y-94368284D01*
X110870163Y-94235991D01*
X110909599Y-94178318D01*
X110973957Y-94151119D01*
X111042803Y-94163033D01*
X111094280Y-94210277D01*
X111111414Y-94261349D01*
X111128326Y-94422256D01*
X111128327Y-94422259D01*
X111186818Y-94602277D01*
X111186821Y-94602284D01*
X111281467Y-94766216D01*
X111362559Y-94856277D01*
X111408129Y-94906888D01*
X111561265Y-95018148D01*
X111561270Y-95018151D01*
X111734192Y-95095142D01*
X111734197Y-95095144D01*
X111919354Y-95134500D01*
X111919355Y-95134500D01*
X112108644Y-95134500D01*
X112108646Y-95134500D01*
X112293803Y-95095144D01*
X112466730Y-95018151D01*
X112619871Y-94906888D01*
X112746533Y-94766216D01*
X112795613Y-94681205D01*
X112846179Y-94632991D01*
X112914786Y-94619767D01*
X112979651Y-94645735D01*
X113010385Y-94681203D01*
X113030388Y-94715849D01*
X113059467Y-94766216D01*
X113186129Y-94906888D01*
X113339265Y-95018148D01*
X113339270Y-95018151D01*
X113512192Y-95095142D01*
X113512197Y-95095144D01*
X113697354Y-95134500D01*
X113697355Y-95134500D01*
X113886644Y-95134500D01*
X113886646Y-95134500D01*
X114071803Y-95095144D01*
X114244730Y-95018151D01*
X114397871Y-94906888D01*
X114524533Y-94766216D01*
X114619179Y-94602284D01*
X114656312Y-94488000D01*
X117712540Y-94488000D01*
X117732326Y-94676256D01*
X117732327Y-94676259D01*
X117790818Y-94856277D01*
X117790821Y-94856284D01*
X117885467Y-95020216D01*
X117985868Y-95131722D01*
X118012129Y-95160888D01*
X118165265Y-95272148D01*
X118165270Y-95272151D01*
X118338192Y-95349142D01*
X118338197Y-95349144D01*
X118523354Y-95388500D01*
X118523355Y-95388500D01*
X118712644Y-95388500D01*
X118712646Y-95388500D01*
X118897803Y-95349144D01*
X119070730Y-95272151D01*
X119223871Y-95160888D01*
X119350533Y-95020216D01*
X119445179Y-94856284D01*
X119503674Y-94676256D01*
X119523460Y-94488000D01*
X119503674Y-94299744D01*
X119445179Y-94119716D01*
X119350533Y-93955784D01*
X119223871Y-93815112D01*
X119223870Y-93815111D01*
X119070734Y-93703851D01*
X119070729Y-93703848D01*
X118897807Y-93626857D01*
X118897802Y-93626855D01*
X118752000Y-93595865D01*
X118712646Y-93587500D01*
X118523354Y-93587500D01*
X118490897Y-93594398D01*
X118338197Y-93626855D01*
X118338192Y-93626857D01*
X118165270Y-93703848D01*
X118165265Y-93703851D01*
X118012129Y-93815111D01*
X117885466Y-93955785D01*
X117790821Y-94119715D01*
X117790818Y-94119722D01*
X117738062Y-94282090D01*
X117732326Y-94299744D01*
X117712540Y-94488000D01*
X114656312Y-94488000D01*
X114677674Y-94422256D01*
X114697460Y-94234000D01*
X114677674Y-94045744D01*
X114619179Y-93865716D01*
X114524533Y-93701784D01*
X114397871Y-93561112D01*
X114381744Y-93549395D01*
X114244734Y-93449851D01*
X114244729Y-93449848D01*
X114071807Y-93372857D01*
X114071802Y-93372855D01*
X113926000Y-93341865D01*
X113886646Y-93333500D01*
X113697354Y-93333500D01*
X113664897Y-93340398D01*
X113512197Y-93372855D01*
X113512192Y-93372857D01*
X113339270Y-93449848D01*
X113339265Y-93449851D01*
X113186129Y-93561111D01*
X113059467Y-93701783D01*
X113010386Y-93786794D01*
X112959818Y-93835009D01*
X112891211Y-93848231D01*
X112826347Y-93822263D01*
X112795613Y-93786794D01*
X112746533Y-93701784D01*
X112619871Y-93561112D01*
X112603744Y-93549395D01*
X112466734Y-93449851D01*
X112466729Y-93449848D01*
X112293807Y-93372857D01*
X112293802Y-93372855D01*
X112148000Y-93341865D01*
X112108646Y-93333500D01*
X111919354Y-93333500D01*
X111886897Y-93340398D01*
X111734197Y-93372855D01*
X111734192Y-93372857D01*
X111561270Y-93449848D01*
X111561265Y-93449851D01*
X111408129Y-93561111D01*
X111281466Y-93701785D01*
X111186821Y-93865715D01*
X111186818Y-93865722D01*
X111143837Y-93998006D01*
X111104400Y-94055682D01*
X111040041Y-94082880D01*
X110971195Y-94070965D01*
X110919719Y-94023721D01*
X110902585Y-93972649D01*
X110902081Y-93967854D01*
X110885674Y-93811744D01*
X110827179Y-93631716D01*
X110732533Y-93467784D01*
X110605871Y-93327112D01*
X110605870Y-93327111D01*
X110452734Y-93215851D01*
X110452729Y-93215848D01*
X110279807Y-93138857D01*
X110279802Y-93138855D01*
X110134001Y-93107865D01*
X110094646Y-93099500D01*
X109905354Y-93099500D01*
X109872897Y-93106398D01*
X109720197Y-93138855D01*
X109720192Y-93138857D01*
X109547270Y-93215848D01*
X109547265Y-93215851D01*
X109394129Y-93327111D01*
X109267466Y-93467785D01*
X109172821Y-93631715D01*
X109172818Y-93631722D01*
X109114327Y-93811740D01*
X109114326Y-93811744D01*
X109094540Y-94000000D01*
X105800500Y-94000000D01*
X105800500Y-83820000D01*
X113013540Y-83820000D01*
X113033326Y-84008256D01*
X113033327Y-84008259D01*
X113091818Y-84188277D01*
X113091821Y-84188284D01*
X113186467Y-84352216D01*
X113313129Y-84492887D01*
X113313129Y-84492888D01*
X113466265Y-84604148D01*
X113466270Y-84604151D01*
X113639192Y-84681142D01*
X113639197Y-84681144D01*
X113824354Y-84720500D01*
X113824355Y-84720500D01*
X114013644Y-84720500D01*
X114013646Y-84720500D01*
X114198803Y-84681144D01*
X114371730Y-84604151D01*
X114524871Y-84492888D01*
X114651533Y-84352216D01*
X114746179Y-84188284D01*
X114804674Y-84008256D01*
X114824460Y-83820000D01*
X114804674Y-83631744D01*
X114761868Y-83500000D01*
X119094540Y-83500000D01*
X119114326Y-83688256D01*
X119114327Y-83688259D01*
X119172818Y-83868277D01*
X119172821Y-83868284D01*
X119267467Y-84032216D01*
X119394129Y-84172887D01*
X119394129Y-84172888D01*
X119547265Y-84284148D01*
X119547270Y-84284151D01*
X119720192Y-84361142D01*
X119720197Y-84361144D01*
X119905354Y-84400500D01*
X119905355Y-84400500D01*
X120094644Y-84400500D01*
X120094646Y-84400500D01*
X120279803Y-84361144D01*
X120452730Y-84284151D01*
X120605871Y-84172888D01*
X120732533Y-84032216D01*
X120827179Y-83868284D01*
X120885674Y-83688256D01*
X120905460Y-83500000D01*
X120885674Y-83311744D01*
X120827179Y-83131716D01*
X120732533Y-82967784D01*
X120605871Y-82827112D01*
X120605870Y-82827111D01*
X120452734Y-82715851D01*
X120452729Y-82715848D01*
X120279807Y-82638857D01*
X120279802Y-82638855D01*
X120134001Y-82607865D01*
X120094646Y-82599500D01*
X119905354Y-82599500D01*
X119872897Y-82606398D01*
X119720197Y-82638855D01*
X119720192Y-82638857D01*
X119547270Y-82715848D01*
X119547265Y-82715851D01*
X119394129Y-82827111D01*
X119267466Y-82967785D01*
X119172821Y-83131715D01*
X119172818Y-83131722D01*
X119114327Y-83311740D01*
X119114326Y-83311744D01*
X119094540Y-83500000D01*
X114761868Y-83500000D01*
X114746179Y-83451716D01*
X114651533Y-83287784D01*
X114524871Y-83147112D01*
X114524870Y-83147111D01*
X114371734Y-83035851D01*
X114371729Y-83035848D01*
X114198807Y-82958857D01*
X114198802Y-82958855D01*
X114053001Y-82927865D01*
X114013646Y-82919500D01*
X113824354Y-82919500D01*
X113791897Y-82926398D01*
X113639197Y-82958855D01*
X113639192Y-82958857D01*
X113466270Y-83035848D01*
X113466265Y-83035851D01*
X113313129Y-83147111D01*
X113186466Y-83287785D01*
X113091821Y-83451715D01*
X113091818Y-83451722D01*
X113076132Y-83500000D01*
X113033326Y-83631744D01*
X113013540Y-83820000D01*
X105800500Y-83820000D01*
X105800500Y-82042000D01*
X115010040Y-82042000D01*
X115029826Y-82230256D01*
X115029827Y-82230259D01*
X115088318Y-82410277D01*
X115088321Y-82410284D01*
X115182967Y-82574216D01*
X115309629Y-82714888D01*
X115462765Y-82826148D01*
X115462770Y-82826151D01*
X115635692Y-82903142D01*
X115635697Y-82903144D01*
X115820854Y-82942500D01*
X115820855Y-82942500D01*
X116010144Y-82942500D01*
X116010146Y-82942500D01*
X116195303Y-82903144D01*
X116368230Y-82826151D01*
X116521371Y-82714888D01*
X116648033Y-82574216D01*
X116742679Y-82410284D01*
X116801174Y-82230256D01*
X116820960Y-82042000D01*
X116801174Y-81853744D01*
X116742679Y-81673716D01*
X116648033Y-81509784D01*
X116521371Y-81369112D01*
X116521370Y-81369111D01*
X116368234Y-81257851D01*
X116368229Y-81257848D01*
X116195307Y-81180857D01*
X116195302Y-81180855D01*
X116049500Y-81149865D01*
X116010146Y-81141500D01*
X115820854Y-81141500D01*
X115788397Y-81148398D01*
X115635697Y-81180855D01*
X115635692Y-81180857D01*
X115462770Y-81257848D01*
X115462765Y-81257851D01*
X115309629Y-81369111D01*
X115182966Y-81509785D01*
X115088321Y-81673715D01*
X115088318Y-81673722D01*
X115052439Y-81784148D01*
X115029826Y-81853744D01*
X115010040Y-82042000D01*
X105800500Y-82042000D01*
X105800500Y-81000000D01*
X106094540Y-81000000D01*
X106114326Y-81188256D01*
X106114327Y-81188259D01*
X106172818Y-81368277D01*
X106172821Y-81368284D01*
X106267467Y-81532216D01*
X106394128Y-81672887D01*
X106394129Y-81672888D01*
X106547265Y-81784148D01*
X106547270Y-81784151D01*
X106720192Y-81861142D01*
X106720197Y-81861144D01*
X106905354Y-81900500D01*
X106905355Y-81900500D01*
X107094644Y-81900500D01*
X107094646Y-81900500D01*
X107279803Y-81861144D01*
X107452730Y-81784151D01*
X107605871Y-81672888D01*
X107732533Y-81532216D01*
X107827179Y-81368284D01*
X107885674Y-81188256D01*
X107905460Y-81000000D01*
X111594540Y-81000000D01*
X111614326Y-81188256D01*
X111614327Y-81188259D01*
X111672818Y-81368277D01*
X111672821Y-81368284D01*
X111767467Y-81532216D01*
X111894128Y-81672887D01*
X111894129Y-81672888D01*
X112047265Y-81784148D01*
X112047270Y-81784151D01*
X112220192Y-81861142D01*
X112220197Y-81861144D01*
X112405354Y-81900500D01*
X112405355Y-81900500D01*
X112594644Y-81900500D01*
X112594646Y-81900500D01*
X112779803Y-81861144D01*
X112952730Y-81784151D01*
X113105871Y-81672888D01*
X113232533Y-81532216D01*
X113327179Y-81368284D01*
X113385674Y-81188256D01*
X113405460Y-81000000D01*
X131094540Y-81000000D01*
X131114326Y-81188256D01*
X131114327Y-81188259D01*
X131172818Y-81368277D01*
X131172821Y-81368284D01*
X131267467Y-81532216D01*
X131394128Y-81672887D01*
X131394129Y-81672888D01*
X131547265Y-81784148D01*
X131547270Y-81784151D01*
X131720192Y-81861142D01*
X131720197Y-81861144D01*
X131905354Y-81900500D01*
X131905355Y-81900500D01*
X132094644Y-81900500D01*
X132094646Y-81900500D01*
X132279803Y-81861144D01*
X132452730Y-81784151D01*
X132605871Y-81672888D01*
X132732533Y-81532216D01*
X132827179Y-81368284D01*
X132885674Y-81188256D01*
X132905460Y-81000000D01*
X132885674Y-80811744D01*
X132827179Y-80631716D01*
X132732533Y-80467784D01*
X132611146Y-80332971D01*
X132580917Y-80269981D01*
X132589542Y-80200646D01*
X132611147Y-80167028D01*
X132732533Y-80032216D01*
X132827179Y-79868284D01*
X132885674Y-79688256D01*
X132905460Y-79500000D01*
X132885674Y-79311744D01*
X132827179Y-79131716D01*
X132825480Y-79128774D01*
X134699500Y-79128774D01*
X134700950Y-79138856D01*
X134736151Y-79383696D01*
X134736154Y-79383706D01*
X134808714Y-79630822D01*
X134915696Y-79865080D01*
X134915709Y-79865103D01*
X135054939Y-80081749D01*
X135054943Y-80081755D01*
X135223601Y-80276398D01*
X135418244Y-80445056D01*
X135418250Y-80445060D01*
X135634896Y-80584290D01*
X135634919Y-80584303D01*
X135869177Y-80691285D01*
X135869181Y-80691286D01*
X135869183Y-80691287D01*
X136116299Y-80763847D01*
X136116300Y-80763847D01*
X136116303Y-80763848D01*
X136185351Y-80773775D01*
X136371226Y-80800500D01*
X136371229Y-80800500D01*
X139628771Y-80800500D01*
X139628774Y-80800500D01*
X139838013Y-80770415D01*
X139883696Y-80763848D01*
X139883697Y-80763847D01*
X139883701Y-80763847D01*
X140130817Y-80691287D01*
X140130820Y-80691285D01*
X140130822Y-80691285D01*
X140365080Y-80584303D01*
X140365084Y-80584300D01*
X140365092Y-80584297D01*
X140581756Y-80445056D01*
X140776398Y-80276398D01*
X140945056Y-80081756D01*
X141084297Y-79865092D01*
X141084300Y-79865084D01*
X141084303Y-79865080D01*
X141191285Y-79630822D01*
X141191285Y-79630820D01*
X141191287Y-79630817D01*
X141263847Y-79383701D01*
X141300500Y-79128774D01*
X172199500Y-79128774D01*
X172200950Y-79138856D01*
X172236151Y-79383696D01*
X172236154Y-79383706D01*
X172308714Y-79630822D01*
X172415696Y-79865080D01*
X172415709Y-79865103D01*
X172554939Y-80081749D01*
X172554943Y-80081755D01*
X172723601Y-80276398D01*
X172918244Y-80445056D01*
X172918250Y-80445060D01*
X173134896Y-80584290D01*
X173134919Y-80584303D01*
X173369177Y-80691285D01*
X173369181Y-80691286D01*
X173369183Y-80691287D01*
X173616299Y-80763847D01*
X173616300Y-80763847D01*
X173616303Y-80763848D01*
X173685351Y-80773775D01*
X173871226Y-80800500D01*
X173871229Y-80800500D01*
X177128771Y-80800500D01*
X177128774Y-80800500D01*
X177338013Y-80770415D01*
X177383696Y-80763848D01*
X177383697Y-80763847D01*
X177383701Y-80763847D01*
X177630817Y-80691287D01*
X177630820Y-80691285D01*
X177630822Y-80691285D01*
X177865080Y-80584303D01*
X177865084Y-80584300D01*
X177865092Y-80584297D01*
X178081756Y-80445056D01*
X178276398Y-80276398D01*
X178445056Y-80081756D01*
X178497597Y-80000000D01*
X179594540Y-80000000D01*
X179614326Y-80188256D01*
X179614327Y-80188259D01*
X179672818Y-80368277D01*
X179672821Y-80368284D01*
X179767467Y-80532216D01*
X179857063Y-80631722D01*
X179894129Y-80672888D01*
X180047265Y-80784148D01*
X180047270Y-80784151D01*
X180220192Y-80861142D01*
X180220197Y-80861144D01*
X180405354Y-80900500D01*
X180405355Y-80900500D01*
X180594644Y-80900500D01*
X180594646Y-80900500D01*
X180779803Y-80861144D01*
X180952730Y-80784151D01*
X181105871Y-80672888D01*
X181232533Y-80532216D01*
X181327179Y-80368284D01*
X181385674Y-80188256D01*
X181405460Y-80000000D01*
X187594540Y-80000000D01*
X187614326Y-80188256D01*
X187614327Y-80188259D01*
X187672818Y-80368277D01*
X187672821Y-80368284D01*
X187767467Y-80532216D01*
X187857063Y-80631722D01*
X187894129Y-80672888D01*
X188047265Y-80784148D01*
X188047270Y-80784151D01*
X188220192Y-80861142D01*
X188220197Y-80861144D01*
X188405354Y-80900500D01*
X188405355Y-80900500D01*
X188594644Y-80900500D01*
X188594646Y-80900500D01*
X188779803Y-80861144D01*
X188952730Y-80784151D01*
X189105871Y-80672888D01*
X189232533Y-80532216D01*
X189327179Y-80368284D01*
X189385674Y-80188256D01*
X189405460Y-80000000D01*
X189385674Y-79811744D01*
X189327179Y-79631716D01*
X189232533Y-79467784D01*
X189105871Y-79327112D01*
X189084719Y-79311744D01*
X188952734Y-79215851D01*
X188952729Y-79215848D01*
X188779807Y-79138857D01*
X188779802Y-79138855D01*
X188634000Y-79107865D01*
X188594646Y-79099500D01*
X188405354Y-79099500D01*
X188372897Y-79106398D01*
X188220197Y-79138855D01*
X188220192Y-79138857D01*
X188047270Y-79215848D01*
X188047265Y-79215851D01*
X187894129Y-79327111D01*
X187767466Y-79467785D01*
X187672821Y-79631715D01*
X187672818Y-79631722D01*
X187614327Y-79811740D01*
X187614326Y-79811744D01*
X187594540Y-80000000D01*
X181405460Y-80000000D01*
X181385674Y-79811744D01*
X181327179Y-79631716D01*
X181232533Y-79467784D01*
X181105871Y-79327112D01*
X181084719Y-79311744D01*
X180952734Y-79215851D01*
X180952729Y-79215848D01*
X180779807Y-79138857D01*
X180779802Y-79138855D01*
X180634000Y-79107865D01*
X180594646Y-79099500D01*
X180405354Y-79099500D01*
X180372897Y-79106398D01*
X180220197Y-79138855D01*
X180220192Y-79138857D01*
X180047270Y-79215848D01*
X180047265Y-79215851D01*
X179894129Y-79327111D01*
X179767466Y-79467785D01*
X179672821Y-79631715D01*
X179672818Y-79631722D01*
X179614327Y-79811740D01*
X179614326Y-79811744D01*
X179594540Y-80000000D01*
X178497597Y-80000000D01*
X178584297Y-79865092D01*
X178584300Y-79865084D01*
X178584303Y-79865080D01*
X178691285Y-79630822D01*
X178691285Y-79630820D01*
X178691287Y-79630817D01*
X178763847Y-79383701D01*
X178800500Y-79128774D01*
X178800500Y-78871226D01*
X178773775Y-78685351D01*
X178763848Y-78616303D01*
X178763845Y-78616293D01*
X178744891Y-78551740D01*
X178691287Y-78369183D01*
X178691286Y-78369181D01*
X178691285Y-78369177D01*
X178584303Y-78134919D01*
X178584290Y-78134896D01*
X178445060Y-77918250D01*
X178445056Y-77918244D01*
X178276398Y-77723601D01*
X178081755Y-77554943D01*
X178081749Y-77554939D01*
X177865103Y-77415709D01*
X177865080Y-77415696D01*
X177630822Y-77308714D01*
X177383706Y-77236154D01*
X177383696Y-77236151D01*
X177175502Y-77206218D01*
X177128774Y-77199500D01*
X177044954Y-77199500D01*
X174084136Y-77199500D01*
X174000000Y-77199500D01*
X173871226Y-77199500D01*
X173847861Y-77202859D01*
X173616303Y-77236151D01*
X173616293Y-77236154D01*
X173369177Y-77308714D01*
X173134919Y-77415696D01*
X173134896Y-77415709D01*
X172918250Y-77554939D01*
X172918244Y-77554943D01*
X172723601Y-77723601D01*
X172554943Y-77918244D01*
X172554939Y-77918250D01*
X172415709Y-78134896D01*
X172415696Y-78134919D01*
X172308714Y-78369177D01*
X172236154Y-78616293D01*
X172236151Y-78616303D01*
X172218367Y-78740000D01*
X172199500Y-78871226D01*
X172199500Y-79128774D01*
X141300500Y-79128774D01*
X141300500Y-78871226D01*
X141273775Y-78685351D01*
X141263848Y-78616303D01*
X141263845Y-78616293D01*
X141244891Y-78551740D01*
X141191287Y-78369183D01*
X141191286Y-78369181D01*
X141191285Y-78369177D01*
X141084303Y-78134919D01*
X141084290Y-78134896D01*
X140945060Y-77918250D01*
X140945056Y-77918244D01*
X140776398Y-77723601D01*
X140581755Y-77554943D01*
X140581749Y-77554939D01*
X140365103Y-77415709D01*
X140365080Y-77415696D01*
X140130822Y-77308714D01*
X139883706Y-77236154D01*
X139883696Y-77236151D01*
X139675502Y-77206218D01*
X139628774Y-77199500D01*
X139544954Y-77199500D01*
X136584136Y-77199500D01*
X136500000Y-77199500D01*
X136371226Y-77199500D01*
X136347861Y-77202859D01*
X136116303Y-77236151D01*
X136116293Y-77236154D01*
X135869177Y-77308714D01*
X135634919Y-77415696D01*
X135634896Y-77415709D01*
X135418250Y-77554939D01*
X135418244Y-77554943D01*
X135223601Y-77723601D01*
X135054943Y-77918244D01*
X135054939Y-77918250D01*
X134915709Y-78134896D01*
X134915696Y-78134919D01*
X134808714Y-78369177D01*
X134736154Y-78616293D01*
X134736151Y-78616303D01*
X134718367Y-78740000D01*
X134699500Y-78871226D01*
X134699500Y-79128774D01*
X132825480Y-79128774D01*
X132732533Y-78967784D01*
X132605871Y-78827112D01*
X132605870Y-78827111D01*
X132452734Y-78715851D01*
X132452729Y-78715848D01*
X132279807Y-78638857D01*
X132279802Y-78638855D01*
X132134001Y-78607865D01*
X132094646Y-78599500D01*
X131905354Y-78599500D01*
X131872897Y-78606398D01*
X131720197Y-78638855D01*
X131720192Y-78638857D01*
X131547270Y-78715848D01*
X131547265Y-78715851D01*
X131394129Y-78827111D01*
X131267466Y-78967785D01*
X131172821Y-79131715D01*
X131172818Y-79131722D01*
X131114327Y-79311740D01*
X131114326Y-79311744D01*
X131094540Y-79500000D01*
X131114326Y-79688256D01*
X131114327Y-79688259D01*
X131172818Y-79868277D01*
X131172821Y-79868284D01*
X131267466Y-80032215D01*
X131388851Y-80167028D01*
X131419081Y-80230020D01*
X131410455Y-80299355D01*
X131388851Y-80332972D01*
X131267466Y-80467784D01*
X131172821Y-80631715D01*
X131172818Y-80631722D01*
X131117979Y-80800500D01*
X131114326Y-80811744D01*
X131094540Y-81000000D01*
X113405460Y-81000000D01*
X113385674Y-80811744D01*
X113327179Y-80631716D01*
X113232533Y-80467784D01*
X113105871Y-80327112D01*
X113067667Y-80299355D01*
X112952734Y-80215851D01*
X112952729Y-80215848D01*
X112779807Y-80138857D01*
X112779802Y-80138855D01*
X112634000Y-80107865D01*
X112594646Y-80099500D01*
X112405354Y-80099500D01*
X112372897Y-80106398D01*
X112220197Y-80138855D01*
X112220192Y-80138857D01*
X112047270Y-80215848D01*
X112047265Y-80215851D01*
X111894129Y-80327111D01*
X111767466Y-80467785D01*
X111672821Y-80631715D01*
X111672818Y-80631722D01*
X111617979Y-80800500D01*
X111614326Y-80811744D01*
X111594540Y-81000000D01*
X107905460Y-81000000D01*
X107885674Y-80811744D01*
X107827179Y-80631716D01*
X107732533Y-80467784D01*
X107605871Y-80327112D01*
X107567667Y-80299355D01*
X107452734Y-80215851D01*
X107452729Y-80215848D01*
X107279807Y-80138857D01*
X107279802Y-80138855D01*
X107134000Y-80107865D01*
X107094646Y-80099500D01*
X106905354Y-80099500D01*
X106872897Y-80106398D01*
X106720197Y-80138855D01*
X106720192Y-80138857D01*
X106547270Y-80215848D01*
X106547265Y-80215851D01*
X106394129Y-80327111D01*
X106267466Y-80467785D01*
X106172821Y-80631715D01*
X106172818Y-80631722D01*
X106117979Y-80800500D01*
X106114326Y-80811744D01*
X106094540Y-81000000D01*
X105800500Y-81000000D01*
X105800500Y-78740000D01*
X108822540Y-78740000D01*
X108842326Y-78928256D01*
X108842327Y-78928259D01*
X108900818Y-79108277D01*
X108900821Y-79108284D01*
X108995467Y-79272216D01*
X109122129Y-79412887D01*
X109122129Y-79412888D01*
X109275265Y-79524148D01*
X109275270Y-79524151D01*
X109448192Y-79601142D01*
X109448197Y-79601144D01*
X109633354Y-79640500D01*
X109633355Y-79640500D01*
X109822644Y-79640500D01*
X109822646Y-79640500D01*
X110007803Y-79601144D01*
X110180730Y-79524151D01*
X110333871Y-79412888D01*
X110460533Y-79272216D01*
X110555179Y-79108284D01*
X110613674Y-78928256D01*
X110633460Y-78740000D01*
X110613674Y-78551744D01*
X110555179Y-78371716D01*
X110460533Y-78207784D01*
X110333871Y-78067112D01*
X110333870Y-78067111D01*
X110180734Y-77955851D01*
X110180729Y-77955848D01*
X110007807Y-77878857D01*
X110007802Y-77878855D01*
X109862001Y-77847865D01*
X109822646Y-77839500D01*
X109633354Y-77839500D01*
X109600897Y-77846398D01*
X109448197Y-77878855D01*
X109448192Y-77878857D01*
X109275270Y-77955848D01*
X109275265Y-77955851D01*
X109122129Y-78067111D01*
X108995466Y-78207785D01*
X108900821Y-78371715D01*
X108900818Y-78371722D01*
X108842327Y-78551740D01*
X108842326Y-78551744D01*
X108822540Y-78740000D01*
X105800500Y-78740000D01*
X105800500Y-76285055D01*
X109299500Y-76285055D01*
X109340210Y-76450226D01*
X109419263Y-76600849D01*
X109419266Y-76600852D01*
X109532071Y-76728183D01*
X109622318Y-76790476D01*
X109672068Y-76824817D01*
X109672069Y-76824817D01*
X109672070Y-76824818D01*
X109831128Y-76885140D01*
X109907028Y-76894356D01*
X109957626Y-76900500D01*
X109957628Y-76900500D01*
X110042374Y-76900500D01*
X110084538Y-76895380D01*
X110168872Y-76885140D01*
X110327930Y-76824818D01*
X110467929Y-76728183D01*
X110580734Y-76600852D01*
X110633666Y-76500000D01*
X129594540Y-76500000D01*
X129614326Y-76688256D01*
X129614327Y-76688259D01*
X129672818Y-76868277D01*
X129672821Y-76868284D01*
X129767467Y-77032216D01*
X129894129Y-77172887D01*
X129894129Y-77172888D01*
X130047265Y-77284148D01*
X130047270Y-77284151D01*
X130220192Y-77361142D01*
X130220197Y-77361144D01*
X130405354Y-77400500D01*
X130405355Y-77400500D01*
X130594644Y-77400500D01*
X130594646Y-77400500D01*
X130779803Y-77361144D01*
X130952730Y-77284151D01*
X131105871Y-77172888D01*
X131232533Y-77032216D01*
X131327179Y-76868284D01*
X131385674Y-76688256D01*
X131405460Y-76500000D01*
X131395448Y-76404747D01*
X131408017Y-76336022D01*
X131455749Y-76284998D01*
X131523489Y-76267880D01*
X131589731Y-76290102D01*
X131603110Y-76300891D01*
X131643130Y-76338024D01*
X131643132Y-76338025D01*
X131643135Y-76338028D01*
X131865532Y-76489656D01*
X132108044Y-76606444D01*
X132365254Y-76685783D01*
X132365255Y-76685783D01*
X132365258Y-76685784D01*
X132631408Y-76725899D01*
X132631413Y-76725899D01*
X132631416Y-76725900D01*
X132631417Y-76725900D01*
X132900583Y-76725900D01*
X132900584Y-76725900D01*
X132900591Y-76725899D01*
X133166741Y-76685784D01*
X133166742Y-76685783D01*
X133166746Y-76685783D01*
X133423956Y-76606444D01*
X133666468Y-76489656D01*
X133888865Y-76338028D01*
X134086180Y-76154948D01*
X134254003Y-75944503D01*
X134388587Y-75711397D01*
X134486925Y-75460835D01*
X134546821Y-75198416D01*
X134566936Y-74930004D01*
X178965064Y-74930004D01*
X178985177Y-75198406D01*
X178985178Y-75198411D01*
X179045071Y-75460821D01*
X179045077Y-75460840D01*
X179143413Y-75711397D01*
X179277999Y-75944506D01*
X179296563Y-75967785D01*
X179445820Y-76154948D01*
X179558758Y-76259738D01*
X179643130Y-76338024D01*
X179643132Y-76338025D01*
X179643135Y-76338028D01*
X179865532Y-76489656D01*
X180108044Y-76606444D01*
X180365254Y-76685783D01*
X180365255Y-76685783D01*
X180365258Y-76685784D01*
X180631408Y-76725899D01*
X180631413Y-76725899D01*
X180631416Y-76725900D01*
X180631417Y-76725900D01*
X180900583Y-76725900D01*
X180900584Y-76725900D01*
X180900591Y-76725899D01*
X181166741Y-76685784D01*
X181166742Y-76685783D01*
X181166746Y-76685783D01*
X181423956Y-76606444D01*
X181666468Y-76489656D01*
X181888865Y-76338028D01*
X182086180Y-76154948D01*
X182254003Y-75944503D01*
X182388587Y-75711397D01*
X182486925Y-75460835D01*
X182546821Y-75198416D01*
X182566936Y-74930000D01*
X182546821Y-74661584D01*
X182486925Y-74399165D01*
X182388587Y-74148603D01*
X182254003Y-73915497D01*
X182254000Y-73915493D01*
X182086185Y-73705058D01*
X182086183Y-73705056D01*
X182086180Y-73705052D01*
X181982762Y-73609095D01*
X181888869Y-73521975D01*
X181716574Y-73404506D01*
X181666468Y-73370344D01*
X181666465Y-73370343D01*
X181666463Y-73370341D01*
X181423956Y-73253556D01*
X181166747Y-73174217D01*
X181166741Y-73174215D01*
X180900591Y-73134100D01*
X180900584Y-73134100D01*
X180631416Y-73134100D01*
X180631408Y-73134100D01*
X180365258Y-73174215D01*
X180365252Y-73174217D01*
X180108043Y-73253556D01*
X179865536Y-73370341D01*
X179643130Y-73521975D01*
X179445822Y-73705050D01*
X179445814Y-73705058D01*
X179277999Y-73915493D01*
X179143413Y-74148602D01*
X179045077Y-74399159D01*
X179045071Y-74399178D01*
X178985178Y-74661588D01*
X178985177Y-74661593D01*
X178965064Y-74929995D01*
X178965064Y-74930004D01*
X134566936Y-74930004D01*
X134566936Y-74930000D01*
X134546821Y-74661584D01*
X134486925Y-74399165D01*
X134388587Y-74148603D01*
X134254003Y-73915497D01*
X134254000Y-73915493D01*
X134086185Y-73705058D01*
X134086183Y-73705056D01*
X134086180Y-73705052D01*
X133982762Y-73609095D01*
X133888869Y-73521975D01*
X133716574Y-73404506D01*
X133666468Y-73370344D01*
X133666465Y-73370343D01*
X133666463Y-73370341D01*
X133423956Y-73253556D01*
X133166747Y-73174217D01*
X133166741Y-73174215D01*
X132900591Y-73134100D01*
X132900584Y-73134100D01*
X132631416Y-73134100D01*
X132631408Y-73134100D01*
X132365258Y-73174215D01*
X132365252Y-73174217D01*
X132108043Y-73253556D01*
X131865536Y-73370341D01*
X131643130Y-73521975D01*
X131445822Y-73705050D01*
X131445814Y-73705058D01*
X131277999Y-73915493D01*
X131143413Y-74148602D01*
X131045077Y-74399159D01*
X131045071Y-74399178D01*
X130985178Y-74661588D01*
X130985177Y-74661593D01*
X130965064Y-74929995D01*
X130965064Y-74930004D01*
X130985177Y-75198406D01*
X130985178Y-75198411D01*
X131045071Y-75460821D01*
X131045073Y-75460828D01*
X131045075Y-75460835D01*
X131060250Y-75499500D01*
X131075369Y-75538023D01*
X131081537Y-75607620D01*
X131049098Y-75669503D01*
X130988353Y-75704025D01*
X130918587Y-75700225D01*
X130909504Y-75696603D01*
X130779807Y-75638857D01*
X130779802Y-75638855D01*
X130632848Y-75607620D01*
X130594646Y-75599500D01*
X130405354Y-75599500D01*
X130372897Y-75606398D01*
X130220197Y-75638855D01*
X130220192Y-75638857D01*
X130047270Y-75715848D01*
X130047265Y-75715851D01*
X129894129Y-75827111D01*
X129767466Y-75967785D01*
X129672821Y-76131715D01*
X129672818Y-76131722D01*
X129621358Y-76290102D01*
X129614326Y-76311744D01*
X129594540Y-76500000D01*
X110633666Y-76500000D01*
X110659790Y-76450225D01*
X110700500Y-76285056D01*
X110700500Y-76114944D01*
X110659790Y-75949775D01*
X110657023Y-75944503D01*
X110580736Y-75799150D01*
X110561560Y-75777505D01*
X110467929Y-75671817D01*
X110418177Y-75637475D01*
X110327931Y-75575182D01*
X110168874Y-75514860D01*
X110168868Y-75514859D01*
X110042374Y-75499500D01*
X110042372Y-75499500D01*
X109957628Y-75499500D01*
X109957626Y-75499500D01*
X109831131Y-75514859D01*
X109831125Y-75514860D01*
X109672068Y-75575182D01*
X109532072Y-75671816D01*
X109419263Y-75799150D01*
X109340210Y-75949773D01*
X109299500Y-76114944D01*
X109299500Y-76285055D01*
X105800500Y-76285055D01*
X105800500Y-71885055D01*
X109299500Y-71885055D01*
X109340210Y-72050226D01*
X109419263Y-72200849D01*
X109419266Y-72200852D01*
X109532071Y-72328183D01*
X109621621Y-72389995D01*
X109672068Y-72424817D01*
X109672069Y-72424817D01*
X109672070Y-72424818D01*
X109831128Y-72485140D01*
X109907028Y-72494356D01*
X109957626Y-72500500D01*
X109957628Y-72500500D01*
X110042374Y-72500500D01*
X110084538Y-72495380D01*
X110168872Y-72485140D01*
X110327930Y-72424818D01*
X110378366Y-72390004D01*
X123345064Y-72390004D01*
X123365177Y-72658406D01*
X123365178Y-72658411D01*
X123425071Y-72920821D01*
X123425077Y-72920840D01*
X123523413Y-73171397D01*
X123657999Y-73404506D01*
X123751674Y-73521972D01*
X123825820Y-73614948D01*
X123922928Y-73705050D01*
X124023130Y-73798024D01*
X124023132Y-73798025D01*
X124023135Y-73798028D01*
X124245532Y-73949656D01*
X124488044Y-74066444D01*
X124745254Y-74145783D01*
X124745255Y-74145783D01*
X124745258Y-74145784D01*
X125011408Y-74185899D01*
X125011413Y-74185899D01*
X125011416Y-74185900D01*
X125011417Y-74185900D01*
X125280583Y-74185900D01*
X125280584Y-74185900D01*
X125280591Y-74185899D01*
X125546741Y-74145784D01*
X125546742Y-74145783D01*
X125546746Y-74145783D01*
X125803956Y-74066444D01*
X126046468Y-73949656D01*
X126268865Y-73798028D01*
X126466180Y-73614948D01*
X126634003Y-73404503D01*
X126768587Y-73171397D01*
X126866925Y-72920835D01*
X126926821Y-72658416D01*
X126938655Y-72500500D01*
X126946936Y-72390004D01*
X186585064Y-72390004D01*
X186605177Y-72658406D01*
X186605178Y-72658411D01*
X186665071Y-72920821D01*
X186665077Y-72920840D01*
X186763413Y-73171397D01*
X186897999Y-73404506D01*
X186991674Y-73521972D01*
X187065820Y-73614948D01*
X187162928Y-73705050D01*
X187263130Y-73798024D01*
X187263132Y-73798025D01*
X187263135Y-73798028D01*
X187485532Y-73949656D01*
X187728044Y-74066444D01*
X187985254Y-74145783D01*
X187985255Y-74145783D01*
X187985258Y-74145784D01*
X188251408Y-74185899D01*
X188251413Y-74185899D01*
X188251416Y-74185900D01*
X188251417Y-74185900D01*
X188520583Y-74185900D01*
X188520584Y-74185900D01*
X188520591Y-74185899D01*
X188786741Y-74145784D01*
X188786742Y-74145783D01*
X188786746Y-74145783D01*
X189043956Y-74066444D01*
X189286468Y-73949656D01*
X189508865Y-73798028D01*
X189706180Y-73614948D01*
X189874003Y-73404503D01*
X190008587Y-73171397D01*
X190106925Y-72920835D01*
X190166821Y-72658416D01*
X190178655Y-72500500D01*
X190186936Y-72390004D01*
X190186936Y-72389995D01*
X190166822Y-72121593D01*
X190166821Y-72121588D01*
X190166821Y-72121584D01*
X190106925Y-71859165D01*
X190008587Y-71608603D01*
X189874003Y-71375497D01*
X189791321Y-71271816D01*
X189706185Y-71165058D01*
X189706183Y-71165056D01*
X189706180Y-71165052D01*
X189602762Y-71069095D01*
X189508869Y-70981975D01*
X189336574Y-70864506D01*
X189286468Y-70830344D01*
X189286465Y-70830343D01*
X189286463Y-70830341D01*
X189043956Y-70713556D01*
X188786747Y-70634217D01*
X188786741Y-70634215D01*
X188520591Y-70594100D01*
X188520584Y-70594100D01*
X188251416Y-70594100D01*
X188251408Y-70594100D01*
X187985258Y-70634215D01*
X187985252Y-70634217D01*
X187728043Y-70713556D01*
X187485536Y-70830341D01*
X187263130Y-70981975D01*
X187065822Y-71165050D01*
X187065814Y-71165058D01*
X186897999Y-71375493D01*
X186763413Y-71608602D01*
X186665077Y-71859159D01*
X186665071Y-71859178D01*
X186605178Y-72121588D01*
X186605177Y-72121593D01*
X186585064Y-72389995D01*
X186585064Y-72390004D01*
X126946936Y-72390004D01*
X126946936Y-72389995D01*
X126926822Y-72121593D01*
X126926821Y-72121588D01*
X126926821Y-72121584D01*
X126866925Y-71859165D01*
X126768587Y-71608603D01*
X126634003Y-71375497D01*
X126551321Y-71271816D01*
X126466185Y-71165058D01*
X126466183Y-71165056D01*
X126466180Y-71165052D01*
X126362762Y-71069095D01*
X126268869Y-70981975D01*
X126096574Y-70864506D01*
X126046468Y-70830344D01*
X126046465Y-70830343D01*
X126046463Y-70830341D01*
X125803956Y-70713556D01*
X125546747Y-70634217D01*
X125546741Y-70634215D01*
X125280591Y-70594100D01*
X125280584Y-70594100D01*
X125011416Y-70594100D01*
X125011408Y-70594100D01*
X124745258Y-70634215D01*
X124745252Y-70634217D01*
X124488043Y-70713556D01*
X124245536Y-70830341D01*
X124023130Y-70981975D01*
X123825822Y-71165050D01*
X123825814Y-71165058D01*
X123657999Y-71375493D01*
X123523413Y-71608602D01*
X123425077Y-71859159D01*
X123425071Y-71859178D01*
X123365178Y-72121588D01*
X123365177Y-72121593D01*
X123345064Y-72389995D01*
X123345064Y-72390004D01*
X110378366Y-72390004D01*
X110467929Y-72328183D01*
X110580734Y-72200852D01*
X110659790Y-72050225D01*
X110700500Y-71885056D01*
X110700500Y-71714944D01*
X110659790Y-71549775D01*
X110647544Y-71526443D01*
X110580736Y-71399150D01*
X110559778Y-71375493D01*
X110467929Y-71271817D01*
X110418177Y-71237475D01*
X110327931Y-71175182D01*
X110168874Y-71114860D01*
X110168868Y-71114859D01*
X110042374Y-71099500D01*
X110042372Y-71099500D01*
X109957628Y-71099500D01*
X109957626Y-71099500D01*
X109831131Y-71114859D01*
X109831125Y-71114860D01*
X109672068Y-71175182D01*
X109532072Y-71271816D01*
X109419263Y-71399150D01*
X109340210Y-71549773D01*
X109299500Y-71714944D01*
X109299500Y-71885055D01*
X105800500Y-71885055D01*
X105800500Y-69342000D01*
X108822540Y-69342000D01*
X108842326Y-69530256D01*
X108842327Y-69530259D01*
X108900818Y-69710277D01*
X108900821Y-69710284D01*
X108995467Y-69874216D01*
X109122128Y-70014888D01*
X109122129Y-70014888D01*
X109275265Y-70126148D01*
X109275270Y-70126151D01*
X109448192Y-70203142D01*
X109448197Y-70203144D01*
X109633354Y-70242500D01*
X109633355Y-70242500D01*
X109822644Y-70242500D01*
X109822646Y-70242500D01*
X110007803Y-70203144D01*
X110180730Y-70126151D01*
X110333871Y-70014888D01*
X110460533Y-69874216D01*
X110474512Y-69850004D01*
X130965064Y-69850004D01*
X130985177Y-70118406D01*
X130985178Y-70118411D01*
X130985178Y-70118415D01*
X130985179Y-70118416D01*
X130994121Y-70157594D01*
X131045071Y-70380821D01*
X131045077Y-70380840D01*
X131143413Y-70631397D01*
X131277999Y-70864506D01*
X131371674Y-70981972D01*
X131445820Y-71074948D01*
X131558758Y-71179738D01*
X131643130Y-71258024D01*
X131643132Y-71258025D01*
X131643135Y-71258028D01*
X131865532Y-71409656D01*
X132108044Y-71526444D01*
X132365254Y-71605783D01*
X132365255Y-71605783D01*
X132365258Y-71605784D01*
X132631408Y-71645899D01*
X132631413Y-71645899D01*
X132631416Y-71645900D01*
X132631417Y-71645900D01*
X132900583Y-71645900D01*
X132900584Y-71645900D01*
X132900591Y-71645899D01*
X133166741Y-71605784D01*
X133166742Y-71605783D01*
X133166746Y-71605783D01*
X133423956Y-71526444D01*
X133666468Y-71409656D01*
X133888865Y-71258028D01*
X134086180Y-71074948D01*
X134254003Y-70864503D01*
X134388587Y-70631397D01*
X134486925Y-70380835D01*
X134546821Y-70118416D01*
X134546822Y-70118406D01*
X134566936Y-69850004D01*
X178965064Y-69850004D01*
X178985177Y-70118406D01*
X178985178Y-70118411D01*
X178985178Y-70118415D01*
X178985179Y-70118416D01*
X178994121Y-70157594D01*
X179045071Y-70380821D01*
X179045077Y-70380840D01*
X179143413Y-70631397D01*
X179277999Y-70864506D01*
X179371674Y-70981972D01*
X179445820Y-71074948D01*
X179558758Y-71179738D01*
X179643130Y-71258024D01*
X179643132Y-71258025D01*
X179643135Y-71258028D01*
X179865532Y-71409656D01*
X180108044Y-71526444D01*
X180365254Y-71605783D01*
X180365255Y-71605783D01*
X180365258Y-71605784D01*
X180631408Y-71645899D01*
X180631413Y-71645899D01*
X180631416Y-71645900D01*
X180631417Y-71645900D01*
X180900583Y-71645900D01*
X180900584Y-71645900D01*
X180900591Y-71645899D01*
X181166741Y-71605784D01*
X181166742Y-71605783D01*
X181166746Y-71605783D01*
X181423956Y-71526444D01*
X181666468Y-71409656D01*
X181888865Y-71258028D01*
X182086180Y-71074948D01*
X182254003Y-70864503D01*
X182388587Y-70631397D01*
X182486925Y-70380835D01*
X182546821Y-70118416D01*
X182546822Y-70118406D01*
X182566936Y-69850004D01*
X182566936Y-69849995D01*
X182546822Y-69581593D01*
X182546821Y-69581588D01*
X182546821Y-69581584D01*
X182486925Y-69319165D01*
X182388587Y-69068603D01*
X182254003Y-68835497D01*
X182233498Y-68809784D01*
X182086185Y-68625058D01*
X182086183Y-68625056D01*
X182086180Y-68625052D01*
X181982762Y-68529095D01*
X181888869Y-68441975D01*
X181888865Y-68441972D01*
X181666468Y-68290344D01*
X181666465Y-68290343D01*
X181666463Y-68290341D01*
X181423956Y-68173556D01*
X181166747Y-68094217D01*
X181166741Y-68094215D01*
X180900591Y-68054100D01*
X180900584Y-68054100D01*
X180631416Y-68054100D01*
X180631408Y-68054100D01*
X180365258Y-68094215D01*
X180365252Y-68094217D01*
X180108043Y-68173556D01*
X179865536Y-68290341D01*
X179643130Y-68441975D01*
X179445822Y-68625050D01*
X179445814Y-68625058D01*
X179277999Y-68835493D01*
X179143413Y-69068602D01*
X179045077Y-69319159D01*
X179045071Y-69319178D01*
X178985178Y-69581588D01*
X178985177Y-69581593D01*
X178965064Y-69849995D01*
X178965064Y-69850004D01*
X134566936Y-69850004D01*
X134566936Y-69849995D01*
X134546822Y-69581593D01*
X134546821Y-69581588D01*
X134546821Y-69581584D01*
X134486925Y-69319165D01*
X134388587Y-69068603D01*
X134254003Y-68835497D01*
X134233498Y-68809784D01*
X134086185Y-68625058D01*
X134086183Y-68625056D01*
X134086180Y-68625052D01*
X133982762Y-68529095D01*
X133888869Y-68441975D01*
X133888865Y-68441972D01*
X133666468Y-68290344D01*
X133666465Y-68290343D01*
X133666463Y-68290341D01*
X133423956Y-68173556D01*
X133166747Y-68094217D01*
X133166741Y-68094215D01*
X132900591Y-68054100D01*
X132900584Y-68054100D01*
X132631416Y-68054100D01*
X132631408Y-68054100D01*
X132365258Y-68094215D01*
X132365252Y-68094217D01*
X132108043Y-68173556D01*
X131865536Y-68290341D01*
X131643130Y-68441975D01*
X131445822Y-68625050D01*
X131445814Y-68625058D01*
X131277999Y-68835493D01*
X131143413Y-69068602D01*
X131045077Y-69319159D01*
X131045071Y-69319178D01*
X130985178Y-69581588D01*
X130985177Y-69581593D01*
X130965064Y-69849995D01*
X130965064Y-69850004D01*
X110474512Y-69850004D01*
X110555179Y-69710284D01*
X110613674Y-69530256D01*
X110633460Y-69342000D01*
X110613674Y-69153744D01*
X110555179Y-68973716D01*
X110460533Y-68809784D01*
X110333871Y-68669112D01*
X110273236Y-68625058D01*
X110180734Y-68557851D01*
X110180729Y-68557848D01*
X110007807Y-68480857D01*
X110007802Y-68480855D01*
X109862000Y-68449865D01*
X109822646Y-68441500D01*
X109633354Y-68441500D01*
X109600897Y-68448398D01*
X109448197Y-68480855D01*
X109448192Y-68480857D01*
X109275270Y-68557848D01*
X109275265Y-68557851D01*
X109122129Y-68669111D01*
X108995466Y-68809785D01*
X108900821Y-68973715D01*
X108900818Y-68973722D01*
X108869990Y-69068602D01*
X108842326Y-69153744D01*
X108822540Y-69342000D01*
X105800500Y-69342000D01*
X105800500Y-65628772D01*
X134699500Y-65628772D01*
X134736151Y-65883696D01*
X134736154Y-65883706D01*
X134808714Y-66130822D01*
X134915696Y-66365080D01*
X134915709Y-66365103D01*
X135054939Y-66581749D01*
X135054943Y-66581755D01*
X135223601Y-66776398D01*
X135418244Y-66945056D01*
X135418250Y-66945060D01*
X135634896Y-67084290D01*
X135634919Y-67084303D01*
X135869177Y-67191285D01*
X135869181Y-67191286D01*
X135869183Y-67191287D01*
X136116299Y-67263847D01*
X136116300Y-67263847D01*
X136116303Y-67263848D01*
X136185351Y-67273775D01*
X136371226Y-67300500D01*
X136371229Y-67300500D01*
X139628771Y-67300500D01*
X139628774Y-67300500D01*
X139838013Y-67270415D01*
X139883696Y-67263848D01*
X139883697Y-67263847D01*
X139883701Y-67263847D01*
X140130817Y-67191287D01*
X140130820Y-67191285D01*
X140130822Y-67191285D01*
X140365080Y-67084303D01*
X140365084Y-67084300D01*
X140365092Y-67084297D01*
X140581756Y-66945056D01*
X140776398Y-66776398D01*
X140945056Y-66581756D01*
X141084297Y-66365092D01*
X141084300Y-66365084D01*
X141084303Y-66365080D01*
X141191285Y-66130822D01*
X141191285Y-66130820D01*
X141191287Y-66130817D01*
X141263847Y-65883701D01*
X141300500Y-65628774D01*
X141300500Y-65628772D01*
X172199500Y-65628772D01*
X172236151Y-65883696D01*
X172236154Y-65883706D01*
X172308714Y-66130822D01*
X172415696Y-66365080D01*
X172415709Y-66365103D01*
X172554939Y-66581749D01*
X172554943Y-66581755D01*
X172723601Y-66776398D01*
X172918244Y-66945056D01*
X172918250Y-66945060D01*
X173134896Y-67084290D01*
X173134919Y-67084303D01*
X173369177Y-67191285D01*
X173369181Y-67191286D01*
X173369183Y-67191287D01*
X173616299Y-67263847D01*
X173616300Y-67263847D01*
X173616303Y-67263848D01*
X173685351Y-67273775D01*
X173871226Y-67300500D01*
X173871229Y-67300500D01*
X177128771Y-67300500D01*
X177128774Y-67300500D01*
X177338013Y-67270415D01*
X177383696Y-67263848D01*
X177383697Y-67263847D01*
X177383701Y-67263847D01*
X177630817Y-67191287D01*
X177630820Y-67191285D01*
X177630822Y-67191285D01*
X177865080Y-67084303D01*
X177865084Y-67084300D01*
X177865092Y-67084297D01*
X178081756Y-66945056D01*
X178276398Y-66776398D01*
X178445056Y-66581756D01*
X178584297Y-66365092D01*
X178584300Y-66365084D01*
X178584303Y-66365080D01*
X178691285Y-66130822D01*
X178691285Y-66130820D01*
X178691287Y-66130817D01*
X178763847Y-65883701D01*
X178800500Y-65628774D01*
X178800500Y-65371226D01*
X178763847Y-65116299D01*
X178691287Y-64869183D01*
X178691286Y-64869181D01*
X178691285Y-64869177D01*
X178584303Y-64634919D01*
X178584290Y-64634896D01*
X178497598Y-64500000D01*
X179594540Y-64500000D01*
X179614326Y-64688256D01*
X179614327Y-64688259D01*
X179672818Y-64868277D01*
X179672821Y-64868284D01*
X179767467Y-65032216D01*
X179894128Y-65172888D01*
X179894129Y-65172888D01*
X180047265Y-65284148D01*
X180047270Y-65284151D01*
X180220192Y-65361142D01*
X180220197Y-65361144D01*
X180405354Y-65400500D01*
X180405355Y-65400500D01*
X180594644Y-65400500D01*
X180594646Y-65400500D01*
X180779803Y-65361144D01*
X180952730Y-65284151D01*
X181105871Y-65172888D01*
X181232533Y-65032216D01*
X181327179Y-64868284D01*
X181385674Y-64688256D01*
X181405460Y-64500000D01*
X187594540Y-64500000D01*
X187614326Y-64688256D01*
X187614327Y-64688259D01*
X187672818Y-64868277D01*
X187672821Y-64868284D01*
X187767467Y-65032216D01*
X187894128Y-65172888D01*
X187894129Y-65172888D01*
X188047265Y-65284148D01*
X188047270Y-65284151D01*
X188220192Y-65361142D01*
X188220197Y-65361144D01*
X188405354Y-65400500D01*
X188405355Y-65400500D01*
X188594644Y-65400500D01*
X188594646Y-65400500D01*
X188779803Y-65361144D01*
X188952730Y-65284151D01*
X189105871Y-65172888D01*
X189232533Y-65032216D01*
X189327179Y-64868284D01*
X189385674Y-64688256D01*
X189405460Y-64500000D01*
X189385674Y-64311744D01*
X189327179Y-64131716D01*
X189232533Y-63967784D01*
X189105871Y-63827112D01*
X189105870Y-63827111D01*
X188952734Y-63715851D01*
X188952729Y-63715848D01*
X188779807Y-63638857D01*
X188779802Y-63638855D01*
X188634000Y-63607865D01*
X188594646Y-63599500D01*
X188405354Y-63599500D01*
X188372897Y-63606398D01*
X188220197Y-63638855D01*
X188220192Y-63638857D01*
X188047270Y-63715848D01*
X188047265Y-63715851D01*
X187894129Y-63827111D01*
X187767466Y-63967785D01*
X187672821Y-64131715D01*
X187672818Y-64131722D01*
X187614327Y-64311740D01*
X187614326Y-64311744D01*
X187594540Y-64500000D01*
X181405460Y-64500000D01*
X181385674Y-64311744D01*
X181327179Y-64131716D01*
X181232533Y-63967784D01*
X181105871Y-63827112D01*
X181105870Y-63827111D01*
X180952734Y-63715851D01*
X180952729Y-63715848D01*
X180779807Y-63638857D01*
X180779802Y-63638855D01*
X180634000Y-63607865D01*
X180594646Y-63599500D01*
X180405354Y-63599500D01*
X180372897Y-63606398D01*
X180220197Y-63638855D01*
X180220192Y-63638857D01*
X180047270Y-63715848D01*
X180047265Y-63715851D01*
X179894129Y-63827111D01*
X179767466Y-63967785D01*
X179672821Y-64131715D01*
X179672818Y-64131722D01*
X179614327Y-64311740D01*
X179614326Y-64311744D01*
X179594540Y-64500000D01*
X178497598Y-64500000D01*
X178445060Y-64418250D01*
X178445056Y-64418244D01*
X178276398Y-64223601D01*
X178081755Y-64054943D01*
X178081749Y-64054939D01*
X177865103Y-63915709D01*
X177865080Y-63915696D01*
X177630822Y-63808714D01*
X177383706Y-63736154D01*
X177383696Y-63736151D01*
X177175502Y-63706218D01*
X177128774Y-63699500D01*
X177044954Y-63699500D01*
X174084136Y-63699500D01*
X174000000Y-63699500D01*
X173871226Y-63699500D01*
X173847861Y-63702859D01*
X173616303Y-63736151D01*
X173616293Y-63736154D01*
X173369177Y-63808714D01*
X173134919Y-63915696D01*
X173134896Y-63915709D01*
X172918250Y-64054939D01*
X172918244Y-64054943D01*
X172723601Y-64223601D01*
X172554943Y-64418244D01*
X172554939Y-64418250D01*
X172415709Y-64634896D01*
X172415696Y-64634919D01*
X172308714Y-64869177D01*
X172236154Y-65116293D01*
X172236151Y-65116303D01*
X172199500Y-65371227D01*
X172199500Y-65628772D01*
X141300500Y-65628772D01*
X141300500Y-65371226D01*
X141263847Y-65116299D01*
X141191287Y-64869183D01*
X141191286Y-64869181D01*
X141191285Y-64869177D01*
X141084303Y-64634919D01*
X141084290Y-64634896D01*
X140945060Y-64418250D01*
X140945056Y-64418244D01*
X140776398Y-64223601D01*
X140581755Y-64054943D01*
X140581749Y-64054939D01*
X140365103Y-63915709D01*
X140365080Y-63915696D01*
X140130822Y-63808714D01*
X139883706Y-63736154D01*
X139883696Y-63736151D01*
X139675502Y-63706218D01*
X139628774Y-63699500D01*
X139544954Y-63699500D01*
X136584136Y-63699500D01*
X136500000Y-63699500D01*
X136371226Y-63699500D01*
X136347861Y-63702859D01*
X136116303Y-63736151D01*
X136116293Y-63736154D01*
X135869177Y-63808714D01*
X135634919Y-63915696D01*
X135634896Y-63915709D01*
X135418250Y-64054939D01*
X135418244Y-64054943D01*
X135223601Y-64223601D01*
X135054943Y-64418244D01*
X135054939Y-64418250D01*
X134915709Y-64634896D01*
X134915696Y-64634919D01*
X134808714Y-64869177D01*
X134736154Y-65116293D01*
X134736151Y-65116303D01*
X134699500Y-65371227D01*
X134699500Y-65628772D01*
X105800500Y-65628772D01*
X105800500Y-65001439D01*
X105800566Y-64998575D01*
X105818282Y-64615381D01*
X105818808Y-64609690D01*
X105871609Y-64231171D01*
X105872658Y-64225560D01*
X105960159Y-63853528D01*
X105961719Y-63848047D01*
X106083178Y-63485665D01*
X106085229Y-63480370D01*
X106239614Y-63130721D01*
X106242145Y-63125638D01*
X106428119Y-62791748D01*
X106431131Y-62786886D01*
X106433007Y-62784148D01*
X106647111Y-62471594D01*
X106650549Y-62467041D01*
X106894706Y-62173013D01*
X106898554Y-62168792D01*
X107067346Y-62000000D01*
X112094540Y-62000000D01*
X112114326Y-62188256D01*
X112114327Y-62188259D01*
X112172818Y-62368277D01*
X112172821Y-62368284D01*
X112267467Y-62532216D01*
X112301210Y-62569691D01*
X112394129Y-62672888D01*
X112547265Y-62784148D01*
X112547270Y-62784151D01*
X112720192Y-62861142D01*
X112720197Y-62861144D01*
X112905354Y-62900500D01*
X112905355Y-62900500D01*
X113094644Y-62900500D01*
X113094646Y-62900500D01*
X113279803Y-62861144D01*
X113305956Y-62849500D01*
X116732202Y-62849500D01*
X116751988Y-63037756D01*
X116751989Y-63037759D01*
X116810480Y-63217777D01*
X116810483Y-63217784D01*
X116905129Y-63381716D01*
X116993928Y-63480337D01*
X117031791Y-63522388D01*
X117184927Y-63633648D01*
X117184932Y-63633651D01*
X117357854Y-63710642D01*
X117357859Y-63710644D01*
X117543016Y-63750000D01*
X117543017Y-63750000D01*
X117732306Y-63750000D01*
X117732308Y-63750000D01*
X117917465Y-63710644D01*
X118090392Y-63633651D01*
X118243533Y-63522388D01*
X118370195Y-63381716D01*
X118464841Y-63217784D01*
X118523336Y-63037756D01*
X118543122Y-62849500D01*
X118523336Y-62661244D01*
X118464841Y-62481216D01*
X118370195Y-62317284D01*
X118243533Y-62176612D01*
X118243532Y-62176611D01*
X118090396Y-62065351D01*
X118090391Y-62065348D01*
X117917469Y-61988357D01*
X117917464Y-61988355D01*
X117771662Y-61957365D01*
X117732308Y-61949000D01*
X117543016Y-61949000D01*
X117510559Y-61955898D01*
X117357859Y-61988355D01*
X117357854Y-61988357D01*
X117184932Y-62065348D01*
X117184927Y-62065351D01*
X117031791Y-62176611D01*
X116905128Y-62317285D01*
X116810483Y-62481215D01*
X116810480Y-62481222D01*
X116751989Y-62661240D01*
X116751988Y-62661244D01*
X116732202Y-62849500D01*
X113305956Y-62849500D01*
X113452730Y-62784151D01*
X113605871Y-62672888D01*
X113732533Y-62532216D01*
X113827179Y-62368284D01*
X113885674Y-62188256D01*
X113905460Y-62000000D01*
X113885674Y-61811744D01*
X113827179Y-61631716D01*
X113732533Y-61467784D01*
X113605871Y-61327112D01*
X113605870Y-61327111D01*
X113452734Y-61215851D01*
X113452729Y-61215848D01*
X113279807Y-61138857D01*
X113279802Y-61138855D01*
X113134000Y-61107865D01*
X113094646Y-61099500D01*
X112905354Y-61099500D01*
X112872897Y-61106398D01*
X112720197Y-61138855D01*
X112720192Y-61138857D01*
X112547270Y-61215848D01*
X112547265Y-61215851D01*
X112394129Y-61327111D01*
X112267466Y-61467785D01*
X112172821Y-61631715D01*
X112172818Y-61631722D01*
X112126288Y-61774929D01*
X112114326Y-61811744D01*
X112094540Y-62000000D01*
X107067346Y-62000000D01*
X107168792Y-61898554D01*
X107173015Y-61894705D01*
X107467041Y-61650549D01*
X107471594Y-61647111D01*
X107786886Y-61431130D01*
X107791748Y-61428119D01*
X108125638Y-61242145D01*
X108130721Y-61239614D01*
X108480370Y-61085229D01*
X108485665Y-61083178D01*
X108848047Y-60961719D01*
X108853528Y-60960159D01*
X109225560Y-60872658D01*
X109231171Y-60871609D01*
X109609690Y-60818808D01*
X109615381Y-60818282D01*
X109998576Y-60800566D01*
X110001440Y-60800500D01*
X110084136Y-60800500D01*
X189915864Y-60800500D01*
X189998560Y-60800500D01*
X190001424Y-60800566D01*
G37*
%TD.AperFunction*%
%TD*%
M02*
